<ttFont>
    <TTGlyph name=".notdef" xMin="87" yMin="-220" xMax="537" yMax="1030">
      <contour>
        <pt x="87" y="1030" on="1"/>
        <pt x="537" y="1030" on="1"/>
        <pt x="537" y="-220" on="1"/>
        <pt x="87" y="-220" on="1"/>
      </contour>
      <contour>
        <pt x="470" y="-156" on="1"/>
        <pt x="470" y="967" on="1"/>
        <pt x="153" y="967" on="1"/>
        <pt x="153" y="-156" on="1"/>
      </contour>
    </TTGlyph>
    <TTGlyph name="A" xMin="7" yMin="0" xMax="544" yMax="740">
      <contour>
        <pt x="7" y="6" on="1"/>
        <pt x="222" y="740" on="1"/>
        <pt x="327" y="740" on="1"/>
        <pt x="544" y="6" on="1"/>
        <pt x="544" y="0" on="1"/>
        <pt x="474" y="0" on="1"/>
        <pt x="405" y="227" on="1"/>
        <pt x="145" y="227" on="1"/>
        <pt x="77" y="0" on="1"/>
        <pt x="7" y="0" on="1"/>
      </contour>
      <contour>
        <pt x="389" y="290" on="1"/>
        <pt x="308" y="562" on="1"/>
        <pt x="278" y="672" on="1"/>
        <pt x="271" y="672" on="1"/>
        <pt x="242" y="562" on="1"/>
        <pt x="161" y="290" on="1"/>
      </contour>
    </TTGlyph>
    <TTGlyph name="A.sc" xMin="11" yMin="0" xMax="487" yMax="577">
      <contour>
        <pt x="11" y="5" on="1"/>
        <pt x="199" y="577" on="1"/>
        <pt x="301" y="577" on="1"/>
        <pt x="487" y="5" on="1"/>
        <pt x="487" y="0" on="1"/>
        <pt x="419" y="0" on="1"/>
        <pt x="363" y="168" on="1"/>
        <pt x="136" y="168" on="1"/>
        <pt x="79" y="0" on="1"/>
        <pt x="11" y="0" on="1"/>
      </contour>
      <contour>
        <pt x="348" y="223" on="1"/>
        <pt x="278" y="432" on="1"/>
        <pt x="252" y="517" on="1"/>
        <pt x="246" y="517" on="1"/>
        <pt x="221" y="432" on="1"/>
        <pt x="150" y="223" on="1"/>
      </contour>
    </TTGlyph>
    <TTGlyph name="AE" xMin="5" yMin="0" xMax="716" yMax="740">
      <contour>
        <pt x="5" y="6" on="1"/>
        <pt x="244" y="740" on="1"/>
        <pt x="707" y="740" on="1"/>
        <pt x="707" y="674" on="1"/>
        <pt x="420" y="674" on="1"/>
        <pt x="433" y="407" on="1"/>
        <pt x="681" y="407" on="1"/>
        <pt x="681" y="342" on="1"/>
        <pt x="436" y="342" on="1"/>
        <pt x="450" y="66" on="1"/>
        <pt x="716" y="66" on="1"/>
        <pt x="716" y="0" on="1"/>
        <pt x="378" y="0" on="1"/>
        <pt x="368" y="226" on="1"/>
        <pt x="153" y="226" on="1"/>
        <pt x="79" y="0" on="1"/>
        <pt x="5" y="0" on="1"/>
      </contour>
      <contour>
        <pt x="174" y="292" on="1"/>
        <pt x="366" y="292" on="1"/>
        <pt x="350" y="677" on="1"/>
        <pt x="300" y="677" on="1"/>
      </contour>
    </TTGlyph>
    <TTGlyph name="AE.sc" xMin="13" yMin="0" xMax="640" yMax="577">
      <contour>
        <pt x="13" y="5" on="1"/>
        <pt x="221" y="577" on="1"/>
        <pt x="633" y="577" on="1"/>
        <pt x="633" y="517" on="1"/>
        <pt x="385" y="517" on="1"/>
        <pt x="395" y="321" on="1"/>
        <pt x="610" y="321" on="1"/>
        <pt x="610" y="262" on="1"/>
        <pt x="399" y="262" on="1"/>
        <pt x="411" y="61" on="1"/>
        <pt x="640" y="61" on="1"/>
        <pt x="640" y="0" on="1"/>
        <pt x="341" y="0" on="1"/>
        <pt x="334" y="168" on="1"/>
        <pt x="147" y="168" on="1"/>
        <pt x="85" y="0" on="1"/>
        <pt x="13" y="0" on="1"/>
      </contour>
      <contour>
        <pt x="167" y="225" on="1"/>
        <pt x="331" y="225" on="1"/>
        <pt x="318" y="519" on="1"/>
        <pt x="275" y="519" on="1"/>
      </contour>
    </TTGlyph>
    <TTGlyph name="AEacute" xMin="5" yMin="0" xMax="716" yMax="929">
      <contour>
        <pt x="419" y="790" on="1"/>
        <pt x="494" y="929" on="1"/>
        <pt x="571" y="929" on="1"/>
        <pt x="477" y="786" on="1"/>
      </contour>
      <contour>
        <pt x="5" y="6" on="1"/>
        <pt x="244" y="740" on="1"/>
        <pt x="707" y="740" on="1"/>
        <pt x="707" y="674" on="1"/>
        <pt x="420" y="674" on="1"/>
        <pt x="433" y="407" on="1"/>
        <pt x="681" y="407" on="1"/>
        <pt x="681" y="342" on="1"/>
        <pt x="436" y="342" on="1"/>
        <pt x="450" y="66" on="1"/>
        <pt x="716" y="66" on="1"/>
        <pt x="716" y="0" on="1"/>
        <pt x="378" y="0" on="1"/>
        <pt x="368" y="226" on="1"/>
        <pt x="153" y="226" on="1"/>
        <pt x="79" y="0" on="1"/>
        <pt x="5" y="0" on="1"/>
      </contour>
      <contour>
        <pt x="174" y="292" on="1"/>
        <pt x="366" y="292" on="1"/>
        <pt x="350" y="677" on="1"/>
        <pt x="300" y="677" on="1"/>
      </contour>
    </TTGlyph>
    <TTGlyph name="AEacute.sc" xMin="13" yMin="0" xMax="640" yMax="732">
      <contour>
        <pt x="13" y="5" on="1"/>
        <pt x="221" y="577" on="1"/>
        <pt x="633" y="577" on="1"/>
        <pt x="633" y="517" on="1"/>
        <pt x="385" y="517" on="1"/>
        <pt x="395" y="321" on="1"/>
        <pt x="610" y="321" on="1"/>
        <pt x="610" y="262" on="1"/>
        <pt x="399" y="262" on="1"/>
        <pt x="411" y="61" on="1"/>
        <pt x="640" y="61" on="1"/>
        <pt x="640" y="0" on="1"/>
        <pt x="341" y="0" on="1"/>
        <pt x="334" y="168" on="1"/>
        <pt x="147" y="168" on="1"/>
        <pt x="85" y="0" on="1"/>
        <pt x="13" y="0" on="1"/>
      </contour>
      <contour>
        <pt x="331" y="225" on="1"/>
        <pt x="318" y="519" on="1"/>
        <pt x="275" y="519" on="1"/>
        <pt x="167" y="225" on="1"/>
      </contour>
      <contour>
        <pt x="373" y="618" on="1"/>
        <pt x="438" y="732" on="1"/>
        <pt x="512" y="732" on="1"/>
        <pt x="428" y="615" on="1"/>
      </contour>
    </TTGlyph>
    <TTGlyph name="Aacute" xMin="7" yMin="0" xMax="544" yMax="929">
      <contour>
        <pt x="7" y="6" on="1"/>
        <pt x="222" y="740" on="1"/>
        <pt x="327" y="740" on="1"/>
        <pt x="544" y="6" on="1"/>
        <pt x="544" y="0" on="1"/>
        <pt x="474" y="0" on="1"/>
        <pt x="405" y="227" on="1"/>
        <pt x="145" y="227" on="1"/>
        <pt x="77" y="0" on="1"/>
        <pt x="7" y="0" on="1"/>
      </contour>
      <contour>
        <pt x="389" y="290" on="1"/>
        <pt x="308" y="562" on="1"/>
        <pt x="278" y="672" on="1"/>
        <pt x="271" y="672" on="1"/>
        <pt x="242" y="562" on="1"/>
        <pt x="161" y="290" on="1"/>
      </contour>
      <contour>
        <pt x="243" y="790" on="1"/>
        <pt x="318" y="929" on="1"/>
        <pt x="395" y="929" on="1"/>
        <pt x="301" y="786" on="1"/>
      </contour>
    </TTGlyph>
    <TTGlyph name="Aacute.sc" xMin="11" yMin="0" xMax="487" yMax="732">
      <contour>
        <pt x="11" y="5" on="1"/>
        <pt x="199" y="577" on="1"/>
        <pt x="301" y="577" on="1"/>
        <pt x="487" y="5" on="1"/>
        <pt x="487" y="0" on="1"/>
        <pt x="419" y="0" on="1"/>
        <pt x="363" y="168" on="1"/>
        <pt x="136" y="168" on="1"/>
        <pt x="79" y="0" on="1"/>
        <pt x="11" y="0" on="1"/>
      </contour>
      <contour>
        <pt x="348" y="223" on="1"/>
        <pt x="278" y="432" on="1"/>
        <pt x="252" y="517" on="1"/>
        <pt x="246" y="517" on="1"/>
        <pt x="221" y="432" on="1"/>
        <pt x="150" y="223" on="1"/>
      </contour>
      <contour>
        <pt x="218" y="618" on="1"/>
        <pt x="283" y="732" on="1"/>
        <pt x="356" y="732" on="1"/>
        <pt x="273" y="615" on="1"/>
      </contour>
    </TTGlyph>
    <TTGlyph name="Abreve" xMin="7" yMin="0" xMax="544" yMax="955">
      <contour>
        <pt x="7" y="6" on="1"/>
        <pt x="222" y="740" on="1"/>
        <pt x="327" y="740" on="1"/>
        <pt x="544" y="6" on="1"/>
        <pt x="544" y="0" on="1"/>
        <pt x="474" y="0" on="1"/>
        <pt x="405" y="227" on="1"/>
        <pt x="145" y="227" on="1"/>
        <pt x="77" y="0" on="1"/>
        <pt x="7" y="0" on="1"/>
      </contour>
      <contour>
        <pt x="389" y="290" on="1"/>
        <pt x="308" y="562" on="1"/>
        <pt x="278" y="672" on="1"/>
        <pt x="271" y="672" on="1"/>
        <pt x="242" y="562" on="1"/>
        <pt x="161" y="290" on="1"/>
      </contour>
      <contour>
        <pt x="277" y="809" on="1"/>
        <pt x="206" y="809" on="0"/>
        <pt x="128" y="886" on="0"/>
        <pt x="128" y="955" on="1"/>
        <pt x="185" y="955" on="1"/>
        <pt x="185" y="857" on="0"/>
        <pt x="277" y="857" on="1"/>
        <pt x="321" y="857" on="0"/>
        <pt x="368" y="906" on="0"/>
        <pt x="368" y="955" on="1"/>
        <pt x="425" y="955" on="1"/>
        <pt x="425" y="887" on="0"/>
        <pt x="347" y="809" on="0"/>
      </contour>
    </TTGlyph>
    <TTGlyph name="Abreve.sc" xMin="11" yMin="0" xMax="487" yMax="748">
      <contour>
        <pt x="251" y="629" on="1"/>
        <pt x="188" y="629" on="0"/>
        <pt x="118" y="692" on="0"/>
        <pt x="118" y="748" on="1"/>
        <pt x="172" y="748" on="1"/>
        <pt x="172" y="671" on="0"/>
        <pt x="251" y="671" on="1"/>
        <pt x="329" y="671" on="0"/>
        <pt x="329" y="748" on="1"/>
        <pt x="383" y="748" on="1"/>
        <pt x="383" y="692" on="0"/>
        <pt x="314" y="629" on="0"/>
      </contour>
      <contour>
        <pt x="11" y="5" on="1"/>
        <pt x="199" y="577" on="1"/>
        <pt x="301" y="577" on="1"/>
        <pt x="487" y="5" on="1"/>
        <pt x="487" y="0" on="1"/>
        <pt x="419" y="0" on="1"/>
        <pt x="363" y="168" on="1"/>
        <pt x="136" y="168" on="1"/>
        <pt x="79" y="0" on="1"/>
        <pt x="11" y="0" on="1"/>
      </contour>
      <contour>
        <pt x="348" y="223" on="1"/>
        <pt x="278" y="432" on="1"/>
        <pt x="252" y="517" on="1"/>
        <pt x="246" y="517" on="1"/>
        <pt x="221" y="432" on="1"/>
        <pt x="150" y="223" on="1"/>
      </contour>
    </TTGlyph>
    <TTGlyph name="Acircumflex" xMin="7" yMin="0" xMax="544" yMax="944">
      <contour>
        <pt x="7" y="6" on="1"/>
        <pt x="222" y="740" on="1"/>
        <pt x="327" y="740" on="1"/>
        <pt x="544" y="6" on="1"/>
        <pt x="544" y="0" on="1"/>
        <pt x="474" y="0" on="1"/>
        <pt x="405" y="227" on="1"/>
        <pt x="145" y="227" on="1"/>
        <pt x="77" y="0" on="1"/>
        <pt x="7" y="0" on="1"/>
      </contour>
      <contour>
        <pt x="389" y="290" on="1"/>
        <pt x="308" y="562" on="1"/>
        <pt x="278" y="672" on="1"/>
        <pt x="271" y="672" on="1"/>
        <pt x="242" y="562" on="1"/>
        <pt x="161" y="290" on="1"/>
      </contour>
      <contour>
        <pt x="142" y="872" on="1"/>
        <pt x="275" y="944" on="1"/>
        <pt x="409" y="872" on="1"/>
        <pt x="409" y="811" on="1"/>
        <pt x="275" y="883" on="1"/>
        <pt x="142" y="811" on="1"/>
      </contour>
    </TTGlyph>
    <TTGlyph name="Acircumflex.sc" xMin="11" yMin="0" xMax="487" yMax="741">
      <contour>
        <pt x="11" y="5" on="1"/>
        <pt x="199" y="577" on="1"/>
        <pt x="301" y="577" on="1"/>
        <pt x="487" y="5" on="1"/>
        <pt x="487" y="0" on="1"/>
        <pt x="419" y="0" on="1"/>
        <pt x="363" y="168" on="1"/>
        <pt x="136" y="168" on="1"/>
        <pt x="79" y="0" on="1"/>
        <pt x="11" y="0" on="1"/>
      </contour>
      <contour>
        <pt x="348" y="223" on="1"/>
        <pt x="278" y="432" on="1"/>
        <pt x="252" y="517" on="1"/>
        <pt x="246" y="517" on="1"/>
        <pt x="221" y="432" on="1"/>
        <pt x="150" y="223" on="1"/>
      </contour>
      <contour>
        <pt x="131" y="685" on="1"/>
        <pt x="250" y="741" on="1"/>
        <pt x="369" y="685" on="1"/>
        <pt x="369" y="630" on="1"/>
        <pt x="249" y="686" on="1"/>
        <pt x="131" y="630" on="1"/>
      </contour>
    </TTGlyph>
    <TTGlyph name="Adblgrave" xMin="7" yMin="0" xMax="544" yMax="929">
      <contour>
        <pt x="7" y="6" on="1"/>
        <pt x="222" y="740" on="1"/>
        <pt x="327" y="740" on="1"/>
        <pt x="544" y="6" on="1"/>
        <pt x="544" y="0" on="1"/>
        <pt x="474" y="0" on="1"/>
        <pt x="405" y="227" on="1"/>
        <pt x="145" y="227" on="1"/>
        <pt x="77" y="0" on="1"/>
        <pt x="7" y="0" on="1"/>
      </contour>
      <contour>
        <pt x="389" y="290" on="1"/>
        <pt x="308" y="562" on="1"/>
        <pt x="278" y="672" on="1"/>
        <pt x="271" y="672" on="1"/>
        <pt x="242" y="562" on="1"/>
        <pt x="161" y="290" on="1"/>
      </contour>
      <contour>
        <pt x="183" y="786" on="1"/>
        <pt x="89" y="929" on="1"/>
        <pt x="156" y="929" on="1"/>
        <pt x="231" y="799" on="1"/>
      </contour>
      <contour>
        <pt x="328" y="786" on="1"/>
        <pt x="233" y="929" on="1"/>
        <pt x="301" y="929" on="1"/>
        <pt x="376" y="799" on="1"/>
      </contour>
    </TTGlyph>
    <TTGlyph name="Adblgrave.sc" xMin="11" yMin="0" xMax="487" yMax="732">
      <contour>
        <pt x="11" y="5" on="1"/>
        <pt x="199" y="577" on="1"/>
        <pt x="301" y="577" on="1"/>
        <pt x="487" y="5" on="1"/>
        <pt x="487" y="0" on="1"/>
        <pt x="419" y="0" on="1"/>
        <pt x="363" y="168" on="1"/>
        <pt x="136" y="168" on="1"/>
        <pt x="79" y="0" on="1"/>
        <pt x="11" y="0" on="1"/>
      </contour>
      <contour>
        <pt x="348" y="223" on="1"/>
        <pt x="278" y="432" on="1"/>
        <pt x="252" y="517" on="1"/>
        <pt x="246" y="517" on="1"/>
        <pt x="221" y="432" on="1"/>
        <pt x="150" y="223" on="1"/>
      </contour>
      <contour>
        <pt x="83" y="732" on="1"/>
        <pt x="147" y="732" on="1"/>
        <pt x="211" y="624" on="1"/>
        <pt x="166" y="614" on="1"/>
      </contour>
      <contour>
        <pt x="211" y="732" on="1"/>
        <pt x="275" y="732" on="1"/>
        <pt x="340" y="624" on="1"/>
        <pt x="295" y="614" on="1"/>
      </contour>
    </TTGlyph>
    <TTGlyph name="Adieresis" xMin="7" yMin="0" xMax="544" yMax="904">
      <contour>
        <pt x="7" y="6" on="1"/>
        <pt x="222" y="740" on="1"/>
        <pt x="327" y="740" on="1"/>
        <pt x="544" y="6" on="1"/>
        <pt x="544" y="0" on="1"/>
        <pt x="474" y="0" on="1"/>
        <pt x="405" y="227" on="1"/>
        <pt x="145" y="227" on="1"/>
        <pt x="77" y="0" on="1"/>
        <pt x="7" y="0" on="1"/>
      </contour>
      <contour>
        <pt x="389" y="290" on="1"/>
        <pt x="308" y="562" on="1"/>
        <pt x="278" y="672" on="1"/>
        <pt x="271" y="672" on="1"/>
        <pt x="242" y="562" on="1"/>
        <pt x="161" y="290" on="1"/>
      </contour>
      <contour>
        <pt x="179" y="810" on="1"/>
        <pt x="132" y="810" on="0"/>
        <pt x="132" y="857" on="1"/>
        <pt x="132" y="904" on="0"/>
        <pt x="179" y="904" on="1"/>
        <pt x="228" y="904" on="0"/>
        <pt x="228" y="857" on="1"/>
        <pt x="228" y="810" on="0"/>
      </contour>
      <contour>
        <pt x="371" y="810" on="1"/>
        <pt x="323" y="810" on="0"/>
        <pt x="323" y="857" on="1"/>
        <pt x="323" y="904" on="0"/>
        <pt x="371" y="904" on="1"/>
        <pt x="393" y="904" on="0"/>
        <pt x="419" y="882" on="0"/>
        <pt x="419" y="857" on="1"/>
        <pt x="419" y="832" on="0"/>
        <pt x="393" y="810" on="0"/>
      </contour>
    </TTGlyph>
    <TTGlyph name="Adieresis.sc" xMin="11" yMin="0" xMax="487" yMax="716">
      <contour>
        <pt x="163" y="631" on="1"/>
        <pt x="119" y="631" on="0"/>
        <pt x="119" y="673" on="1"/>
        <pt x="119" y="696" on="0"/>
        <pt x="142" y="716" on="0"/>
        <pt x="163" y="716" on="1"/>
        <pt x="208" y="716" on="0"/>
        <pt x="208" y="673" on="1"/>
        <pt x="208" y="631" on="0"/>
      </contour>
      <contour>
        <pt x="336" y="631" on="1"/>
        <pt x="315" y="631" on="0"/>
        <pt x="291" y="651" on="0"/>
        <pt x="291" y="673" on="1"/>
        <pt x="291" y="696" on="0"/>
        <pt x="315" y="716" on="0"/>
        <pt x="336" y="716" on="1"/>
        <pt x="356" y="716" on="0"/>
        <pt x="381" y="696" on="0"/>
        <pt x="381" y="673" on="1"/>
        <pt x="381" y="651" on="0"/>
        <pt x="356" y="631" on="0"/>
      </contour>
      <contour>
        <pt x="11" y="5" on="1"/>
        <pt x="199" y="577" on="1"/>
        <pt x="301" y="577" on="1"/>
        <pt x="487" y="5" on="1"/>
        <pt x="487" y="0" on="1"/>
        <pt x="419" y="0" on="1"/>
        <pt x="363" y="168" on="1"/>
        <pt x="136" y="168" on="1"/>
        <pt x="79" y="0" on="1"/>
        <pt x="11" y="0" on="1"/>
      </contour>
      <contour>
        <pt x="348" y="223" on="1"/>
        <pt x="278" y="432" on="1"/>
        <pt x="252" y="517" on="1"/>
        <pt x="246" y="517" on="1"/>
        <pt x="221" y="432" on="1"/>
        <pt x="150" y="223" on="1"/>
      </contour>
    </TTGlyph>
    <TTGlyph name="Agrave" xMin="7" yMin="0" xMax="544" yMax="929">
      <contour>
        <pt x="7" y="6" on="1"/>
        <pt x="222" y="740" on="1"/>
        <pt x="327" y="740" on="1"/>
        <pt x="544" y="6" on="1"/>
        <pt x="544" y="0" on="1"/>
        <pt x="474" y="0" on="1"/>
        <pt x="405" y="227" on="1"/>
        <pt x="145" y="227" on="1"/>
        <pt x="77" y="0" on="1"/>
        <pt x="7" y="0" on="1"/>
      </contour>
      <contour>
        <pt x="389" y="290" on="1"/>
        <pt x="308" y="562" on="1"/>
        <pt x="278" y="672" on="1"/>
        <pt x="271" y="672" on="1"/>
        <pt x="242" y="562" on="1"/>
        <pt x="161" y="290" on="1"/>
      </contour>
      <contour>
        <pt x="242" y="786" on="1"/>
        <pt x="148" y="929" on="1"/>
        <pt x="225" y="929" on="1"/>
        <pt x="300" y="799" on="1"/>
      </contour>
    </TTGlyph>
    <TTGlyph name="Agrave.sc" xMin="11" yMin="0" xMax="487" yMax="732">
      <contour>
        <pt x="11" y="5" on="1"/>
        <pt x="199" y="577" on="1"/>
        <pt x="301" y="577" on="1"/>
        <pt x="487" y="5" on="1"/>
        <pt x="487" y="0" on="1"/>
        <pt x="419" y="0" on="1"/>
        <pt x="363" y="168" on="1"/>
        <pt x="136" y="168" on="1"/>
        <pt x="79" y="0" on="1"/>
        <pt x="11" y="0" on="1"/>
      </contour>
      <contour>
        <pt x="348" y="223" on="1"/>
        <pt x="278" y="432" on="1"/>
        <pt x="252" y="517" on="1"/>
        <pt x="246" y="517" on="1"/>
        <pt x="221" y="432" on="1"/>
        <pt x="150" y="223" on="1"/>
      </contour>
      <contour>
        <pt x="219" y="615" on="1"/>
        <pt x="136" y="732" on="1"/>
        <pt x="210" y="732" on="1"/>
        <pt x="274" y="624" on="1"/>
      </contour>
    </TTGlyph>
    <TTGlyph name="Ainvertedbreve" xMin="7" yMin="0" xMax="544" yMax="965">
      <contour>
        <pt x="7" y="6" on="1"/>
        <pt x="222" y="740" on="1"/>
        <pt x="327" y="740" on="1"/>
        <pt x="544" y="6" on="1"/>
        <pt x="544" y="0" on="1"/>
        <pt x="474" y="0" on="1"/>
        <pt x="405" y="227" on="1"/>
        <pt x="145" y="227" on="1"/>
        <pt x="77" y="0" on="1"/>
        <pt x="7" y="0" on="1"/>
      </contour>
      <contour>
        <pt x="389" y="290" on="1"/>
        <pt x="308" y="562" on="1"/>
        <pt x="278" y="672" on="1"/>
        <pt x="271" y="672" on="1"/>
        <pt x="242" y="562" on="1"/>
        <pt x="161" y="290" on="1"/>
      </contour>
      <contour>
        <pt x="367" y="819" on="1"/>
        <pt x="367" y="869" on="0"/>
        <pt x="320" y="918" on="0"/>
        <pt x="276" y="918" on="1"/>
        <pt x="184" y="918" on="0"/>
        <pt x="184" y="819" on="1"/>
        <pt x="127" y="819" on="1"/>
        <pt x="127" y="888" on="0"/>
        <pt x="205" y="965" on="0"/>
        <pt x="276" y="965" on="1"/>
        <pt x="346" y="965" on="0"/>
        <pt x="424" y="888" on="0"/>
        <pt x="424" y="819" on="1"/>
      </contour>
    </TTGlyph>
    <TTGlyph name="Ainvertedbreve.sc" xMin="11" yMin="0" xMax="487" yMax="755">
      <contour>
        <pt x="118" y="637" on="1"/>
        <pt x="118" y="692" on="0"/>
        <pt x="186" y="755" on="0"/>
        <pt x="249" y="755" on="1"/>
        <pt x="313" y="755" on="0"/>
        <pt x="382" y="692" on="0"/>
        <pt x="382" y="637" on="1"/>
        <pt x="328" y="637" on="1"/>
        <pt x="328" y="714" on="0"/>
        <pt x="249" y="714" on="1"/>
        <pt x="172" y="714" on="0"/>
        <pt x="172" y="637" on="1"/>
      </contour>
      <contour>
        <pt x="11" y="5" on="1"/>
        <pt x="199" y="577" on="1"/>
        <pt x="301" y="577" on="1"/>
        <pt x="487" y="5" on="1"/>
        <pt x="487" y="0" on="1"/>
        <pt x="419" y="0" on="1"/>
        <pt x="363" y="168" on="1"/>
        <pt x="136" y="168" on="1"/>
        <pt x="79" y="0" on="1"/>
        <pt x="11" y="0" on="1"/>
      </contour>
      <contour>
        <pt x="348" y="223" on="1"/>
        <pt x="278" y="432" on="1"/>
        <pt x="252" y="517" on="1"/>
        <pt x="246" y="517" on="1"/>
        <pt x="221" y="432" on="1"/>
        <pt x="150" y="223" on="1"/>
      </contour>
    </TTGlyph>
    <TTGlyph name="Amacron" xMin="7" yMin="0" xMax="544" yMax="897">
      <contour>
        <pt x="7" y="6" on="1"/>
        <pt x="222" y="740" on="1"/>
        <pt x="327" y="740" on="1"/>
        <pt x="544" y="6" on="1"/>
        <pt x="544" y="0" on="1"/>
        <pt x="474" y="0" on="1"/>
        <pt x="405" y="227" on="1"/>
        <pt x="145" y="227" on="1"/>
        <pt x="77" y="0" on="1"/>
        <pt x="7" y="0" on="1"/>
      </contour>
      <contour>
        <pt x="389" y="290" on="1"/>
        <pt x="308" y="562" on="1"/>
        <pt x="278" y="672" on="1"/>
        <pt x="271" y="672" on="1"/>
        <pt x="242" y="562" on="1"/>
        <pt x="161" y="290" on="1"/>
      </contour>
      <contour>
        <pt x="147" y="897" on="1"/>
        <pt x="389" y="897" on="1"/>
        <pt x="389" y="840" on="1"/>
        <pt x="147" y="840" on="1"/>
      </contour>
    </TTGlyph>
    <TTGlyph name="Amacron.sc" xMin="11" yMin="0" xMax="487" yMax="707">
      <contour>
        <pt x="11" y="5" on="1"/>
        <pt x="199" y="577" on="1"/>
        <pt x="301" y="577" on="1"/>
        <pt x="487" y="5" on="1"/>
        <pt x="487" y="0" on="1"/>
        <pt x="419" y="0" on="1"/>
        <pt x="363" y="168" on="1"/>
        <pt x="136" y="168" on="1"/>
        <pt x="79" y="0" on="1"/>
        <pt x="11" y="0" on="1"/>
      </contour>
      <contour>
        <pt x="348" y="223" on="1"/>
        <pt x="278" y="432" on="1"/>
        <pt x="252" y="517" on="1"/>
        <pt x="246" y="517" on="1"/>
        <pt x="221" y="432" on="1"/>
        <pt x="150" y="223" on="1"/>
      </contour>
      <contour>
        <pt x="134" y="707" on="1"/>
        <pt x="354" y="707" on="1"/>
        <pt x="354" y="655" on="1"/>
        <pt x="134" y="655" on="1"/>
      </contour>
    </TTGlyph>
    <TTGlyph name="Aogonek" xMin="7" yMin="-220" xMax="544" yMax="740">
      <contour>
        <pt x="487" y="-220" on="1"/>
        <pt x="442" y="-220" on="0"/>
        <pt x="394" y="-175" on="0"/>
        <pt x="394" y="-132" on="1"/>
        <pt x="394" y="-57" on="0"/>
        <pt x="483" y="0" on="1"/>
        <pt x="474" y="0" on="1"/>
        <pt x="405" y="227" on="1"/>
        <pt x="145" y="227" on="1"/>
        <pt x="77" y="0" on="1"/>
        <pt x="7" y="0" on="1"/>
        <pt x="7" y="6" on="1"/>
        <pt x="222" y="740" on="1"/>
        <pt x="327" y="740" on="1"/>
        <pt x="544" y="6" on="1"/>
        <pt x="544" y="-16" on="1"/>
        <pt x="496" y="-36" on="0"/>
        <pt x="450" y="-95" on="0"/>
        <pt x="450" y="-127" on="1"/>
        <pt x="450" y="-168" on="0"/>
        <pt x="495" y="-168" on="1"/>
        <pt x="520" y="-168" on="0"/>
        <pt x="544" y="-157" on="1"/>
        <pt x="544" y="-208" on="1"/>
        <pt x="515" y="-220" on="0"/>
      </contour>
      <contour>
        <pt x="389" y="290" on="1"/>
        <pt x="308" y="562" on="1"/>
        <pt x="278" y="672" on="1"/>
        <pt x="271" y="672" on="1"/>
        <pt x="242" y="562" on="1"/>
        <pt x="161" y="290" on="1"/>
      </contour>
    </TTGlyph>
    <TTGlyph name="Aogonek.sc" xMin="10" yMin="-169" xMax="487" yMax="577">
      <contour>
        <pt x="436" y="-169" on="1"/>
        <pt x="395" y="-169" on="0"/>
        <pt x="352" y="-135" on="0"/>
        <pt x="352" y="-100" on="1"/>
        <pt x="352" y="-44" on="0"/>
        <pt x="424" y="0" on="1"/>
        <pt x="419" y="0" on="1"/>
        <pt x="362" y="168" on="1"/>
        <pt x="135" y="168" on="1"/>
        <pt x="78" y="0" on="1"/>
        <pt x="10" y="0" on="1"/>
        <pt x="10" y="5" on="1"/>
        <pt x="198" y="577" on="1"/>
        <pt x="300" y="577" on="1"/>
        <pt x="487" y="5" on="1"/>
        <pt x="487" y="-11" on="1"/>
        <pt x="445" y="-25" on="0"/>
        <pt x="404" y="-71" on="0"/>
        <pt x="404" y="-93" on="1"/>
        <pt x="404" y="-123" on="0"/>
        <pt x="442" y="-123" on="1"/>
        <pt x="454" y="-123" on="0"/>
        <pt x="478" y="-119" on="0"/>
        <pt x="487" y="-114" on="1"/>
        <pt x="487" y="-160" on="1"/>
        <pt x="461" y="-169" on="0"/>
      </contour>
      <contour>
        <pt x="347" y="223" on="1"/>
        <pt x="278" y="437" on="1"/>
        <pt x="251" y="517" on="1"/>
        <pt x="245" y="517" on="1"/>
        <pt x="220" y="437" on="1"/>
        <pt x="149" y="223" on="1"/>
      </contour>
    </TTGlyph>
    <TTGlyph name="Aring" xMin="7" yMin="0" xMax="544" yMax="929">
      <contour>
        <pt x="7" y="6" on="1"/>
        <pt x="221" y="737" on="1"/>
        <pt x="200" y="751" on="0"/>
        <pt x="178" y="796" on="0"/>
        <pt x="178" y="825" on="1"/>
        <pt x="178" y="869" on="0"/>
        <pt x="229" y="929" on="0"/>
        <pt x="275" y="929" on="1"/>
        <pt x="321" y="929" on="0"/>
        <pt x="372" y="869" on="0"/>
        <pt x="372" y="825" on="1"/>
        <pt x="372" y="796" on="0"/>
        <pt x="349" y="751" on="0"/>
        <pt x="328" y="737" on="1"/>
        <pt x="544" y="6" on="1"/>
        <pt x="544" y="0" on="1"/>
        <pt x="474" y="0" on="1"/>
        <pt x="405" y="227" on="1"/>
        <pt x="145" y="227" on="1"/>
        <pt x="77" y="0" on="1"/>
        <pt x="7" y="0" on="1"/>
      </contour>
      <contour>
        <pt x="389" y="290" on="1"/>
        <pt x="308" y="562" on="1"/>
        <pt x="278" y="672" on="1"/>
        <pt x="271" y="672" on="1"/>
        <pt x="242" y="562" on="1"/>
        <pt x="161" y="290" on="1"/>
      </contour>
      <contour>
        <pt x="275" y="762" on="1"/>
        <pt x="302" y="762" on="0"/>
        <pt x="330" y="797" on="0"/>
        <pt x="330" y="825" on="1"/>
        <pt x="330" y="854" on="0"/>
        <pt x="303" y="889" on="0"/>
        <pt x="275" y="889" on="1"/>
        <pt x="246" y="889" on="0"/>
        <pt x="220" y="854" on="0"/>
        <pt x="220" y="825" on="1"/>
        <pt x="220" y="797" on="0"/>
        <pt x="247" y="762" on="0"/>
      </contour>
    </TTGlyph>
    <TTGlyph name="Aring.sc" xMin="11" yMin="0" xMax="487" yMax="777">
      <contour>
        <pt x="11" y="5" on="1"/>
        <pt x="199" y="577" on="1"/>
        <pt x="301" y="577" on="1"/>
        <pt x="487" y="5" on="1"/>
        <pt x="487" y="0" on="1"/>
        <pt x="419" y="0" on="1"/>
        <pt x="363" y="168" on="1"/>
        <pt x="136" y="168" on="1"/>
        <pt x="79" y="0" on="1"/>
        <pt x="11" y="0" on="1"/>
      </contour>
      <contour>
        <pt x="348" y="223" on="1"/>
        <pt x="278" y="432" on="1"/>
        <pt x="252" y="517" on="1"/>
        <pt x="246" y="517" on="1"/>
        <pt x="221" y="432" on="1"/>
        <pt x="150" y="223" on="1"/>
      </contour>
      <contour>
        <pt x="248" y="611" on="1"/>
        <pt x="207" y="611" on="0"/>
        <pt x="161" y="659" on="0"/>
        <pt x="161" y="693" on="1"/>
        <pt x="161" y="729" on="0"/>
        <pt x="207" y="777" on="0"/>
        <pt x="248" y="777" on="1"/>
        <pt x="289" y="777" on="0"/>
        <pt x="335" y="729" on="0"/>
        <pt x="335" y="693" on="1"/>
        <pt x="335" y="659" on="0"/>
        <pt x="289" y="611" on="0"/>
      </contour>
      <contour>
        <pt x="248" y="646" on="1"/>
        <pt x="272" y="646" on="0"/>
        <pt x="296" y="671" on="0"/>
        <pt x="296" y="693" on="1"/>
        <pt x="296" y="716" on="0"/>
        <pt x="273" y="742" on="0"/>
        <pt x="248" y="742" on="1"/>
        <pt x="223" y="742" on="0"/>
        <pt x="200" y="716" on="0"/>
        <pt x="200" y="693" on="1"/>
        <pt x="200" y="671" on="0"/>
        <pt x="223" y="646" on="0"/>
      </contour>
    </TTGlyph>
    <TTGlyph name="Aringacute" xMin="7" yMin="0" xMax="544" yMax="940">
      <contour>
        <pt x="7" y="6" on="1"/>
        <pt x="198" y="645" on="1"/>
        <pt x="181" y="659" on="0"/>
        <pt x="165" y="703" on="0"/>
        <pt x="165" y="729" on="1"/>
        <pt x="165" y="771" on="0"/>
        <pt x="210" y="835" on="0"/>
        <pt x="252" y="840" on="1"/>
        <pt x="312" y="940" on="1"/>
        <pt x="389" y="940" on="1"/>
        <pt x="318" y="833" on="1"/>
        <pt x="350" y="822" on="0"/>
        <pt x="385" y="765" on="0"/>
        <pt x="385" y="729" on="1"/>
        <pt x="385" y="677" on="0"/>
        <pt x="353" y="648" on="1"/>
        <pt x="544" y="6" on="1"/>
        <pt x="544" y="0" on="1"/>
        <pt x="474" y="0" on="1"/>
        <pt x="406" y="226" on="1"/>
        <pt x="145" y="226" on="1"/>
        <pt x="77" y="0" on="1"/>
        <pt x="7" y="0" on="1"/>
      </contour>
      <contour>
        <pt x="274" y="663" on="1"/>
        <pt x="302" y="663" on="0"/>
        <pt x="333" y="700" on="0"/>
        <pt x="333" y="729" on="1"/>
        <pt x="333" y="758" on="0"/>
        <pt x="303" y="795" on="0"/>
        <pt x="274" y="795" on="1"/>
        <pt x="245" y="795" on="0"/>
        <pt x="217" y="758" on="0"/>
        <pt x="217" y="729" on="1"/>
        <pt x="217" y="700" on="0"/>
        <pt x="246" y="663" on="0"/>
      </contour>
      <contour>
        <pt x="388" y="292" on="1"/>
        <pt x="310" y="562" on="1"/>
        <pt x="296" y="615" on="1"/>
        <pt x="256" y="615" on="1"/>
        <pt x="242" y="562" on="1"/>
        <pt x="162" y="292" on="1"/>
      </contour>
    </TTGlyph>
    <TTGlyph name="Aringacute.sc" xMin="11" yMin="0" xMax="487" yMax="745">
      <contour>
        <pt x="11" y="5" on="1"/>
        <pt x="177" y="507" on="1"/>
        <pt x="149" y="531" on="0"/>
        <pt x="149" y="572" on="1"/>
        <pt x="149" y="608" on="0"/>
        <pt x="189" y="659" on="0"/>
        <pt x="227" y="664" on="1"/>
        <pt x="278" y="745" on="1"/>
        <pt x="351" y="745" on="1"/>
        <pt x="289" y="657" on="1"/>
        <pt x="318" y="647" on="0"/>
        <pt x="348" y="602" on="0"/>
        <pt x="348" y="572" on="1"/>
        <pt x="348" y="533" on="0"/>
        <pt x="321" y="509" on="1"/>
        <pt x="487" y="5" on="1"/>
        <pt x="487" y="0" on="1"/>
        <pt x="419" y="0" on="1"/>
        <pt x="362" y="168" on="1"/>
        <pt x="136" y="168" on="1"/>
        <pt x="78" y="0" on="1"/>
        <pt x="11" y="0" on="1"/>
      </contour>
      <contour>
        <pt x="248" y="521" on="1"/>
        <pt x="272" y="521" on="0"/>
        <pt x="300" y="550" on="0"/>
        <pt x="300" y="572" on="1"/>
        <pt x="300" y="595" on="0"/>
        <pt x="273" y="624" on="0"/>
        <pt x="248" y="624" on="1"/>
        <pt x="222" y="624" on="0"/>
        <pt x="196" y="595" on="0"/>
        <pt x="196" y="572" on="1"/>
        <pt x="196" y="550" on="0"/>
        <pt x="223" y="521" on="0"/>
      </contour>
      <contour>
        <pt x="348" y="223" on="1"/>
        <pt x="278" y="432" on="1"/>
        <pt x="265" y="479" on="1"/>
        <pt x="232" y="478" on="1"/>
        <pt x="221" y="432" on="1"/>
        <pt x="150" y="223" on="1"/>
      </contour>
    </TTGlyph>
    <TTGlyph name="Atilde" xMin="7" yMin="0" xMax="544" yMax="916">
      <contour>
        <pt x="7" y="6" on="1"/>
        <pt x="222" y="740" on="1"/>
        <pt x="327" y="740" on="1"/>
        <pt x="544" y="6" on="1"/>
        <pt x="544" y="0" on="1"/>
        <pt x="474" y="0" on="1"/>
        <pt x="405" y="227" on="1"/>
        <pt x="145" y="227" on="1"/>
        <pt x="77" y="0" on="1"/>
        <pt x="7" y="0" on="1"/>
      </contour>
      <contour>
        <pt x="389" y="290" on="1"/>
        <pt x="308" y="562" on="1"/>
        <pt x="278" y="672" on="1"/>
        <pt x="271" y="672" on="1"/>
        <pt x="242" y="562" on="1"/>
        <pt x="161" y="290" on="1"/>
      </contour>
      <contour>
        <pt x="122" y="846" on="1"/>
        <pt x="140" y="875" on="0"/>
        <pt x="195" y="916" on="0"/>
        <pt x="222" y="916" on="1"/>
        <pt x="241" y="916" on="0"/>
        <pt x="273" y="903" on="0"/>
        <pt x="303" y="886" on="0"/>
        <pt x="334" y="873" on="0"/>
        <pt x="351" y="873" on="1"/>
        <pt x="367" y="873" on="0"/>
        <pt x="396" y="894" on="0"/>
        <pt x="408" y="913" on="1"/>
        <pt x="435" y="893" on="1"/>
        <pt x="420" y="858" on="0"/>
        <pt x="366" y="820" on="0"/>
        <pt x="338" y="820" on="1"/>
        <pt x="319" y="820" on="0"/>
        <pt x="287" y="833" on="0"/>
        <pt x="257" y="848" on="0"/>
        <pt x="227" y="861" on="0"/>
        <pt x="210" y="861" on="1"/>
        <pt x="193" y="861" on="0"/>
        <pt x="159" y="840" on="0"/>
        <pt x="145" y="823" on="1"/>
      </contour>
    </TTGlyph>
    <TTGlyph name="Atilde.sc" xMin="11" yMin="0" xMax="487" yMax="721">
      <contour>
        <pt x="11" y="5" on="1"/>
        <pt x="199" y="577" on="1"/>
        <pt x="301" y="577" on="1"/>
        <pt x="487" y="5" on="1"/>
        <pt x="487" y="0" on="1"/>
        <pt x="419" y="0" on="1"/>
        <pt x="363" y="168" on="1"/>
        <pt x="136" y="168" on="1"/>
        <pt x="79" y="0" on="1"/>
        <pt x="11" y="0" on="1"/>
      </contour>
      <contour>
        <pt x="348" y="223" on="1"/>
        <pt x="278" y="432" on="1"/>
        <pt x="252" y="517" on="1"/>
        <pt x="246" y="517" on="1"/>
        <pt x="221" y="432" on="1"/>
        <pt x="150" y="223" on="1"/>
      </contour>
      <contour>
        <pt x="113" y="660" on="1"/>
        <pt x="130" y="687" on="0"/>
        <pt x="180" y="721" on="0"/>
        <pt x="204" y="721" on="1"/>
        <pt x="220" y="721" on="0"/>
        <pt x="249" y="711" on="0"/>
        <pt x="276" y="699" on="0"/>
        <pt x="303" y="689" on="0"/>
        <pt x="318" y="689" on="1"/>
        <pt x="347" y="689" on="0"/>
        <pt x="371" y="720" on="1"/>
        <pt x="395" y="703" on="1"/>
        <pt x="380" y="672" on="0"/>
        <pt x="330" y="639" on="0"/>
        <pt x="306" y="639" on="1"/>
        <pt x="289" y="639" on="0"/>
        <pt x="261" y="649" on="0"/>
        <pt x="234" y="662" on="0"/>
        <pt x="207" y="672" on="0"/>
        <pt x="192" y="672" on="1"/>
        <pt x="175" y="672" on="0"/>
        <pt x="146" y="655" on="0"/>
        <pt x="133" y="641" on="1"/>
      </contour>
    </TTGlyph>
    <TTGlyph name="B" xMin="74" yMin="-10" xMax="516" yMax="750">
      <contour>
        <pt x="264" y="-10" on="1"/>
        <pt x="242" y="-10" on="0"/>
        <pt x="189" y="-8" on="0"/>
        <pt x="137" y="-4" on="0"/>
        <pt x="90" y="2" on="0"/>
        <pt x="74" y="5" on="1"/>
        <pt x="74" y="736" on="1"/>
        <pt x="107" y="740" on="0"/>
        <pt x="157" y="745" on="0"/>
        <pt x="198" y="748" on="0"/>
        <pt x="234" y="750" on="0"/>
        <pt x="253" y="750" on="1"/>
        <pt x="377" y="750" on="0"/>
        <pt x="494" y="653" on="0"/>
        <pt x="494" y="550" on="1"/>
        <pt x="494" y="479" on="0"/>
        <pt x="435" y="392" on="0"/>
        <pt x="380" y="381" on="1"/>
        <pt x="380" y="377" on="1"/>
        <pt x="444" y="366" on="0"/>
        <pt x="516" y="271" on="0"/>
        <pt x="516" y="194" on="1"/>
        <pt x="516" y="92" on="0"/>
        <pt x="389" y="-10" on="0"/>
      </contour>
      <contour>
        <pt x="272" y="49" on="1"/>
        <pt x="440" y="50" on="0"/>
        <pt x="440" y="198" on="1"/>
        <pt x="440" y="276" on="0"/>
        <pt x="354" y="344" on="0"/>
        <pt x="253" y="344" on="1"/>
        <pt x="143" y="344" on="1"/>
        <pt x="143" y="58" on="1"/>
        <pt x="150" y="56" on="0"/>
        <pt x="180" y="53" on="0"/>
        <pt x="216" y="51" on="0"/>
        <pt x="255" y="49" on="0"/>
      </contour>
      <contour>
        <pt x="252" y="404" on="1"/>
        <pt x="298" y="404" on="0"/>
        <pt x="361" y="419" on="0"/>
        <pt x="400" y="453" on="0"/>
        <pt x="417" y="508" on="0"/>
        <pt x="417" y="547" on="1"/>
        <pt x="417" y="689" on="0"/>
        <pt x="259" y="689" on="1"/>
        <pt x="229" y="689" on="0"/>
        <pt x="175" y="686" on="0"/>
        <pt x="143" y="681" on="1"/>
        <pt x="143" y="404" on="1"/>
      </contour>
    </TTGlyph>
    <TTGlyph name="B.sc" xMin="69" yMin="-8" xMax="461" yMax="585">
      <contour>
        <pt x="237" y="-8" on="1"/>
        <pt x="217" y="-8" on="0"/>
        <pt x="172" y="-6" on="0"/>
        <pt x="127" y="-3" on="0"/>
        <pt x="85" y="1" on="0"/>
        <pt x="69" y="4" on="1"/>
        <pt x="69" y="574" on="1"/>
        <pt x="97" y="577" on="0"/>
        <pt x="142" y="581" on="0"/>
        <pt x="179" y="584" on="0"/>
        <pt x="212" y="585" on="0"/>
        <pt x="229" y="585" on="1"/>
        <pt x="339" y="585" on="0"/>
        <pt x="441" y="509" on="0"/>
        <pt x="441" y="428" on="1"/>
        <pt x="441" y="374" on="0"/>
        <pt x="390" y="307" on="0"/>
        <pt x="340" y="297" on="1"/>
        <pt x="340" y="294" on="1"/>
        <pt x="397" y="285" on="0"/>
        <pt x="461" y="213" on="0"/>
        <pt x="461" y="153" on="1"/>
        <pt x="461" y="-8" on="0"/>
      </contour>
      <contour>
        <pt x="246" y="48" on="1"/>
        <pt x="390" y="48" on="0"/>
        <pt x="390" y="157" on="1"/>
        <pt x="390" y="214" on="0"/>
        <pt x="317" y="264" on="0"/>
        <pt x="233" y="264" on="1"/>
        <pt x="137" y="264" on="1"/>
        <pt x="137" y="54" on="1"/>
        <pt x="143" y="53" on="0"/>
        <pt x="167" y="51" on="0"/>
        <pt x="198" y="49" on="0"/>
        <pt x="231" y="48" on="0"/>
      </contour>
      <contour>
        <pt x="232" y="318" on="1"/>
        <pt x="270" y="318" on="0"/>
        <pt x="323" y="329" on="0"/>
        <pt x="356" y="354" on="0"/>
        <pt x="370" y="395" on="0"/>
        <pt x="370" y="424" on="1"/>
        <pt x="370" y="478" on="0"/>
        <pt x="305" y="528" on="0"/>
        <pt x="236" y="528" on="1"/>
        <pt x="210" y="528" on="0"/>
        <pt x="163" y="525" on="0"/>
        <pt x="137" y="522" on="1"/>
        <pt x="137" y="318" on="1"/>
      </contour>
    </TTGlyph>
    <TTGlyph name="C" xMin="43" yMin="-10" xMax="457" yMax="748">
      <contour>
        <pt x="348" y="-10" on="1"/>
        <pt x="189" y="-9" on="0"/>
        <pt x="43" y="172" on="0"/>
        <pt x="43" y="369" on="1"/>
        <pt x="43" y="471" on="0"/>
        <pt x="78" y="614" on="0"/>
        <pt x="151" y="706" on="0"/>
        <pt x="266" y="748" on="0"/>
        <pt x="346" y="748" on="1"/>
        <pt x="395" y="748" on="0"/>
        <pt x="457" y="739" on="1"/>
        <pt x="457" y="675" on="1"/>
        <pt x="437" y="679" on="0"/>
        <pt x="383" y="683" on="0"/>
        <pt x="357" y="683" on="1"/>
        <pt x="292" y="683" on="0"/>
        <pt x="202" y="651" on="0"/>
        <pt x="146" y="577" on="0"/>
        <pt x="120" y="457" on="0"/>
        <pt x="120" y="369" on="1"/>
        <pt x="120" y="284" on="0"/>
        <pt x="147" y="165" on="0"/>
        <pt x="203" y="90" on="0"/>
        <pt x="291" y="56" on="0"/>
        <pt x="353" y="56" on="1"/>
        <pt x="370" y="56" on="0"/>
        <pt x="431" y="60" on="0"/>
        <pt x="457" y="64" on="1"/>
        <pt x="457" y="2" on="1"/>
        <pt x="434" y="-4" on="0"/>
        <pt x="383" y="-10" on="0"/>
      </contour>
    </TTGlyph>
    <TTGlyph name="C.sc" xMin="42" yMin="-8" xMax="406" yMax="584">
      <contour>
        <pt x="307" y="-8" on="1"/>
        <pt x="170" y="-7" on="0"/>
        <pt x="42" y="135" on="0"/>
        <pt x="42" y="288" on="1"/>
        <pt x="42" y="366" on="0"/>
        <pt x="73" y="478" on="0"/>
        <pt x="137" y="550" on="0"/>
        <pt x="236" y="584" on="0"/>
        <pt x="305" y="584" on="1"/>
        <pt x="328" y="584" on="0"/>
        <pt x="378" y="579" on="0"/>
        <pt x="406" y="575" on="1"/>
        <pt x="406" y="516" on="1"/>
        <pt x="387" y="519" on="0"/>
        <pt x="338" y="523" on="0"/>
        <pt x="315" y="523" on="1"/>
        <pt x="261" y="523" on="0"/>
        <pt x="185" y="499" on="0"/>
        <pt x="138" y="444" on="0"/>
        <pt x="116" y="354" on="0"/>
        <pt x="116" y="288" on="1"/>
        <pt x="116" y="224" on="0"/>
        <pt x="138" y="135" on="0"/>
        <pt x="186" y="79" on="0"/>
        <pt x="261" y="54" on="0"/>
        <pt x="313" y="54" on="1"/>
        <pt x="330" y="54" on="0"/>
        <pt x="383" y="58" on="0"/>
        <pt x="406" y="62" on="1"/>
        <pt x="406" y="4" on="1"/>
        <pt x="386" y="-1" on="0"/>
        <pt x="338" y="-8" on="0"/>
      </contour>
    </TTGlyph>
    <TTGlyph name="Cacute" xMin="43" yMin="-10" xMax="457" yMax="929">
      <contour>
        <pt x="348" y="-10" on="1"/>
        <pt x="189" y="-9" on="0"/>
        <pt x="43" y="172" on="0"/>
        <pt x="43" y="369" on="1"/>
        <pt x="43" y="471" on="0"/>
        <pt x="78" y="614" on="0"/>
        <pt x="151" y="706" on="0"/>
        <pt x="266" y="748" on="0"/>
        <pt x="346" y="748" on="1"/>
        <pt x="395" y="748" on="0"/>
        <pt x="457" y="739" on="1"/>
        <pt x="457" y="675" on="1"/>
        <pt x="437" y="679" on="0"/>
        <pt x="383" y="683" on="0"/>
        <pt x="357" y="683" on="1"/>
        <pt x="292" y="683" on="0"/>
        <pt x="202" y="651" on="0"/>
        <pt x="146" y="577" on="0"/>
        <pt x="120" y="457" on="0"/>
        <pt x="120" y="369" on="1"/>
        <pt x="120" y="284" on="0"/>
        <pt x="147" y="165" on="0"/>
        <pt x="203" y="90" on="0"/>
        <pt x="291" y="56" on="0"/>
        <pt x="353" y="56" on="1"/>
        <pt x="370" y="56" on="0"/>
        <pt x="431" y="60" on="0"/>
        <pt x="457" y="64" on="1"/>
        <pt x="457" y="2" on="1"/>
        <pt x="434" y="-4" on="0"/>
        <pt x="383" y="-10" on="0"/>
      </contour>
      <contour>
        <pt x="265" y="790" on="1"/>
        <pt x="340" y="929" on="1"/>
        <pt x="417" y="929" on="1"/>
        <pt x="323" y="786" on="1"/>
      </contour>
    </TTGlyph>
    <TTGlyph name="Cacute.sc" xMin="42" yMin="-8" xMax="406" yMax="732">
      <contour>
        <pt x="307" y="-8" on="1"/>
        <pt x="170" y="-7" on="0"/>
        <pt x="42" y="135" on="0"/>
        <pt x="42" y="288" on="1"/>
        <pt x="42" y="366" on="0"/>
        <pt x="73" y="478" on="0"/>
        <pt x="137" y="550" on="0"/>
        <pt x="236" y="584" on="0"/>
        <pt x="305" y="584" on="1"/>
        <pt x="328" y="584" on="0"/>
        <pt x="378" y="579" on="0"/>
        <pt x="406" y="575" on="1"/>
        <pt x="406" y="516" on="1"/>
        <pt x="387" y="519" on="0"/>
        <pt x="338" y="523" on="0"/>
        <pt x="315" y="523" on="1"/>
        <pt x="261" y="523" on="0"/>
        <pt x="185" y="499" on="0"/>
        <pt x="138" y="444" on="0"/>
        <pt x="116" y="354" on="0"/>
        <pt x="116" y="288" on="1"/>
        <pt x="116" y="224" on="0"/>
        <pt x="138" y="135" on="0"/>
        <pt x="186" y="79" on="0"/>
        <pt x="261" y="54" on="0"/>
        <pt x="313" y="54" on="1"/>
        <pt x="330" y="54" on="0"/>
        <pt x="383" y="58" on="0"/>
        <pt x="406" y="62" on="1"/>
        <pt x="406" y="4" on="1"/>
        <pt x="386" y="-1" on="0"/>
        <pt x="338" y="-8" on="0"/>
      </contour>
      <contour>
        <pt x="233" y="618" on="1"/>
        <pt x="297" y="732" on="1"/>
        <pt x="371" y="732" on="1"/>
        <pt x="287" y="615" on="1"/>
      </contour>
    </TTGlyph>
    <TTGlyph name="Ccaron" xMin="43" yMin="-10" xMax="457" yMax="929">
      <contour>
        <pt x="348" y="-10" on="1"/>
        <pt x="189" y="-9" on="0"/>
        <pt x="43" y="172" on="0"/>
        <pt x="43" y="369" on="1"/>
        <pt x="43" y="471" on="0"/>
        <pt x="78" y="614" on="0"/>
        <pt x="151" y="706" on="0"/>
        <pt x="266" y="748" on="0"/>
        <pt x="346" y="748" on="1"/>
        <pt x="395" y="748" on="0"/>
        <pt x="457" y="739" on="1"/>
        <pt x="457" y="675" on="1"/>
        <pt x="437" y="679" on="0"/>
        <pt x="383" y="683" on="0"/>
        <pt x="357" y="683" on="1"/>
        <pt x="292" y="683" on="0"/>
        <pt x="202" y="651" on="0"/>
        <pt x="146" y="577" on="0"/>
        <pt x="120" y="457" on="0"/>
        <pt x="120" y="369" on="1"/>
        <pt x="120" y="284" on="0"/>
        <pt x="147" y="165" on="0"/>
        <pt x="203" y="90" on="0"/>
        <pt x="291" y="56" on="0"/>
        <pt x="353" y="56" on="1"/>
        <pt x="370" y="56" on="0"/>
        <pt x="431" y="60" on="0"/>
        <pt x="457" y="64" on="1"/>
        <pt x="457" y="2" on="1"/>
        <pt x="434" y="-4" on="0"/>
        <pt x="383" y="-10" on="0"/>
      </contour>
      <contour>
        <pt x="170" y="929" on="1"/>
        <pt x="303" y="857" on="1"/>
        <pt x="437" y="929" on="1"/>
        <pt x="437" y="868" on="1"/>
        <pt x="303" y="796" on="1"/>
        <pt x="170" y="868" on="1"/>
      </contour>
    </TTGlyph>
    <TTGlyph name="Ccaron.sc" xMin="42" yMin="-8" xMax="406" yMax="732">
      <contour>
        <pt x="307" y="-8" on="1"/>
        <pt x="170" y="-7" on="0"/>
        <pt x="42" y="135" on="0"/>
        <pt x="42" y="288" on="1"/>
        <pt x="42" y="366" on="0"/>
        <pt x="73" y="478" on="0"/>
        <pt x="137" y="550" on="0"/>
        <pt x="236" y="584" on="0"/>
        <pt x="305" y="584" on="1"/>
        <pt x="328" y="584" on="0"/>
        <pt x="378" y="579" on="0"/>
        <pt x="406" y="575" on="1"/>
        <pt x="406" y="516" on="1"/>
        <pt x="387" y="519" on="0"/>
        <pt x="338" y="523" on="0"/>
        <pt x="315" y="523" on="1"/>
        <pt x="261" y="523" on="0"/>
        <pt x="185" y="499" on="0"/>
        <pt x="138" y="444" on="0"/>
        <pt x="116" y="354" on="0"/>
        <pt x="116" y="288" on="1"/>
        <pt x="116" y="224" on="0"/>
        <pt x="138" y="135" on="0"/>
        <pt x="186" y="79" on="0"/>
        <pt x="261" y="54" on="0"/>
        <pt x="313" y="54" on="1"/>
        <pt x="330" y="54" on="0"/>
        <pt x="383" y="58" on="0"/>
        <pt x="406" y="62" on="1"/>
        <pt x="406" y="4" on="1"/>
        <pt x="386" y="-1" on="0"/>
        <pt x="338" y="-8" on="0"/>
      </contour>
      <contour>
        <pt x="150" y="732" on="1"/>
        <pt x="269" y="676" on="1"/>
        <pt x="388" y="732" on="1"/>
        <pt x="388" y="677" on="1"/>
        <pt x="269" y="620" on="1"/>
        <pt x="150" y="677" on="1"/>
      </contour>
    </TTGlyph>
    <TTGlyph name="Ccedilla" xMin="43" yMin="-220" xMax="457" yMax="748">
      <contour>
        <pt x="258" y="-220" on="1"/>
        <pt x="226" y="-220" on="0"/>
        <pt x="191" y="-209" on="1"/>
        <pt x="191" y="-156" on="1"/>
        <pt x="205" y="-161" on="0"/>
        <pt x="236" y="-166" on="0"/>
        <pt x="249" y="-166" on="1"/>
        <pt x="310" y="-166" on="0"/>
        <pt x="310" y="-105" on="1"/>
        <pt x="310" y="-83" on="0"/>
        <pt x="293" y="-31" on="0"/>
        <pt x="279" y="-5" on="1"/>
        <pt x="157" y="14" on="0"/>
        <pt x="43" y="194" on="0"/>
        <pt x="43" y="369" on="1"/>
        <pt x="43" y="471" on="0"/>
        <pt x="78" y="614" on="0"/>
        <pt x="151" y="706" on="0"/>
        <pt x="266" y="748" on="0"/>
        <pt x="346" y="748" on="1"/>
        <pt x="395" y="748" on="0"/>
        <pt x="457" y="739" on="1"/>
        <pt x="457" y="675" on="1"/>
        <pt x="437" y="679" on="0"/>
        <pt x="383" y="683" on="0"/>
        <pt x="357" y="683" on="1"/>
        <pt x="292" y="683" on="0"/>
        <pt x="202" y="651" on="0"/>
        <pt x="146" y="577" on="0"/>
        <pt x="120" y="457" on="0"/>
        <pt x="120" y="369" on="1"/>
        <pt x="120" y="284" on="0"/>
        <pt x="147" y="165" on="0"/>
        <pt x="203" y="90" on="0"/>
        <pt x="291" y="56" on="0"/>
        <pt x="353" y="56" on="1"/>
        <pt x="370" y="56" on="0"/>
        <pt x="431" y="60" on="0"/>
        <pt x="457" y="64" on="1"/>
        <pt x="457" y="2" on="1"/>
        <pt x="434" y="-4" on="0"/>
        <pt x="383" y="-10" on="0"/>
        <pt x="348" y="-10" on="1"/>
        <pt x="342" y="-10" on="0"/>
        <pt x="338" y="-9" on="1"/>
        <pt x="366" y="-64" on="0"/>
        <pt x="366" y="-113" on="1"/>
        <pt x="366" y="-164" on="0"/>
        <pt x="310" y="-220" on="0"/>
      </contour>
    </TTGlyph>
    <TTGlyph name="Ccedilla.sc" xMin="42" yMin="-172" xMax="406" yMax="584">
      <contour>
        <pt x="236" y="-172" on="1"/>
        <pt x="207" y="-172" on="0"/>
        <pt x="176" y="-163" on="1"/>
        <pt x="176" y="-115" on="1"/>
        <pt x="190" y="-120" on="0"/>
        <pt x="218" y="-123" on="0"/>
        <pt x="228" y="-123" on="1"/>
        <pt x="279" y="-123" on="0"/>
        <pt x="279" y="-78" on="1"/>
        <pt x="279" y="-62" on="0"/>
        <pt x="265" y="-23" on="0"/>
        <pt x="254" y="-3" on="1"/>
        <pt x="144" y="9" on="0"/>
        <pt x="42" y="149" on="0"/>
        <pt x="42" y="288" on="1"/>
        <pt x="42" y="366" on="0"/>
        <pt x="73" y="478" on="0"/>
        <pt x="137" y="550" on="0"/>
        <pt x="236" y="584" on="0"/>
        <pt x="305" y="584" on="1"/>
        <pt x="328" y="584" on="0"/>
        <pt x="378" y="579" on="0"/>
        <pt x="406" y="575" on="1"/>
        <pt x="406" y="516" on="1"/>
        <pt x="387" y="519" on="0"/>
        <pt x="338" y="523" on="0"/>
        <pt x="315" y="523" on="1"/>
        <pt x="261" y="523" on="0"/>
        <pt x="185" y="499" on="0"/>
        <pt x="138" y="444" on="0"/>
        <pt x="116" y="354" on="0"/>
        <pt x="116" y="288" on="1"/>
        <pt x="116" y="224" on="0"/>
        <pt x="138" y="135" on="0"/>
        <pt x="186" y="79" on="0"/>
        <pt x="261" y="54" on="0"/>
        <pt x="313" y="54" on="1"/>
        <pt x="330" y="54" on="0"/>
        <pt x="383" y="58" on="0"/>
        <pt x="406" y="62" on="1"/>
        <pt x="406" y="4" on="1"/>
        <pt x="385" y="-2" on="0"/>
        <pt x="334" y="-8" on="0"/>
        <pt x="308" y="-7" on="1"/>
        <pt x="331" y="-50" on="0"/>
        <pt x="331" y="-87" on="1"/>
        <pt x="331" y="-128" on="0"/>
        <pt x="283" y="-172" on="0"/>
      </contour>
    </TTGlyph>
    <TTGlyph name="Ccircumflex" xMin="43" yMin="-10" xMax="457" yMax="944">
      <contour>
        <pt x="348" y="-10" on="1"/>
        <pt x="189" y="-9" on="0"/>
        <pt x="43" y="172" on="0"/>
        <pt x="43" y="369" on="1"/>
        <pt x="43" y="471" on="0"/>
        <pt x="78" y="614" on="0"/>
        <pt x="151" y="706" on="0"/>
        <pt x="266" y="748" on="0"/>
        <pt x="346" y="748" on="1"/>
        <pt x="395" y="748" on="0"/>
        <pt x="457" y="739" on="1"/>
        <pt x="457" y="675" on="1"/>
        <pt x="437" y="679" on="0"/>
        <pt x="383" y="683" on="0"/>
        <pt x="357" y="683" on="1"/>
        <pt x="292" y="683" on="0"/>
        <pt x="202" y="651" on="0"/>
        <pt x="146" y="577" on="0"/>
        <pt x="120" y="457" on="0"/>
        <pt x="120" y="369" on="1"/>
        <pt x="120" y="284" on="0"/>
        <pt x="147" y="165" on="0"/>
        <pt x="203" y="90" on="0"/>
        <pt x="291" y="56" on="0"/>
        <pt x="353" y="56" on="1"/>
        <pt x="370" y="56" on="0"/>
        <pt x="431" y="60" on="0"/>
        <pt x="457" y="64" on="1"/>
        <pt x="457" y="2" on="1"/>
        <pt x="434" y="-4" on="0"/>
        <pt x="383" y="-10" on="0"/>
      </contour>
      <contour>
        <pt x="165" y="872" on="1"/>
        <pt x="298" y="944" on="1"/>
        <pt x="432" y="872" on="1"/>
        <pt x="432" y="811" on="1"/>
        <pt x="298" y="883" on="1"/>
        <pt x="165" y="811" on="1"/>
      </contour>
    </TTGlyph>
    <TTGlyph name="Ccircumflex.sc" xMin="42" yMin="-8" xMax="406" yMax="741">
      <contour>
        <pt x="307" y="-8" on="1"/>
        <pt x="170" y="-7" on="0"/>
        <pt x="42" y="135" on="0"/>
        <pt x="42" y="288" on="1"/>
        <pt x="42" y="366" on="0"/>
        <pt x="73" y="478" on="0"/>
        <pt x="137" y="550" on="0"/>
        <pt x="236" y="584" on="0"/>
        <pt x="305" y="584" on="1"/>
        <pt x="328" y="584" on="0"/>
        <pt x="378" y="579" on="0"/>
        <pt x="406" y="575" on="1"/>
        <pt x="406" y="516" on="1"/>
        <pt x="387" y="519" on="0"/>
        <pt x="338" y="523" on="0"/>
        <pt x="315" y="523" on="1"/>
        <pt x="261" y="523" on="0"/>
        <pt x="185" y="499" on="0"/>
        <pt x="138" y="444" on="0"/>
        <pt x="116" y="354" on="0"/>
        <pt x="116" y="288" on="1"/>
        <pt x="116" y="224" on="0"/>
        <pt x="138" y="135" on="0"/>
        <pt x="186" y="79" on="0"/>
        <pt x="261" y="54" on="0"/>
        <pt x="313" y="54" on="1"/>
        <pt x="330" y="54" on="0"/>
        <pt x="383" y="58" on="0"/>
        <pt x="406" y="62" on="1"/>
        <pt x="406" y="4" on="1"/>
        <pt x="386" y="-1" on="0"/>
        <pt x="338" y="-8" on="0"/>
      </contour>
      <contour>
        <pt x="145" y="685" on="1"/>
        <pt x="264" y="741" on="1"/>
        <pt x="383" y="685" on="1"/>
        <pt x="383" y="630" on="1"/>
        <pt x="264" y="686" on="1"/>
        <pt x="145" y="630" on="1"/>
      </contour>
    </TTGlyph>
    <TTGlyph name="Cdotaccent" xMin="43" yMin="-10" xMax="457" yMax="893">
      <contour>
        <pt x="297" y="799" on="1"/>
        <pt x="250" y="799" on="0"/>
        <pt x="250" y="845" on="1"/>
        <pt x="250" y="871" on="0"/>
        <pt x="274" y="893" on="0"/>
        <pt x="297" y="893" on="1"/>
        <pt x="346" y="893" on="0"/>
        <pt x="346" y="845" on="1"/>
        <pt x="346" y="799" on="0"/>
      </contour>
      <contour>
        <pt x="348" y="-10" on="1"/>
        <pt x="189" y="-9" on="0"/>
        <pt x="43" y="172" on="0"/>
        <pt x="43" y="369" on="1"/>
        <pt x="43" y="471" on="0"/>
        <pt x="78" y="614" on="0"/>
        <pt x="151" y="706" on="0"/>
        <pt x="266" y="748" on="0"/>
        <pt x="346" y="748" on="1"/>
        <pt x="395" y="748" on="0"/>
        <pt x="457" y="739" on="1"/>
        <pt x="457" y="675" on="1"/>
        <pt x="437" y="679" on="0"/>
        <pt x="383" y="683" on="0"/>
        <pt x="357" y="683" on="1"/>
        <pt x="292" y="683" on="0"/>
        <pt x="202" y="651" on="0"/>
        <pt x="146" y="577" on="0"/>
        <pt x="120" y="457" on="0"/>
        <pt x="120" y="369" on="1"/>
        <pt x="120" y="284" on="0"/>
        <pt x="147" y="165" on="0"/>
        <pt x="203" y="90" on="0"/>
        <pt x="291" y="56" on="0"/>
        <pt x="353" y="56" on="1"/>
        <pt x="370" y="56" on="0"/>
        <pt x="431" y="60" on="0"/>
        <pt x="457" y="64" on="1"/>
        <pt x="457" y="2" on="1"/>
        <pt x="434" y="-4" on="0"/>
        <pt x="383" y="-10" on="0"/>
      </contour>
    </TTGlyph>
    <TTGlyph name="Cdotaccent.sc" xMin="42" yMin="-8" xMax="406" yMax="709">
      <contour>
        <pt x="307" y="-8" on="1"/>
        <pt x="170" y="-7" on="0"/>
        <pt x="42" y="135" on="0"/>
        <pt x="42" y="288" on="1"/>
        <pt x="42" y="366" on="0"/>
        <pt x="73" y="478" on="0"/>
        <pt x="137" y="550" on="0"/>
        <pt x="236" y="584" on="0"/>
        <pt x="305" y="584" on="1"/>
        <pt x="328" y="584" on="0"/>
        <pt x="378" y="579" on="0"/>
        <pt x="406" y="575" on="1"/>
        <pt x="406" y="516" on="1"/>
        <pt x="387" y="519" on="0"/>
        <pt x="338" y="523" on="0"/>
        <pt x="315" y="523" on="1"/>
        <pt x="261" y="523" on="0"/>
        <pt x="185" y="499" on="0"/>
        <pt x="138" y="444" on="0"/>
        <pt x="116" y="354" on="0"/>
        <pt x="116" y="288" on="1"/>
        <pt x="116" y="224" on="0"/>
        <pt x="138" y="135" on="0"/>
        <pt x="186" y="79" on="0"/>
        <pt x="261" y="54" on="0"/>
        <pt x="313" y="54" on="1"/>
        <pt x="330" y="54" on="0"/>
        <pt x="383" y="58" on="0"/>
        <pt x="406" y="62" on="1"/>
        <pt x="406" y="4" on="1"/>
        <pt x="386" y="-1" on="0"/>
        <pt x="338" y="-8" on="0"/>
      </contour>
      <contour>
        <pt x="264" y="623" on="1"/>
        <pt x="221" y="623" on="0"/>
        <pt x="221" y="667" on="1"/>
        <pt x="221" y="709" on="0"/>
        <pt x="264" y="709" on="1"/>
        <pt x="285" y="709" on="0"/>
        <pt x="310" y="689" on="0"/>
        <pt x="310" y="667" on="1"/>
        <pt x="310" y="644" on="0"/>
        <pt x="285" y="623" on="0"/>
      </contour>
    </TTGlyph>
    <TTGlyph name="D" xMin="74" yMin="-16" xMax="542" yMax="750">
      <contour>
        <pt x="198" y="-16" on="1"/>
        <pt x="169" y="-16" on="0"/>
        <pt x="109" y="-13" on="0"/>
        <pt x="74" y="-9" on="1"/>
        <pt x="74" y="734" on="1"/>
        <pt x="124" y="742" on="0"/>
        <pt x="198" y="750" on="0"/>
        <pt x="231" y="750" on="1"/>
        <pt x="393" y="750" on="0"/>
        <pt x="542" y="566" on="0"/>
        <pt x="542" y="369" on="1"/>
        <pt x="542" y="268" on="0"/>
        <pt x="502" y="123" on="0"/>
        <pt x="418" y="29" on="0"/>
        <pt x="288" y="-16" on="0"/>
      </contour>
      <contour>
        <pt x="217" y="49" on="1"/>
        <pt x="344" y="49" on="0"/>
        <pt x="465" y="202" on="0"/>
        <pt x="465" y="369" on="1"/>
        <pt x="465" y="453" on="0"/>
        <pt x="439" y="574" on="0"/>
        <pt x="384" y="650" on="0"/>
        <pt x="297" y="686" on="0"/>
        <pt x="237" y="686" on="1"/>
        <pt x="213" y="686" on="0"/>
        <pt x="169" y="682" on="0"/>
        <pt x="147" y="678" on="1"/>
        <pt x="147" y="54" on="1"/>
        <pt x="169" y="52" on="0"/>
        <pt x="202" y="49" on="0"/>
      </contour>
    </TTGlyph>
    <TTGlyph name="D.sc" xMin="69" yMin="-12" xMax="486" yMax="585">
      <contour>
        <pt x="184" y="-12" on="1"/>
        <pt x="158" y="-12" on="0"/>
        <pt x="101" y="-9" on="0"/>
        <pt x="69" y="-5" on="1"/>
        <pt x="69" y="574" on="1"/>
        <pt x="114" y="579" on="0"/>
        <pt x="181" y="585" on="0"/>
        <pt x="209" y="585" on="1"/>
        <pt x="354" y="585" on="0"/>
        <pt x="486" y="442" on="0"/>
        <pt x="486" y="288" on="1"/>
        <pt x="486" y="209" on="0"/>
        <pt x="451" y="95" on="0"/>
        <pt x="378" y="22" on="0"/>
        <pt x="263" y="-12" on="0"/>
      </contour>
      <contour>
        <pt x="204" y="49" on="1"/>
        <pt x="312" y="49" on="0"/>
        <pt x="412" y="162" on="0"/>
        <pt x="412" y="288" on="1"/>
        <pt x="412" y="352" on="0"/>
        <pt x="390" y="442" on="0"/>
        <pt x="343" y="499" on="0"/>
        <pt x="268" y="525" on="0"/>
        <pt x="216" y="525" on="1"/>
        <pt x="196" y="525" on="0"/>
        <pt x="158" y="522" on="0"/>
        <pt x="139" y="518" on="1"/>
        <pt x="139" y="53" on="1"/>
        <pt x="160" y="51" on="0"/>
        <pt x="190" y="49" on="0"/>
      </contour>
    </TTGlyph>
    <TTGlyph name="Dcaron" xMin="74" yMin="-16" xMax="542" yMax="929">
      <contour>
        <pt x="136" y="929" on="1"/>
        <pt x="269" y="857" on="1"/>
        <pt x="403" y="929" on="1"/>
        <pt x="403" y="868" on="1"/>
        <pt x="269" y="796" on="1"/>
        <pt x="136" y="868" on="1"/>
      </contour>
      <contour>
        <pt x="198" y="-16" on="1"/>
        <pt x="169" y="-16" on="0"/>
        <pt x="109" y="-13" on="0"/>
        <pt x="74" y="-9" on="1"/>
        <pt x="74" y="734" on="1"/>
        <pt x="124" y="742" on="0"/>
        <pt x="198" y="750" on="0"/>
        <pt x="231" y="750" on="1"/>
        <pt x="393" y="750" on="0"/>
        <pt x="542" y="566" on="0"/>
        <pt x="542" y="369" on="1"/>
        <pt x="542" y="268" on="0"/>
        <pt x="502" y="123" on="0"/>
        <pt x="418" y="29" on="0"/>
        <pt x="288" y="-16" on="0"/>
      </contour>
      <contour>
        <pt x="217" y="49" on="1"/>
        <pt x="344" y="49" on="0"/>
        <pt x="465" y="202" on="0"/>
        <pt x="465" y="369" on="1"/>
        <pt x="465" y="453" on="0"/>
        <pt x="439" y="574" on="0"/>
        <pt x="384" y="650" on="0"/>
        <pt x="297" y="686" on="0"/>
        <pt x="237" y="686" on="1"/>
        <pt x="213" y="686" on="0"/>
        <pt x="169" y="682" on="0"/>
        <pt x="147" y="678" on="1"/>
        <pt x="147" y="54" on="1"/>
        <pt x="169" y="52" on="0"/>
        <pt x="202" y="49" on="0"/>
      </contour>
    </TTGlyph>
    <TTGlyph name="Dcaron.sc" xMin="69" yMin="-12" xMax="486" yMax="732">
      <contour>
        <pt x="184" y="-12" on="1"/>
        <pt x="158" y="-12" on="0"/>
        <pt x="101" y="-9" on="0"/>
        <pt x="69" y="-5" on="1"/>
        <pt x="69" y="574" on="1"/>
        <pt x="114" y="579" on="0"/>
        <pt x="181" y="585" on="0"/>
        <pt x="209" y="585" on="1"/>
        <pt x="354" y="585" on="0"/>
        <pt x="486" y="442" on="0"/>
        <pt x="486" y="288" on="1"/>
        <pt x="486" y="209" on="0"/>
        <pt x="451" y="95" on="0"/>
        <pt x="378" y="22" on="0"/>
        <pt x="263" y="-12" on="0"/>
      </contour>
      <contour>
        <pt x="204" y="49" on="1"/>
        <pt x="312" y="49" on="0"/>
        <pt x="412" y="162" on="0"/>
        <pt x="412" y="288" on="1"/>
        <pt x="412" y="352" on="0"/>
        <pt x="390" y="442" on="0"/>
        <pt x="343" y="499" on="0"/>
        <pt x="268" y="525" on="0"/>
        <pt x="216" y="525" on="1"/>
        <pt x="196" y="525" on="0"/>
        <pt x="158" y="522" on="0"/>
        <pt x="139" y="518" on="1"/>
        <pt x="139" y="53" on="1"/>
        <pt x="160" y="51" on="0"/>
        <pt x="190" y="49" on="0"/>
      </contour>
      <contour>
        <pt x="126" y="677" on="1"/>
        <pt x="126" y="732" on="1"/>
        <pt x="246" y="676" on="1"/>
        <pt x="365" y="732" on="1"/>
        <pt x="365" y="677" on="1"/>
        <pt x="246" y="620" on="1"/>
      </contour>
    </TTGlyph>
    <TTGlyph name="Dcroat" xMin="-1" yMin="-16" xMax="555" yMax="750">
      <contour>
        <pt x="-1" y="400" on="1"/>
        <pt x="87" y="400" on="1"/>
        <pt x="87" y="734" on="1"/>
        <pt x="137" y="742" on="0"/>
        <pt x="211" y="750" on="0"/>
        <pt x="244" y="750" on="1"/>
        <pt x="406" y="750" on="0"/>
        <pt x="555" y="566" on="0"/>
        <pt x="555" y="369" on="1"/>
        <pt x="555" y="268" on="0"/>
        <pt x="515" y="123" on="0"/>
        <pt x="431" y="29" on="0"/>
        <pt x="301" y="-16" on="0"/>
        <pt x="211" y="-16" on="1"/>
        <pt x="182" y="-16" on="0"/>
        <pt x="122" y="-13" on="0"/>
        <pt x="87" y="-9" on="1"/>
        <pt x="87" y="339" on="1"/>
        <pt x="-1" y="339" on="1"/>
      </contour>
      <contour>
        <pt x="230" y="49" on="1"/>
        <pt x="357" y="49" on="0"/>
        <pt x="478" y="202" on="0"/>
        <pt x="478" y="369" on="1"/>
        <pt x="478" y="453" on="0"/>
        <pt x="452" y="574" on="0"/>
        <pt x="397" y="650" on="0"/>
        <pt x="310" y="686" on="0"/>
        <pt x="250" y="686" on="1"/>
        <pt x="226" y="686" on="0"/>
        <pt x="182" y="682" on="0"/>
        <pt x="160" y="678" on="1"/>
        <pt x="160" y="400" on="1"/>
        <pt x="300" y="400" on="1"/>
        <pt x="300" y="339" on="1"/>
        <pt x="160" y="339" on="1"/>
        <pt x="160" y="54" on="1"/>
        <pt x="182" y="52" on="0"/>
        <pt x="215" y="49" on="0"/>
      </contour>
    </TTGlyph>
    <TTGlyph name="Dcroat.sc" xMin="5" yMin="-12" xMax="497" yMax="585">
      <contour>
        <pt x="5" y="317" on="1"/>
        <pt x="81" y="317" on="1"/>
        <pt x="81" y="574" on="1"/>
        <pt x="125" y="579" on="0"/>
        <pt x="192" y="585" on="0"/>
        <pt x="221" y="585" on="1"/>
        <pt x="366" y="585" on="0"/>
        <pt x="497" y="442" on="0"/>
        <pt x="497" y="288" on="1"/>
        <pt x="497" y="209" on="0"/>
        <pt x="463" y="95" on="0"/>
        <pt x="389" y="22" on="0"/>
        <pt x="275" y="-12" on="0"/>
        <pt x="195" y="-12" on="1"/>
        <pt x="169" y="-12" on="0"/>
        <pt x="113" y="-9" on="0"/>
        <pt x="81" y="-5" on="1"/>
        <pt x="81" y="259" on="1"/>
        <pt x="5" y="259" on="1"/>
      </contour>
      <contour>
        <pt x="215" y="49" on="1"/>
        <pt x="322" y="49" on="0"/>
        <pt x="424" y="162" on="0"/>
        <pt x="424" y="288" on="1"/>
        <pt x="424" y="416" on="0"/>
        <pt x="332" y="525" on="0"/>
        <pt x="228" y="525" on="1"/>
        <pt x="186" y="525" on="0"/>
        <pt x="151" y="518" on="1"/>
        <pt x="151" y="317" on="1"/>
        <pt x="270" y="317" on="1"/>
        <pt x="270" y="259" on="1"/>
        <pt x="151" y="259" on="1"/>
        <pt x="151" y="53" on="1"/>
        <pt x="171" y="51" on="0"/>
        <pt x="201" y="49" on="0"/>
      </contour>
    </TTGlyph>
    <TTGlyph name="Ddotbelow" xMin="74" yMin="-175" xMax="542" yMax="750">
      <contour>
        <pt x="270" y="-175" on="1"/>
        <pt x="247" y="-175" on="0"/>
        <pt x="224" y="-154" on="0"/>
        <pt x="224" y="-129" on="1"/>
        <pt x="224" y="-105" on="0"/>
        <pt x="247" y="-84" on="0"/>
        <pt x="270" y="-84" on="1"/>
        <pt x="292" y="-84" on="0"/>
        <pt x="316" y="-105" on="0"/>
        <pt x="316" y="-129" on="1"/>
        <pt x="316" y="-154" on="0"/>
        <pt x="292" y="-175" on="0"/>
      </contour>
      <contour>
        <pt x="198" y="-16" on="1"/>
        <pt x="169" y="-16" on="0"/>
        <pt x="109" y="-13" on="0"/>
        <pt x="74" y="-9" on="1"/>
        <pt x="74" y="734" on="1"/>
        <pt x="124" y="742" on="0"/>
        <pt x="198" y="750" on="0"/>
        <pt x="231" y="750" on="1"/>
        <pt x="393" y="750" on="0"/>
        <pt x="542" y="566" on="0"/>
        <pt x="542" y="369" on="1"/>
        <pt x="542" y="268" on="0"/>
        <pt x="502" y="123" on="0"/>
        <pt x="418" y="29" on="0"/>
        <pt x="288" y="-16" on="0"/>
      </contour>
      <contour>
        <pt x="217" y="49" on="1"/>
        <pt x="344" y="49" on="0"/>
        <pt x="465" y="202" on="0"/>
        <pt x="465" y="369" on="1"/>
        <pt x="465" y="453" on="0"/>
        <pt x="439" y="574" on="0"/>
        <pt x="384" y="650" on="0"/>
        <pt x="297" y="686" on="0"/>
        <pt x="237" y="686" on="1"/>
        <pt x="213" y="686" on="0"/>
        <pt x="169" y="682" on="0"/>
        <pt x="147" y="678" on="1"/>
        <pt x="147" y="54" on="1"/>
        <pt x="169" y="52" on="0"/>
        <pt x="202" y="49" on="0"/>
      </contour>
    </TTGlyph>
    <TTGlyph name="Ddotbelow.sc" xMin="69" yMin="-141" xMax="486" yMax="585">
      <contour>
        <pt x="184" y="-12" on="1"/>
        <pt x="158" y="-12" on="0"/>
        <pt x="101" y="-9" on="0"/>
        <pt x="69" y="-5" on="1"/>
        <pt x="69" y="574" on="1"/>
        <pt x="114" y="579" on="0"/>
        <pt x="181" y="585" on="0"/>
        <pt x="209" y="585" on="1"/>
        <pt x="354" y="585" on="0"/>
        <pt x="486" y="442" on="0"/>
        <pt x="486" y="288" on="1"/>
        <pt x="486" y="209" on="0"/>
        <pt x="451" y="95" on="0"/>
        <pt x="378" y="22" on="0"/>
        <pt x="263" y="-12" on="0"/>
      </contour>
      <contour>
        <pt x="204" y="49" on="1"/>
        <pt x="312" y="49" on="0"/>
        <pt x="412" y="162" on="0"/>
        <pt x="412" y="288" on="1"/>
        <pt x="412" y="352" on="0"/>
        <pt x="390" y="442" on="0"/>
        <pt x="343" y="499" on="0"/>
        <pt x="268" y="525" on="0"/>
        <pt x="216" y="525" on="1"/>
        <pt x="196" y="525" on="0"/>
        <pt x="158" y="522" on="0"/>
        <pt x="139" y="518" on="1"/>
        <pt x="139" y="53" on="1"/>
        <pt x="160" y="51" on="0"/>
        <pt x="190" y="49" on="0"/>
      </contour>
      <contour>
        <pt x="246" y="-141" on="1"/>
        <pt x="226" y="-141" on="0"/>
        <pt x="205" y="-124" on="0"/>
        <pt x="205" y="-103" on="1"/>
        <pt x="205" y="-63" on="0"/>
        <pt x="246" y="-63" on="1"/>
        <pt x="288" y="-63" on="0"/>
        <pt x="288" y="-103" on="1"/>
        <pt x="288" y="-124" on="0"/>
        <pt x="266" y="-141" on="0"/>
      </contour>
    </TTGlyph>
    <TTGlyph name="Delta" xMin="20" yMin="0" xMax="574" yMax="740">
      <contour>
        <pt x="249" y="740" on="1"/>
        <pt x="345" y="740" on="1"/>
        <pt x="574" y="0" on="1"/>
        <pt x="20" y="0" on="1"/>
      </contour>
      <contour>
        <pt x="483" y="66" on="1"/>
        <pt x="296" y="667" on="1"/>
        <pt x="110" y="66" on="1"/>
      </contour>
    </TTGlyph>
    <TTGlyph name="E" xMin="74" yMin="0" xMax="469" yMax="740">
      <contour>
        <pt x="74" y="740" on="1"/>
        <pt x="460" y="740" on="1"/>
        <pt x="460" y="674" on="1"/>
        <pt x="147" y="674" on="1"/>
        <pt x="147" y="407" on="1"/>
        <pt x="427" y="407" on="1"/>
        <pt x="427" y="342" on="1"/>
        <pt x="147" y="342" on="1"/>
        <pt x="147" y="66" on="1"/>
        <pt x="469" y="66" on="1"/>
        <pt x="469" y="0" on="1"/>
        <pt x="74" y="0" on="1"/>
      </contour>
    </TTGlyph>
    <TTGlyph name="E.sc" xMin="70" yMin="0" xMax="420" yMax="577">
      <contour>
        <pt x="70" y="577" on="1"/>
        <pt x="413" y="577" on="1"/>
        <pt x="413" y="517" on="1"/>
        <pt x="141" y="517" on="1"/>
        <pt x="141" y="321" on="1"/>
        <pt x="385" y="321" on="1"/>
        <pt x="385" y="262" on="1"/>
        <pt x="141" y="262" on="1"/>
        <pt x="141" y="61" on="1"/>
        <pt x="420" y="61" on="1"/>
        <pt x="420" y="0" on="1"/>
        <pt x="70" y="0" on="1"/>
      </contour>
    </TTGlyph>
    <TTGlyph name="Eacute" xMin="74" yMin="0" xMax="469" yMax="929">
      <contour>
        <pt x="233" y="790" on="1"/>
        <pt x="308" y="929" on="1"/>
        <pt x="385" y="929" on="1"/>
        <pt x="291" y="786" on="1"/>
      </contour>
      <contour>
        <pt x="74" y="740" on="1"/>
        <pt x="460" y="740" on="1"/>
        <pt x="460" y="674" on="1"/>
        <pt x="147" y="674" on="1"/>
        <pt x="147" y="407" on="1"/>
        <pt x="427" y="407" on="1"/>
        <pt x="427" y="342" on="1"/>
        <pt x="147" y="342" on="1"/>
        <pt x="147" y="66" on="1"/>
        <pt x="469" y="66" on="1"/>
        <pt x="469" y="0" on="1"/>
        <pt x="74" y="0" on="1"/>
      </contour>
    </TTGlyph>
    <TTGlyph name="Eacute.sc" xMin="70" yMin="0" xMax="420" yMax="732">
      <contour>
        <pt x="70" y="577" on="1"/>
        <pt x="413" y="577" on="1"/>
        <pt x="413" y="517" on="1"/>
        <pt x="141" y="517" on="1"/>
        <pt x="141" y="321" on="1"/>
        <pt x="385" y="321" on="1"/>
        <pt x="385" y="262" on="1"/>
        <pt x="141" y="262" on="1"/>
        <pt x="141" y="61" on="1"/>
        <pt x="420" y="61" on="1"/>
        <pt x="420" y="0" on="1"/>
        <pt x="70" y="0" on="1"/>
      </contour>
      <contour>
        <pt x="210" y="618" on="1"/>
        <pt x="274" y="732" on="1"/>
        <pt x="348" y="732" on="1"/>
        <pt x="265" y="615" on="1"/>
      </contour>
    </TTGlyph>
    <TTGlyph name="Ebreve" xMin="74" yMin="0" xMax="469" yMax="955">
      <contour>
        <pt x="268" y="809" on="1"/>
        <pt x="197" y="809" on="0"/>
        <pt x="119" y="886" on="0"/>
        <pt x="119" y="955" on="1"/>
        <pt x="176" y="955" on="1"/>
        <pt x="176" y="857" on="0"/>
        <pt x="268" y="857" on="1"/>
        <pt x="312" y="857" on="0"/>
        <pt x="359" y="906" on="0"/>
        <pt x="359" y="955" on="1"/>
        <pt x="416" y="955" on="1"/>
        <pt x="416" y="887" on="0"/>
        <pt x="338" y="809" on="0"/>
      </contour>
      <contour>
        <pt x="74" y="740" on="1"/>
        <pt x="460" y="740" on="1"/>
        <pt x="460" y="674" on="1"/>
        <pt x="147" y="674" on="1"/>
        <pt x="147" y="407" on="1"/>
        <pt x="427" y="407" on="1"/>
        <pt x="427" y="342" on="1"/>
        <pt x="147" y="342" on="1"/>
        <pt x="147" y="66" on="1"/>
        <pt x="469" y="66" on="1"/>
        <pt x="469" y="0" on="1"/>
        <pt x="74" y="0" on="1"/>
      </contour>
    </TTGlyph>
    <TTGlyph name="Ebreve.sc" xMin="70" yMin="0" xMax="420" yMax="748">
      <contour>
        <pt x="242" y="629" on="1"/>
        <pt x="179" y="629" on="0"/>
        <pt x="110" y="692" on="0"/>
        <pt x="110" y="748" on="1"/>
        <pt x="164" y="748" on="1"/>
        <pt x="164" y="671" on="0"/>
        <pt x="242" y="671" on="1"/>
        <pt x="320" y="671" on="0"/>
        <pt x="320" y="748" on="1"/>
        <pt x="374" y="748" on="1"/>
        <pt x="374" y="692" on="0"/>
        <pt x="305" y="629" on="0"/>
      </contour>
      <contour>
        <pt x="70" y="577" on="1"/>
        <pt x="413" y="577" on="1"/>
        <pt x="413" y="517" on="1"/>
        <pt x="141" y="517" on="1"/>
        <pt x="141" y="321" on="1"/>
        <pt x="385" y="321" on="1"/>
        <pt x="385" y="262" on="1"/>
        <pt x="141" y="262" on="1"/>
        <pt x="141" y="61" on="1"/>
        <pt x="420" y="61" on="1"/>
        <pt x="420" y="0" on="1"/>
        <pt x="70" y="0" on="1"/>
      </contour>
    </TTGlyph>
    <TTGlyph name="Ecaron" xMin="74" yMin="0" xMax="469" yMax="929">
      <contour>
        <pt x="138" y="929" on="1"/>
        <pt x="271" y="857" on="1"/>
        <pt x="405" y="929" on="1"/>
        <pt x="405" y="868" on="1"/>
        <pt x="271" y="796" on="1"/>
        <pt x="138" y="868" on="1"/>
      </contour>
      <contour>
        <pt x="74" y="740" on="1"/>
        <pt x="460" y="740" on="1"/>
        <pt x="460" y="674" on="1"/>
        <pt x="147" y="674" on="1"/>
        <pt x="147" y="407" on="1"/>
        <pt x="427" y="407" on="1"/>
        <pt x="427" y="342" on="1"/>
        <pt x="147" y="342" on="1"/>
        <pt x="147" y="66" on="1"/>
        <pt x="469" y="66" on="1"/>
        <pt x="469" y="0" on="1"/>
        <pt x="74" y="0" on="1"/>
      </contour>
    </TTGlyph>
    <TTGlyph name="Ecaron.sc" xMin="70" yMin="0" xMax="420" yMax="732">
      <contour>
        <pt x="70" y="577" on="1"/>
        <pt x="413" y="577" on="1"/>
        <pt x="413" y="517" on="1"/>
        <pt x="141" y="517" on="1"/>
        <pt x="141" y="321" on="1"/>
        <pt x="385" y="321" on="1"/>
        <pt x="385" y="262" on="1"/>
        <pt x="141" y="262" on="1"/>
        <pt x="141" y="61" on="1"/>
        <pt x="420" y="61" on="1"/>
        <pt x="420" y="0" on="1"/>
        <pt x="70" y="0" on="1"/>
      </contour>
      <contour>
        <pt x="127" y="677" on="1"/>
        <pt x="127" y="732" on="1"/>
        <pt x="246" y="676" on="1"/>
        <pt x="365" y="732" on="1"/>
        <pt x="365" y="677" on="1"/>
        <pt x="246" y="620" on="1"/>
      </contour>
    </TTGlyph>
    <TTGlyph name="Ecircumflex" xMin="74" yMin="0" xMax="469" yMax="944">
      <contour>
        <pt x="74" y="740" on="1"/>
        <pt x="460" y="740" on="1"/>
        <pt x="460" y="674" on="1"/>
        <pt x="147" y="674" on="1"/>
        <pt x="147" y="407" on="1"/>
        <pt x="427" y="407" on="1"/>
        <pt x="427" y="342" on="1"/>
        <pt x="147" y="342" on="1"/>
        <pt x="147" y="66" on="1"/>
        <pt x="469" y="66" on="1"/>
        <pt x="469" y="0" on="1"/>
        <pt x="74" y="0" on="1"/>
      </contour>
      <contour>
        <pt x="133" y="872" on="1"/>
        <pt x="266" y="944" on="1"/>
        <pt x="400" y="872" on="1"/>
        <pt x="400" y="811" on="1"/>
        <pt x="266" y="883" on="1"/>
        <pt x="133" y="811" on="1"/>
      </contour>
    </TTGlyph>
    <TTGlyph name="Ecircumflex.sc" xMin="70" yMin="0" xMax="420" yMax="741">
      <contour>
        <pt x="70" y="577" on="1"/>
        <pt x="413" y="577" on="1"/>
        <pt x="413" y="517" on="1"/>
        <pt x="141" y="517" on="1"/>
        <pt x="141" y="321" on="1"/>
        <pt x="385" y="321" on="1"/>
        <pt x="385" y="262" on="1"/>
        <pt x="141" y="262" on="1"/>
        <pt x="141" y="61" on="1"/>
        <pt x="420" y="61" on="1"/>
        <pt x="420" y="0" on="1"/>
        <pt x="70" y="0" on="1"/>
      </contour>
      <contour>
        <pt x="123" y="685" on="1"/>
        <pt x="242" y="741" on="1"/>
        <pt x="361" y="685" on="1"/>
        <pt x="361" y="630" on="1"/>
        <pt x="242" y="686" on="1"/>
        <pt x="123" y="630" on="1"/>
      </contour>
    </TTGlyph>
    <TTGlyph name="Edblgrave" xMin="74" yMin="0" xMax="469" yMax="929">
      <contour>
        <pt x="74" y="740" on="1"/>
        <pt x="460" y="740" on="1"/>
        <pt x="460" y="674" on="1"/>
        <pt x="147" y="674" on="1"/>
        <pt x="147" y="407" on="1"/>
        <pt x="427" y="407" on="1"/>
        <pt x="427" y="342" on="1"/>
        <pt x="147" y="342" on="1"/>
        <pt x="147" y="66" on="1"/>
        <pt x="469" y="66" on="1"/>
        <pt x="469" y="0" on="1"/>
        <pt x="74" y="0" on="1"/>
      </contour>
      <contour>
        <pt x="174" y="786" on="1"/>
        <pt x="80" y="929" on="1"/>
        <pt x="147" y="929" on="1"/>
        <pt x="222" y="799" on="1"/>
      </contour>
      <contour>
        <pt x="319" y="786" on="1"/>
        <pt x="224" y="929" on="1"/>
        <pt x="292" y="929" on="1"/>
        <pt x="367" y="799" on="1"/>
      </contour>
    </TTGlyph>
    <TTGlyph name="Edblgrave.sc" xMin="70" yMin="0" xMax="420" yMax="732">
      <contour>
        <pt x="70" y="577" on="1"/>
        <pt x="413" y="577" on="1"/>
        <pt x="413" y="517" on="1"/>
        <pt x="141" y="517" on="1"/>
        <pt x="141" y="321" on="1"/>
        <pt x="385" y="321" on="1"/>
        <pt x="385" y="262" on="1"/>
        <pt x="141" y="262" on="1"/>
        <pt x="141" y="61" on="1"/>
        <pt x="420" y="61" on="1"/>
        <pt x="420" y="0" on="1"/>
        <pt x="70" y="0" on="1"/>
      </contour>
      <contour>
        <pt x="74" y="732" on="1"/>
        <pt x="139" y="732" on="1"/>
        <pt x="203" y="624" on="1"/>
        <pt x="158" y="614" on="1"/>
      </contour>
      <contour>
        <pt x="203" y="732" on="1"/>
        <pt x="268" y="732" on="1"/>
        <pt x="331" y="624" on="1"/>
        <pt x="286" y="614" on="1"/>
      </contour>
    </TTGlyph>
    <TTGlyph name="Edieresis" xMin="74" yMin="0" xMax="469" yMax="904">
      <contour>
        <pt x="169" y="810" on="1"/>
        <pt x="122" y="810" on="0"/>
        <pt x="122" y="857" on="1"/>
        <pt x="122" y="904" on="0"/>
        <pt x="169" y="904" on="1"/>
        <pt x="218" y="904" on="0"/>
        <pt x="218" y="857" on="1"/>
        <pt x="218" y="810" on="0"/>
      </contour>
      <contour>
        <pt x="361" y="810" on="1"/>
        <pt x="313" y="810" on="0"/>
        <pt x="313" y="857" on="1"/>
        <pt x="313" y="904" on="0"/>
        <pt x="361" y="904" on="1"/>
        <pt x="383" y="904" on="0"/>
        <pt x="409" y="882" on="0"/>
        <pt x="409" y="857" on="1"/>
        <pt x="409" y="832" on="0"/>
        <pt x="383" y="810" on="0"/>
      </contour>
      <contour>
        <pt x="74" y="740" on="1"/>
        <pt x="460" y="740" on="1"/>
        <pt x="460" y="674" on="1"/>
        <pt x="147" y="674" on="1"/>
        <pt x="147" y="407" on="1"/>
        <pt x="427" y="407" on="1"/>
        <pt x="427" y="342" on="1"/>
        <pt x="147" y="342" on="1"/>
        <pt x="147" y="66" on="1"/>
        <pt x="469" y="66" on="1"/>
        <pt x="469" y="0" on="1"/>
        <pt x="74" y="0" on="1"/>
      </contour>
    </TTGlyph>
    <TTGlyph name="Edieresis.sc" xMin="70" yMin="0" xMax="420" yMax="716">
      <contour>
        <pt x="155" y="631" on="1"/>
        <pt x="111" y="631" on="0"/>
        <pt x="111" y="673" on="1"/>
        <pt x="111" y="696" on="0"/>
        <pt x="133" y="716" on="0"/>
        <pt x="155" y="716" on="1"/>
        <pt x="176" y="716" on="0"/>
        <pt x="200" y="696" on="0"/>
        <pt x="200" y="673" on="1"/>
        <pt x="200" y="651" on="0"/>
        <pt x="176" y="631" on="0"/>
      </contour>
      <contour>
        <pt x="328" y="631" on="1"/>
        <pt x="283" y="631" on="0"/>
        <pt x="283" y="673" on="1"/>
        <pt x="283" y="696" on="0"/>
        <pt x="306" y="716" on="0"/>
        <pt x="328" y="716" on="1"/>
        <pt x="348" y="716" on="0"/>
        <pt x="373" y="696" on="0"/>
        <pt x="373" y="673" on="1"/>
        <pt x="373" y="651" on="0"/>
        <pt x="348" y="631" on="0"/>
      </contour>
      <contour>
        <pt x="70" y="577" on="1"/>
        <pt x="413" y="577" on="1"/>
        <pt x="413" y="517" on="1"/>
        <pt x="141" y="517" on="1"/>
        <pt x="141" y="321" on="1"/>
        <pt x="385" y="321" on="1"/>
        <pt x="385" y="262" on="1"/>
        <pt x="141" y="262" on="1"/>
        <pt x="141" y="61" on="1"/>
        <pt x="420" y="61" on="1"/>
        <pt x="420" y="0" on="1"/>
        <pt x="70" y="0" on="1"/>
      </contour>
    </TTGlyph>
    <TTGlyph name="Edotaccent" xMin="74" yMin="0" xMax="469" yMax="893">
      <contour>
        <pt x="265" y="799" on="1"/>
        <pt x="218" y="799" on="0"/>
        <pt x="218" y="845" on="1"/>
        <pt x="218" y="871" on="0"/>
        <pt x="242" y="893" on="0"/>
        <pt x="265" y="893" on="1"/>
        <pt x="314" y="893" on="0"/>
        <pt x="314" y="845" on="1"/>
        <pt x="314" y="799" on="0"/>
      </contour>
      <contour>
        <pt x="74" y="740" on="1"/>
        <pt x="460" y="740" on="1"/>
        <pt x="460" y="674" on="1"/>
        <pt x="147" y="674" on="1"/>
        <pt x="147" y="407" on="1"/>
        <pt x="427" y="407" on="1"/>
        <pt x="427" y="342" on="1"/>
        <pt x="147" y="342" on="1"/>
        <pt x="147" y="66" on="1"/>
        <pt x="469" y="66" on="1"/>
        <pt x="469" y="0" on="1"/>
        <pt x="74" y="0" on="1"/>
      </contour>
    </TTGlyph>
    <TTGlyph name="Edotaccent.sc" xMin="70" yMin="0" xMax="420" yMax="709">
      <contour>
        <pt x="241" y="623" on="1"/>
        <pt x="197" y="623" on="0"/>
        <pt x="197" y="667" on="1"/>
        <pt x="197" y="709" on="0"/>
        <pt x="241" y="709" on="1"/>
        <pt x="262" y="709" on="0"/>
        <pt x="286" y="689" on="0"/>
        <pt x="286" y="667" on="1"/>
        <pt x="286" y="644" on="0"/>
        <pt x="262" y="623" on="0"/>
      </contour>
      <contour>
        <pt x="70" y="577" on="1"/>
        <pt x="413" y="577" on="1"/>
        <pt x="413" y="517" on="1"/>
        <pt x="141" y="517" on="1"/>
        <pt x="141" y="321" on="1"/>
        <pt x="385" y="321" on="1"/>
        <pt x="385" y="262" on="1"/>
        <pt x="141" y="262" on="1"/>
        <pt x="141" y="61" on="1"/>
        <pt x="420" y="61" on="1"/>
        <pt x="420" y="0" on="1"/>
        <pt x="70" y="0" on="1"/>
      </contour>
    </TTGlyph>
    <TTGlyph name="Edotbelow" xMin="74" yMin="-175" xMax="469" yMax="740">
      <contour>
        <pt x="74" y="740" on="1"/>
        <pt x="460" y="740" on="1"/>
        <pt x="460" y="674" on="1"/>
        <pt x="147" y="674" on="1"/>
        <pt x="147" y="407" on="1"/>
        <pt x="427" y="407" on="1"/>
        <pt x="427" y="342" on="1"/>
        <pt x="147" y="342" on="1"/>
        <pt x="147" y="66" on="1"/>
        <pt x="469" y="66" on="1"/>
        <pt x="469" y="0" on="1"/>
        <pt x="74" y="0" on="1"/>
      </contour>
      <contour>
        <pt x="281" y="-175" on="1"/>
        <pt x="258" y="-175" on="0"/>
        <pt x="235" y="-154" on="0"/>
        <pt x="235" y="-129" on="1"/>
        <pt x="235" y="-105" on="0"/>
        <pt x="258" y="-84" on="0"/>
        <pt x="281" y="-84" on="1"/>
        <pt x="303" y="-84" on="0"/>
        <pt x="327" y="-105" on="0"/>
        <pt x="327" y="-129" on="1"/>
        <pt x="327" y="-154" on="0"/>
        <pt x="303" y="-175" on="0"/>
      </contour>
    </TTGlyph>
    <TTGlyph name="Edotbelow.sc" xMin="70" yMin="-141" xMax="420" yMax="577">
      <contour>
        <pt x="254" y="-141" on="1"/>
        <pt x="233" y="-141" on="0"/>
        <pt x="213" y="-124" on="0"/>
        <pt x="213" y="-103" on="1"/>
        <pt x="213" y="-63" on="0"/>
        <pt x="254" y="-63" on="1"/>
        <pt x="296" y="-63" on="0"/>
        <pt x="296" y="-103" on="1"/>
        <pt x="296" y="-124" on="0"/>
        <pt x="274" y="-141" on="0"/>
      </contour>
      <contour>
        <pt x="70" y="577" on="1"/>
        <pt x="413" y="577" on="1"/>
        <pt x="413" y="517" on="1"/>
        <pt x="141" y="517" on="1"/>
        <pt x="141" y="321" on="1"/>
        <pt x="385" y="321" on="1"/>
        <pt x="385" y="262" on="1"/>
        <pt x="141" y="262" on="1"/>
        <pt x="141" y="61" on="1"/>
        <pt x="420" y="61" on="1"/>
        <pt x="420" y="0" on="1"/>
        <pt x="70" y="0" on="1"/>
      </contour>
    </TTGlyph>
    <TTGlyph name="Egrave" xMin="74" yMin="0" xMax="469" yMax="929">
      <contour>
        <pt x="233" y="786" on="1"/>
        <pt x="139" y="929" on="1"/>
        <pt x="216" y="929" on="1"/>
        <pt x="291" y="799" on="1"/>
      </contour>
      <contour>
        <pt x="74" y="740" on="1"/>
        <pt x="460" y="740" on="1"/>
        <pt x="460" y="674" on="1"/>
        <pt x="147" y="674" on="1"/>
        <pt x="147" y="407" on="1"/>
        <pt x="427" y="407" on="1"/>
        <pt x="427" y="342" on="1"/>
        <pt x="147" y="342" on="1"/>
        <pt x="147" y="66" on="1"/>
        <pt x="469" y="66" on="1"/>
        <pt x="469" y="0" on="1"/>
        <pt x="74" y="0" on="1"/>
      </contour>
    </TTGlyph>
    <TTGlyph name="Egrave.sc" xMin="70" yMin="0" xMax="420" yMax="732">
      <contour>
        <pt x="70" y="577" on="1"/>
        <pt x="413" y="577" on="1"/>
        <pt x="413" y="517" on="1"/>
        <pt x="141" y="517" on="1"/>
        <pt x="141" y="321" on="1"/>
        <pt x="385" y="321" on="1"/>
        <pt x="385" y="262" on="1"/>
        <pt x="141" y="262" on="1"/>
        <pt x="141" y="61" on="1"/>
        <pt x="420" y="61" on="1"/>
        <pt x="420" y="0" on="1"/>
        <pt x="70" y="0" on="1"/>
      </contour>
      <contour>
        <pt x="128" y="732" on="1"/>
        <pt x="201" y="732" on="1"/>
        <pt x="265" y="624" on="1"/>
        <pt x="211" y="615" on="1"/>
      </contour>
    </TTGlyph>
    <TTGlyph name="Einvertedbreve" xMin="74" yMin="0" xMax="469" yMax="965">
      <contour>
        <pt x="74" y="740" on="1"/>
        <pt x="460" y="740" on="1"/>
        <pt x="460" y="674" on="1"/>
        <pt x="147" y="674" on="1"/>
        <pt x="147" y="407" on="1"/>
        <pt x="427" y="407" on="1"/>
        <pt x="427" y="342" on="1"/>
        <pt x="147" y="342" on="1"/>
        <pt x="147" y="66" on="1"/>
        <pt x="469" y="66" on="1"/>
        <pt x="469" y="0" on="1"/>
        <pt x="74" y="0" on="1"/>
      </contour>
      <contour>
        <pt x="357" y="819" on="1"/>
        <pt x="357" y="869" on="0"/>
        <pt x="310" y="918" on="0"/>
        <pt x="266" y="918" on="1"/>
        <pt x="174" y="918" on="0"/>
        <pt x="174" y="819" on="1"/>
        <pt x="117" y="819" on="1"/>
        <pt x="117" y="888" on="0"/>
        <pt x="195" y="965" on="0"/>
        <pt x="266" y="965" on="1"/>
        <pt x="336" y="965" on="0"/>
        <pt x="414" y="888" on="0"/>
        <pt x="414" y="819" on="1"/>
      </contour>
    </TTGlyph>
    <TTGlyph name="Einvertedbreve.sc" xMin="70" yMin="0" xMax="420" yMax="755">
      <contour>
        <pt x="109" y="637" on="1"/>
        <pt x="109" y="692" on="0"/>
        <pt x="177" y="755" on="0"/>
        <pt x="242" y="755" on="1"/>
        <pt x="305" y="755" on="0"/>
        <pt x="374" y="692" on="0"/>
        <pt x="374" y="637" on="1"/>
        <pt x="320" y="637" on="1"/>
        <pt x="320" y="714" on="0"/>
        <pt x="242" y="714" on="1"/>
        <pt x="162" y="714" on="0"/>
        <pt x="162" y="637" on="1"/>
      </contour>
      <contour>
        <pt x="70" y="577" on="1"/>
        <pt x="413" y="577" on="1"/>
        <pt x="413" y="517" on="1"/>
        <pt x="141" y="517" on="1"/>
        <pt x="141" y="321" on="1"/>
        <pt x="385" y="321" on="1"/>
        <pt x="385" y="262" on="1"/>
        <pt x="141" y="262" on="1"/>
        <pt x="141" y="61" on="1"/>
        <pt x="420" y="61" on="1"/>
        <pt x="420" y="0" on="1"/>
        <pt x="70" y="0" on="1"/>
      </contour>
    </TTGlyph>
    <TTGlyph name="Emacron" xMin="74" yMin="0" xMax="469" yMax="897">
      <contour>
        <pt x="137" y="897" on="1"/>
        <pt x="379" y="897" on="1"/>
        <pt x="379" y="840" on="1"/>
        <pt x="137" y="840" on="1"/>
      </contour>
      <contour>
        <pt x="74" y="740" on="1"/>
        <pt x="460" y="740" on="1"/>
        <pt x="460" y="674" on="1"/>
        <pt x="147" y="674" on="1"/>
        <pt x="147" y="407" on="1"/>
        <pt x="427" y="407" on="1"/>
        <pt x="427" y="342" on="1"/>
        <pt x="147" y="342" on="1"/>
        <pt x="147" y="66" on="1"/>
        <pt x="469" y="66" on="1"/>
        <pt x="469" y="0" on="1"/>
        <pt x="74" y="0" on="1"/>
      </contour>
    </TTGlyph>
    <TTGlyph name="Emacron.sc" xMin="70" yMin="0" xMax="420" yMax="707">
      <contour>
        <pt x="70" y="577" on="1"/>
        <pt x="413" y="577" on="1"/>
        <pt x="413" y="517" on="1"/>
        <pt x="141" y="517" on="1"/>
        <pt x="141" y="321" on="1"/>
        <pt x="385" y="321" on="1"/>
        <pt x="385" y="262" on="1"/>
        <pt x="141" y="262" on="1"/>
        <pt x="141" y="61" on="1"/>
        <pt x="420" y="61" on="1"/>
        <pt x="420" y="0" on="1"/>
        <pt x="70" y="0" on="1"/>
      </contour>
      <contour>
        <pt x="126" y="707" on="1"/>
        <pt x="345" y="707" on="1"/>
        <pt x="345" y="655" on="1"/>
        <pt x="126" y="655" on="1"/>
      </contour>
    </TTGlyph>
    <TTGlyph name="Eng" xMin="74" yMin="-185" xMax="579" yMax="740">
      <contour>
        <pt x="431" y="-169" on="1"/>
        <pt x="454" y="-120" on="0"/>
        <pt x="488" y="-24" on="0"/>
        <pt x="497" y="18" on="1"/>
        <pt x="193" y="524" on="1"/>
        <pt x="148" y="612" on="1"/>
        <pt x="142" y="611" on="1"/>
        <pt x="142" y="0" on="1"/>
        <pt x="74" y="0" on="1"/>
        <pt x="74" y="740" on="1"/>
        <pt x="143" y="740" on="1"/>
        <pt x="461" y="212" on="1"/>
        <pt x="504" y="129" on="1"/>
        <pt x="510" y="129" on="1"/>
        <pt x="510" y="740" on="1"/>
        <pt x="579" y="740" on="1"/>
        <pt x="579" y="68" on="1"/>
        <pt x="579" y="46" on="0"/>
        <pt x="564" y="-16" on="0"/>
        <pt x="539" y="-85" on="0"/>
        <pt x="504" y="-155" on="0"/>
        <pt x="484" y="-185" on="1"/>
      </contour>
    </TTGlyph>
    <TTGlyph name="Eng.sc" xMin="70" yMin="-147" xMax="516" yMax="577">
      <contour>
        <pt x="383" y="-132" on="1"/>
        <pt x="403" y="-93" on="0"/>
        <pt x="431" y="-15" on="0"/>
        <pt x="439" y="20" on="1"/>
        <pt x="180" y="388" on="1"/>
        <pt x="141" y="455" on="1"/>
        <pt x="135" y="455" on="1"/>
        <pt x="135" y="0" on="1"/>
        <pt x="70" y="0" on="1"/>
        <pt x="70" y="577" on="1"/>
        <pt x="135" y="577" on="1"/>
        <pt x="407" y="188" on="1"/>
        <pt x="446" y="122" on="1"/>
        <pt x="451" y="123" on="1"/>
        <pt x="451" y="577" on="1"/>
        <pt x="516" y="577" on="1"/>
        <pt x="516" y="60" on="1"/>
        <pt x="516" y="42" on="0"/>
        <pt x="503" y="-9" on="0"/>
        <pt x="480" y="-65" on="0"/>
        <pt x="450" y="-122" on="0"/>
        <pt x="432" y="-147" on="1"/>
      </contour>
    </TTGlyph>
    <TTGlyph name="Eogonek" xMin="74" yMin="-220" xMax="469" yMax="740">
      <contour>
        <pt x="74" y="740" on="1"/>
        <pt x="460" y="740" on="1"/>
        <pt x="460" y="674" on="1"/>
        <pt x="147" y="674" on="1"/>
        <pt x="147" y="407" on="1"/>
        <pt x="427" y="407" on="1"/>
        <pt x="427" y="342" on="1"/>
        <pt x="147" y="342" on="1"/>
        <pt x="147" y="66" on="1"/>
        <pt x="469" y="66" on="1"/>
        <pt x="469" y="-16" on="1"/>
        <pt x="421" y="-36" on="0"/>
        <pt x="375" y="-95" on="0"/>
        <pt x="375" y="-127" on="1"/>
        <pt x="375" y="-168" on="0"/>
        <pt x="420" y="-168" on="1"/>
        <pt x="445" y="-168" on="0"/>
        <pt x="469" y="-157" on="1"/>
        <pt x="469" y="-208" on="1"/>
        <pt x="440" y="-220" on="0"/>
        <pt x="412" y="-220" on="1"/>
        <pt x="367" y="-220" on="0"/>
        <pt x="319" y="-175" on="0"/>
        <pt x="319" y="-132" on="1"/>
        <pt x="319" y="-57" on="0"/>
        <pt x="408" y="0" on="1"/>
        <pt x="74" y="0" on="1"/>
      </contour>
    </TTGlyph>
    <TTGlyph name="Eogonek.sc" xMin="70" yMin="-172" xMax="420" yMax="577">
      <contour>
        <pt x="369" y="-172" on="1"/>
        <pt x="328" y="-172" on="0"/>
        <pt x="285" y="-136" on="0"/>
        <pt x="285" y="-102" on="1"/>
        <pt x="285" y="-46" on="0"/>
        <pt x="361" y="0" on="1"/>
        <pt x="70" y="0" on="1"/>
        <pt x="70" y="577" on="1"/>
        <pt x="413" y="577" on="1"/>
        <pt x="413" y="517" on="1"/>
        <pt x="141" y="517" on="1"/>
        <pt x="141" y="321" on="1"/>
        <pt x="385" y="321" on="1"/>
        <pt x="385" y="262" on="1"/>
        <pt x="141" y="262" on="1"/>
        <pt x="141" y="61" on="1"/>
        <pt x="420" y="61" on="1"/>
        <pt x="420" y="-11" on="1"/>
        <pt x="379" y="-26" on="0"/>
        <pt x="338" y="-73" on="0"/>
        <pt x="338" y="-96" on="1"/>
        <pt x="338" y="-125" on="0"/>
        <pt x="376" y="-125" on="1"/>
        <pt x="399" y="-125" on="0"/>
        <pt x="420" y="-117" on="1"/>
        <pt x="420" y="-162" on="1"/>
        <pt x="407" y="-167" on="0"/>
        <pt x="383" y="-172" on="0"/>
      </contour>
    </TTGlyph>
    <TTGlyph name="Eth" xMin="-1" yMin="-16" xMax="555" yMax="750">
      <contour>
        <pt x="-1" y="400" on="1"/>
        <pt x="87" y="400" on="1"/>
        <pt x="87" y="734" on="1"/>
        <pt x="137" y="742" on="0"/>
        <pt x="211" y="750" on="0"/>
        <pt x="244" y="750" on="1"/>
        <pt x="406" y="750" on="0"/>
        <pt x="555" y="566" on="0"/>
        <pt x="555" y="369" on="1"/>
        <pt x="555" y="268" on="0"/>
        <pt x="515" y="123" on="0"/>
        <pt x="431" y="29" on="0"/>
        <pt x="301" y="-16" on="0"/>
        <pt x="211" y="-16" on="1"/>
        <pt x="182" y="-16" on="0"/>
        <pt x="122" y="-13" on="0"/>
        <pt x="87" y="-9" on="1"/>
        <pt x="87" y="339" on="1"/>
        <pt x="-1" y="339" on="1"/>
      </contour>
      <contour>
        <pt x="230" y="49" on="1"/>
        <pt x="357" y="49" on="0"/>
        <pt x="478" y="202" on="0"/>
        <pt x="478" y="369" on="1"/>
        <pt x="478" y="453" on="0"/>
        <pt x="452" y="574" on="0"/>
        <pt x="397" y="650" on="0"/>
        <pt x="310" y="686" on="0"/>
        <pt x="250" y="686" on="1"/>
        <pt x="226" y="686" on="0"/>
        <pt x="182" y="682" on="0"/>
        <pt x="160" y="678" on="1"/>
        <pt x="160" y="400" on="1"/>
        <pt x="300" y="400" on="1"/>
        <pt x="300" y="339" on="1"/>
        <pt x="160" y="339" on="1"/>
        <pt x="160" y="54" on="1"/>
        <pt x="182" y="52" on="0"/>
        <pt x="215" y="49" on="0"/>
      </contour>
    </TTGlyph>
    <TTGlyph name="Eth.sc" xMin="5" yMin="-12" xMax="497" yMax="585">
      <contour>
        <pt x="5" y="317" on="1"/>
        <pt x="81" y="317" on="1"/>
        <pt x="81" y="574" on="1"/>
        <pt x="125" y="579" on="0"/>
        <pt x="192" y="585" on="0"/>
        <pt x="221" y="585" on="1"/>
        <pt x="366" y="585" on="0"/>
        <pt x="497" y="442" on="0"/>
        <pt x="497" y="288" on="1"/>
        <pt x="497" y="209" on="0"/>
        <pt x="463" y="95" on="0"/>
        <pt x="389" y="22" on="0"/>
        <pt x="275" y="-12" on="0"/>
        <pt x="195" y="-12" on="1"/>
        <pt x="169" y="-12" on="0"/>
        <pt x="113" y="-9" on="0"/>
        <pt x="81" y="-5" on="1"/>
        <pt x="81" y="259" on="1"/>
        <pt x="5" y="259" on="1"/>
      </contour>
      <contour>
        <pt x="215" y="49" on="1"/>
        <pt x="322" y="49" on="0"/>
        <pt x="424" y="162" on="0"/>
        <pt x="424" y="288" on="1"/>
        <pt x="424" y="416" on="0"/>
        <pt x="332" y="525" on="0"/>
        <pt x="228" y="525" on="1"/>
        <pt x="186" y="525" on="0"/>
        <pt x="151" y="518" on="1"/>
        <pt x="151" y="317" on="1"/>
        <pt x="270" y="317" on="1"/>
        <pt x="270" y="259" on="1"/>
        <pt x="151" y="259" on="1"/>
        <pt x="151" y="53" on="1"/>
        <pt x="171" y="51" on="0"/>
        <pt x="201" y="49" on="0"/>
      </contour>
    </TTGlyph>
    <TTGlyph name="Etilde" xMin="74" yMin="0" xMax="469" yMax="916">
      <contour>
        <pt x="113" y="846" on="1"/>
        <pt x="131" y="875" on="0"/>
        <pt x="186" y="916" on="0"/>
        <pt x="213" y="916" on="1"/>
        <pt x="232" y="916" on="0"/>
        <pt x="264" y="903" on="0"/>
        <pt x="294" y="886" on="0"/>
        <pt x="325" y="873" on="0"/>
        <pt x="342" y="873" on="1"/>
        <pt x="358" y="873" on="0"/>
        <pt x="387" y="894" on="0"/>
        <pt x="399" y="913" on="1"/>
        <pt x="426" y="893" on="1"/>
        <pt x="411" y="858" on="0"/>
        <pt x="357" y="820" on="0"/>
        <pt x="329" y="820" on="1"/>
        <pt x="310" y="820" on="0"/>
        <pt x="278" y="833" on="0"/>
        <pt x="248" y="848" on="0"/>
        <pt x="218" y="861" on="0"/>
        <pt x="201" y="861" on="1"/>
        <pt x="184" y="861" on="0"/>
        <pt x="150" y="840" on="0"/>
        <pt x="136" y="823" on="1"/>
      </contour>
      <contour>
        <pt x="74" y="740" on="1"/>
        <pt x="460" y="740" on="1"/>
        <pt x="460" y="674" on="1"/>
        <pt x="147" y="674" on="1"/>
        <pt x="147" y="407" on="1"/>
        <pt x="427" y="407" on="1"/>
        <pt x="427" y="342" on="1"/>
        <pt x="147" y="342" on="1"/>
        <pt x="147" y="66" on="1"/>
        <pt x="469" y="66" on="1"/>
        <pt x="469" y="0" on="1"/>
        <pt x="74" y="0" on="1"/>
      </contour>
    </TTGlyph>
    <TTGlyph name="Etilde.sc" xMin="70" yMin="0" xMax="420" yMax="721">
      <contour>
        <pt x="105" y="660" on="1"/>
        <pt x="122" y="687" on="0"/>
        <pt x="171" y="721" on="0"/>
        <pt x="195" y="721" on="1"/>
        <pt x="212" y="721" on="0"/>
        <pt x="240" y="711" on="0"/>
        <pt x="267" y="699" on="0"/>
        <pt x="294" y="689" on="0"/>
        <pt x="309" y="689" on="1"/>
        <pt x="341" y="689" on="0"/>
        <pt x="363" y="720" on="1"/>
        <pt x="385" y="703" on="1"/>
        <pt x="371" y="672" on="0"/>
        <pt x="321" y="639" on="0"/>
        <pt x="297" y="639" on="1"/>
        <pt x="281" y="639" on="0"/>
        <pt x="252" y="649" on="0"/>
        <pt x="225" y="662" on="0"/>
        <pt x="198" y="672" on="0"/>
        <pt x="183" y="672" on="1"/>
        <pt x="168" y="672" on="0"/>
        <pt x="138" y="655" on="0"/>
        <pt x="125" y="641" on="1"/>
      </contour>
      <contour>
        <pt x="70" y="577" on="1"/>
        <pt x="413" y="577" on="1"/>
        <pt x="413" y="517" on="1"/>
        <pt x="141" y="517" on="1"/>
        <pt x="141" y="321" on="1"/>
        <pt x="385" y="321" on="1"/>
        <pt x="385" y="262" on="1"/>
        <pt x="141" y="262" on="1"/>
        <pt x="141" y="61" on="1"/>
        <pt x="420" y="61" on="1"/>
        <pt x="420" y="0" on="1"/>
        <pt x="70" y="0" on="1"/>
      </contour>
    </TTGlyph>
    <TTGlyph name="Euro" xMin="37" yMin="-10" xMax="476" yMax="749">
      <contour>
        <pt x="37" y="479" on="1"/>
        <pt x="114" y="479" on="1"/>
        <pt x="131" y="620" on="0"/>
        <pt x="272" y="749" on="0"/>
        <pt x="403" y="749" on="1"/>
        <pt x="426" y="749" on="0"/>
        <pt x="459" y="745" on="0"/>
        <pt x="476" y="742" on="1"/>
        <pt x="457" y="680" on="1"/>
        <pt x="446" y="681" on="0"/>
        <pt x="425" y="682" on="0"/>
        <pt x="411" y="682" on="1"/>
        <pt x="360" y="682" on="0"/>
        <pt x="283" y="660" on="0"/>
        <pt x="229" y="612" on="0"/>
        <pt x="197" y="534" on="0"/>
        <pt x="190" y="479" on="1"/>
        <pt x="406" y="479" on="1"/>
        <pt x="386" y="428" on="1"/>
        <pt x="185" y="428" on="1"/>
        <pt x="184" y="414" on="0"/>
        <pt x="184" y="385" on="0"/>
        <pt x="184" y="369" on="1"/>
        <pt x="184" y="353" on="0"/>
        <pt x="184" y="325" on="0"/>
        <pt x="185" y="311" on="1"/>
        <pt x="374" y="311" on="1"/>
        <pt x="354" y="260" on="1"/>
        <pt x="190" y="260" on="1"/>
        <pt x="205" y="152" on="0"/>
        <pt x="309" y="56" on="0"/>
        <pt x="408" y="56" on="1"/>
        <pt x="419" y="56" on="0"/>
        <pt x="450" y="59" on="0"/>
        <pt x="465" y="62" on="1"/>
        <pt x="465" y="-4" on="1"/>
        <pt x="453" y="-7" on="0"/>
        <pt x="424" y="-10" on="0"/>
        <pt x="404" y="-10" on="1"/>
        <pt x="274" y="-8" on="0"/>
        <pt x="133" y="121" on="0"/>
        <pt x="114" y="260" on="1"/>
        <pt x="37" y="260" on="1"/>
        <pt x="37" y="311" on="1"/>
        <pt x="109" y="311" on="1"/>
        <pt x="108" y="325" on="0"/>
        <pt x="108" y="354" on="0"/>
        <pt x="108" y="369" on="1"/>
        <pt x="108" y="384" on="0"/>
        <pt x="108" y="414" on="0"/>
        <pt x="109" y="428" on="1"/>
        <pt x="37" y="428" on="1"/>
      </contour>
    </TTGlyph>
    <TTGlyph name="Euro.tab" xMin="34" yMin="-10" xMax="478" yMax="749">
      <contour>
        <pt x="34" y="479" on="1"/>
        <pt x="112" y="479" on="1"/>
        <pt x="130" y="621" on="0"/>
        <pt x="272" y="749" on="0"/>
        <pt x="404" y="749" on="1"/>
        <pt x="428" y="749" on="0"/>
        <pt x="461" y="745" on="0"/>
        <pt x="478" y="742" on="1"/>
        <pt x="459" y="680" on="1"/>
        <pt x="448" y="681" on="0"/>
        <pt x="427" y="682" on="0"/>
        <pt x="413" y="682" on="1"/>
        <pt x="361" y="682" on="0"/>
        <pt x="284" y="660" on="0"/>
        <pt x="229" y="611" on="0"/>
        <pt x="196" y="534" on="0"/>
        <pt x="189" y="479" on="1"/>
        <pt x="407" y="479" on="1"/>
        <pt x="387" y="428" on="1"/>
        <pt x="183" y="428" on="1"/>
        <pt x="181" y="416" on="0"/>
        <pt x="181" y="383" on="0"/>
        <pt x="181" y="369" on="1"/>
        <pt x="181" y="355" on="0"/>
        <pt x="181" y="323" on="0"/>
        <pt x="183" y="311" on="1"/>
        <pt x="374" y="311" on="1"/>
        <pt x="354" y="260" on="1"/>
        <pt x="189" y="260" on="1"/>
        <pt x="204" y="152" on="0"/>
        <pt x="310" y="56" on="0"/>
        <pt x="409" y="56" on="1"/>
        <pt x="435" y="56" on="0"/>
        <pt x="467" y="62" on="1"/>
        <pt x="467" y="-4" on="1"/>
        <pt x="443" y="-10" on="0"/>
        <pt x="405" y="-10" on="1"/>
        <pt x="274" y="-9" on="0"/>
        <pt x="131" y="121" on="0"/>
        <pt x="113" y="260" on="1"/>
        <pt x="34" y="260" on="1"/>
        <pt x="34" y="311" on="1"/>
        <pt x="107" y="311" on="1"/>
        <pt x="105" y="325" on="0"/>
        <pt x="105" y="354" on="0"/>
        <pt x="105" y="369" on="1"/>
        <pt x="105" y="385" on="0"/>
        <pt x="106" y="414" on="0"/>
        <pt x="107" y="428" on="1"/>
        <pt x="34" y="428" on="1"/>
      </contour>
    </TTGlyph>
    <TTGlyph name="F" xMin="74" yMin="0" xMax="442" yMax="740">
      <contour>
        <pt x="74" y="740" on="1"/>
        <pt x="442" y="740" on="1"/>
        <pt x="442" y="674" on="1"/>
        <pt x="147" y="674" on="1"/>
        <pt x="147" y="402" on="1"/>
        <pt x="422" y="402" on="1"/>
        <pt x="422" y="337" on="1"/>
        <pt x="147" y="337" on="1"/>
        <pt x="147" y="0" on="1"/>
        <pt x="74" y="0" on="1"/>
      </contour>
    </TTGlyph>
    <TTGlyph name="F.sc" xMin="70" yMin="0" xMax="399" yMax="577">
      <contour>
        <pt x="70" y="577" on="1"/>
        <pt x="399" y="577" on="1"/>
        <pt x="399" y="516" on="1"/>
        <pt x="141" y="516" on="1"/>
        <pt x="141" y="317" on="1"/>
        <pt x="380" y="317" on="1"/>
        <pt x="380" y="255" on="1"/>
        <pt x="141" y="255" on="1"/>
        <pt x="141" y="0" on="1"/>
        <pt x="70" y="0" on="1"/>
      </contour>
    </TTGlyph>
    <TTGlyph name="F_B.sc" xMin="70" yMin="-8" xMax="880" yMax="585">
      <contour>
        <pt x="70" y="577" on="1"/>
        <pt x="399" y="577" on="1"/>
        <pt x="399" y="516" on="1"/>
        <pt x="141" y="516" on="1"/>
        <pt x="141" y="317" on="1"/>
        <pt x="380" y="317" on="1"/>
        <pt x="380" y="255" on="1"/>
        <pt x="141" y="255" on="1"/>
        <pt x="141" y="0" on="1"/>
        <pt x="70" y="0" on="1"/>
      </contour>
      <contour>
        <pt x="656" y="-8" on="1"/>
        <pt x="636" y="-8" on="0"/>
        <pt x="591" y="-6" on="0"/>
        <pt x="546" y="-3" on="0"/>
        <pt x="504" y="1" on="0"/>
        <pt x="488" y="4" on="1"/>
        <pt x="488" y="574" on="1"/>
        <pt x="516" y="577" on="0"/>
        <pt x="561" y="581" on="0"/>
        <pt x="598" y="584" on="0"/>
        <pt x="631" y="585" on="0"/>
        <pt x="648" y="585" on="1"/>
        <pt x="758" y="585" on="0"/>
        <pt x="860" y="509" on="0"/>
        <pt x="860" y="428" on="1"/>
        <pt x="860" y="374" on="0"/>
        <pt x="809" y="307" on="0"/>
        <pt x="759" y="297" on="1"/>
        <pt x="759" y="294" on="1"/>
        <pt x="816" y="285" on="0"/>
        <pt x="880" y="213" on="0"/>
        <pt x="880" y="153" on="1"/>
        <pt x="880" y="-8" on="0"/>
      </contour>
      <contour>
        <pt x="665" y="48" on="1"/>
        <pt x="809" y="48" on="0"/>
        <pt x="809" y="157" on="1"/>
        <pt x="809" y="214" on="0"/>
        <pt x="736" y="264" on="0"/>
        <pt x="652" y="264" on="1"/>
        <pt x="556" y="264" on="1"/>
        <pt x="556" y="54" on="1"/>
        <pt x="562" y="53" on="0"/>
        <pt x="586" y="51" on="0"/>
        <pt x="617" y="49" on="0"/>
        <pt x="650" y="48" on="0"/>
      </contour>
      <contour>
        <pt x="651" y="318" on="1"/>
        <pt x="689" y="318" on="0"/>
        <pt x="742" y="329" on="0"/>
        <pt x="775" y="354" on="0"/>
        <pt x="789" y="395" on="0"/>
        <pt x="789" y="424" on="1"/>
        <pt x="789" y="478" on="0"/>
        <pt x="724" y="528" on="0"/>
        <pt x="655" y="528" on="1"/>
        <pt x="629" y="528" on="0"/>
        <pt x="582" y="525" on="0"/>
        <pt x="556" y="522" on="1"/>
        <pt x="556" y="318" on="1"/>
      </contour>
    </TTGlyph>
    <TTGlyph name="F_F.sc" xMin="70" yMin="0" xMax="817" yMax="577">
      <contour>
        <pt x="70" y="577" on="1"/>
        <pt x="399" y="577" on="1"/>
        <pt x="399" y="516" on="1"/>
        <pt x="141" y="516" on="1"/>
        <pt x="141" y="317" on="1"/>
        <pt x="380" y="317" on="1"/>
        <pt x="380" y="255" on="1"/>
        <pt x="141" y="255" on="1"/>
        <pt x="141" y="0" on="1"/>
        <pt x="70" y="0" on="1"/>
      </contour>
      <contour>
        <pt x="488" y="577" on="1"/>
        <pt x="817" y="577" on="1"/>
        <pt x="817" y="516" on="1"/>
        <pt x="559" y="516" on="1"/>
        <pt x="559" y="317" on="1"/>
        <pt x="798" y="317" on="1"/>
        <pt x="798" y="255" on="1"/>
        <pt x="559" y="255" on="1"/>
        <pt x="559" y="0" on="1"/>
        <pt x="488" y="0" on="1"/>
      </contour>
    </TTGlyph>
    <TTGlyph name="F_F_B.sc" xMin="70" yMin="-8" xMax="1298" yMax="585">
      <contour>
        <pt x="70" y="577" on="1"/>
        <pt x="399" y="577" on="1"/>
        <pt x="399" y="516" on="1"/>
        <pt x="141" y="516" on="1"/>
        <pt x="141" y="317" on="1"/>
        <pt x="380" y="317" on="1"/>
        <pt x="380" y="255" on="1"/>
        <pt x="141" y="255" on="1"/>
        <pt x="141" y="0" on="1"/>
        <pt x="70" y="0" on="1"/>
      </contour>
      <contour>
        <pt x="488" y="577" on="1"/>
        <pt x="817" y="577" on="1"/>
        <pt x="817" y="516" on="1"/>
        <pt x="559" y="516" on="1"/>
        <pt x="559" y="317" on="1"/>
        <pt x="798" y="317" on="1"/>
        <pt x="798" y="255" on="1"/>
        <pt x="559" y="255" on="1"/>
        <pt x="559" y="0" on="1"/>
        <pt x="488" y="0" on="1"/>
      </contour>
      <contour>
        <pt x="1074" y="-8" on="1"/>
        <pt x="1054" y="-8" on="0"/>
        <pt x="1009" y="-6" on="0"/>
        <pt x="964" y="-3" on="0"/>
        <pt x="922" y="1" on="0"/>
        <pt x="906" y="4" on="1"/>
        <pt x="906" y="574" on="1"/>
        <pt x="934" y="577" on="0"/>
        <pt x="979" y="581" on="0"/>
        <pt x="1016" y="584" on="0"/>
        <pt x="1049" y="585" on="0"/>
        <pt x="1066" y="585" on="1"/>
        <pt x="1176" y="585" on="0"/>
        <pt x="1278" y="509" on="0"/>
        <pt x="1278" y="428" on="1"/>
        <pt x="1278" y="374" on="0"/>
        <pt x="1227" y="307" on="0"/>
        <pt x="1177" y="297" on="1"/>
        <pt x="1177" y="294" on="1"/>
        <pt x="1234" y="285" on="0"/>
        <pt x="1298" y="213" on="0"/>
        <pt x="1298" y="153" on="1"/>
        <pt x="1298" y="-8" on="0"/>
      </contour>
      <contour>
        <pt x="1083" y="48" on="1"/>
        <pt x="1227" y="48" on="0"/>
        <pt x="1227" y="157" on="1"/>
        <pt x="1227" y="214" on="0"/>
        <pt x="1154" y="264" on="0"/>
        <pt x="1070" y="264" on="1"/>
        <pt x="974" y="264" on="1"/>
        <pt x="974" y="54" on="1"/>
        <pt x="980" y="53" on="0"/>
        <pt x="1004" y="51" on="0"/>
        <pt x="1035" y="49" on="0"/>
        <pt x="1068" y="48" on="0"/>
      </contour>
      <contour>
        <pt x="1069" y="318" on="1"/>
        <pt x="1107" y="318" on="0"/>
        <pt x="1160" y="329" on="0"/>
        <pt x="1193" y="354" on="0"/>
        <pt x="1207" y="395" on="0"/>
        <pt x="1207" y="424" on="1"/>
        <pt x="1207" y="478" on="0"/>
        <pt x="1142" y="528" on="0"/>
        <pt x="1073" y="528" on="1"/>
        <pt x="1047" y="528" on="0"/>
        <pt x="1000" y="525" on="0"/>
        <pt x="974" y="522" on="1"/>
        <pt x="974" y="318" on="1"/>
      </contour>
    </TTGlyph>
    <TTGlyph name="F_F_H.sc" xMin="70" yMin="0" xMax="1330" yMax="577">
      <contour>
        <pt x="70" y="577" on="1"/>
        <pt x="399" y="577" on="1"/>
        <pt x="399" y="516" on="1"/>
        <pt x="141" y="516" on="1"/>
        <pt x="141" y="317" on="1"/>
        <pt x="380" y="317" on="1"/>
        <pt x="380" y="255" on="1"/>
        <pt x="141" y="255" on="1"/>
        <pt x="141" y="0" on="1"/>
        <pt x="70" y="0" on="1"/>
      </contour>
      <contour>
        <pt x="488" y="577" on="1"/>
        <pt x="817" y="577" on="1"/>
        <pt x="817" y="516" on="1"/>
        <pt x="559" y="516" on="1"/>
        <pt x="559" y="317" on="1"/>
        <pt x="798" y="317" on="1"/>
        <pt x="798" y="255" on="1"/>
        <pt x="559" y="255" on="1"/>
        <pt x="559" y="0" on="1"/>
        <pt x="488" y="0" on="1"/>
      </contour>
      <contour>
        <pt x="906" y="577" on="1"/>
        <pt x="977" y="577" on="1"/>
        <pt x="977" y="326" on="1"/>
        <pt x="1259" y="326" on="1"/>
        <pt x="1259" y="577" on="1"/>
        <pt x="1330" y="577" on="1"/>
        <pt x="1330" y="0" on="1"/>
        <pt x="1259" y="0" on="1"/>
        <pt x="1259" y="264" on="1"/>
        <pt x="977" y="264" on="1"/>
        <pt x="977" y="0" on="1"/>
        <pt x="906" y="0" on="1"/>
      </contour>
    </TTGlyph>
    <TTGlyph name="F_F_I.sc" xMin="70" yMin="0" xMax="977" yMax="577">
      <contour>
        <pt x="70" y="577" on="1"/>
        <pt x="399" y="577" on="1"/>
        <pt x="399" y="516" on="1"/>
        <pt x="141" y="516" on="1"/>
        <pt x="141" y="317" on="1"/>
        <pt x="380" y="317" on="1"/>
        <pt x="380" y="255" on="1"/>
        <pt x="141" y="255" on="1"/>
        <pt x="141" y="0" on="1"/>
        <pt x="70" y="0" on="1"/>
      </contour>
      <contour>
        <pt x="488" y="577" on="1"/>
        <pt x="817" y="577" on="1"/>
        <pt x="817" y="516" on="1"/>
        <pt x="559" y="516" on="1"/>
        <pt x="559" y="317" on="1"/>
        <pt x="798" y="317" on="1"/>
        <pt x="798" y="255" on="1"/>
        <pt x="559" y="255" on="1"/>
        <pt x="559" y="0" on="1"/>
        <pt x="488" y="0" on="1"/>
      </contour>
      <contour>
        <pt x="906" y="577" on="1"/>
        <pt x="977" y="577" on="1"/>
        <pt x="977" y="0" on="1"/>
        <pt x="906" y="0" on="1"/>
      </contour>
    </TTGlyph>
    <TTGlyph name="F_F_J.sc" xMin="70" yMin="-147" xMax="989" yMax="577">
      <contour>
        <pt x="70" y="577" on="1"/>
        <pt x="399" y="577" on="1"/>
        <pt x="399" y="516" on="1"/>
        <pt x="141" y="516" on="1"/>
        <pt x="141" y="317" on="1"/>
        <pt x="380" y="317" on="1"/>
        <pt x="380" y="255" on="1"/>
        <pt x="141" y="255" on="1"/>
        <pt x="141" y="0" on="1"/>
        <pt x="70" y="0" on="1"/>
      </contour>
      <contour>
        <pt x="488" y="577" on="1"/>
        <pt x="817" y="577" on="1"/>
        <pt x="817" y="516" on="1"/>
        <pt x="559" y="516" on="1"/>
        <pt x="559" y="317" on="1"/>
        <pt x="798" y="317" on="1"/>
        <pt x="798" y="255" on="1"/>
        <pt x="559" y="255" on="1"/>
        <pt x="559" y="0" on="1"/>
        <pt x="488" y="0" on="1"/>
      </contour>
      <contour>
        <pt x="847" y="-124" on="1"/>
        <pt x="868" y="-83" on="0"/>
        <pt x="896" y="-18" on="0"/>
        <pt x="912" y="43" on="0"/>
        <pt x="918" y="106" on="0"/>
        <pt x="918" y="145" on="1"/>
        <pt x="918" y="577" on="1"/>
        <pt x="989" y="577" on="1"/>
        <pt x="989" y="140" on="1"/>
        <pt x="989" y="65" on="0"/>
        <pt x="945" y="-69" on="0"/>
        <pt x="894" y="-147" on="1"/>
      </contour>
    </TTGlyph>
    <TTGlyph name="F_F_K.sc" xMin="70" yMin="0" xMax="1336" yMax="577">
      <contour>
        <pt x="70" y="577" on="1"/>
        <pt x="399" y="577" on="1"/>
        <pt x="399" y="516" on="1"/>
        <pt x="141" y="516" on="1"/>
        <pt x="141" y="317" on="1"/>
        <pt x="380" y="317" on="1"/>
        <pt x="380" y="255" on="1"/>
        <pt x="141" y="255" on="1"/>
        <pt x="141" y="0" on="1"/>
        <pt x="70" y="0" on="1"/>
      </contour>
      <contour>
        <pt x="488" y="577" on="1"/>
        <pt x="817" y="577" on="1"/>
        <pt x="817" y="516" on="1"/>
        <pt x="559" y="516" on="1"/>
        <pt x="559" y="317" on="1"/>
        <pt x="798" y="317" on="1"/>
        <pt x="798" y="255" on="1"/>
        <pt x="559" y="255" on="1"/>
        <pt x="559" y="0" on="1"/>
        <pt x="488" y="0" on="1"/>
      </contour>
      <contour>
        <pt x="906" y="577" on="1"/>
        <pt x="977" y="577" on="1"/>
        <pt x="977" y="325" on="1"/>
        <pt x="1052" y="325" on="1"/>
        <pt x="1237" y="577" on="1"/>
        <pt x="1320" y="577" on="1"/>
        <pt x="1131" y="317" on="1"/>
        <pt x="1097" y="296" on="1"/>
        <pt x="1097" y="292" on="1"/>
        <pt x="1132" y="273" on="1"/>
        <pt x="1336" y="0" on="1"/>
        <pt x="1256" y="0" on="1"/>
        <pt x="1054" y="263" on="1"/>
        <pt x="977" y="263" on="1"/>
        <pt x="977" y="0" on="1"/>
        <pt x="906" y="0" on="1"/>
      </contour>
    </TTGlyph>
    <TTGlyph name="F_F_L.sc" xMin="70" yMin="0" xMax="1197" yMax="577">
      <contour>
        <pt x="906" y="577" on="1"/>
        <pt x="977" y="577" on="1"/>
        <pt x="977" y="62" on="1"/>
        <pt x="1197" y="62" on="1"/>
        <pt x="1197" y="0" on="1"/>
        <pt x="906" y="0" on="1"/>
      </contour>
      <contour>
        <pt x="70" y="577" on="1"/>
        <pt x="399" y="577" on="1"/>
        <pt x="399" y="516" on="1"/>
        <pt x="141" y="516" on="1"/>
        <pt x="141" y="317" on="1"/>
        <pt x="380" y="317" on="1"/>
        <pt x="380" y="255" on="1"/>
        <pt x="141" y="255" on="1"/>
        <pt x="141" y="0" on="1"/>
        <pt x="70" y="0" on="1"/>
      </contour>
      <contour>
        <pt x="488" y="577" on="1"/>
        <pt x="817" y="577" on="1"/>
        <pt x="817" y="516" on="1"/>
        <pt x="559" y="516" on="1"/>
        <pt x="559" y="317" on="1"/>
        <pt x="798" y="317" on="1"/>
        <pt x="798" y="255" on="1"/>
        <pt x="559" y="255" on="1"/>
        <pt x="559" y="0" on="1"/>
        <pt x="488" y="0" on="1"/>
      </contour>
    </TTGlyph>
    <TTGlyph name="F_F_T.sc" xMin="70" yMin="0" xMax="1229" yMax="577">
      <contour>
        <pt x="996" y="514" on="1"/>
        <pt x="833" y="514" on="1"/>
        <pt x="833" y="577" on="1"/>
        <pt x="1229" y="577" on="1"/>
        <pt x="1229" y="514" on="1"/>
        <pt x="1066" y="514" on="1"/>
        <pt x="1066" y="0" on="1"/>
        <pt x="996" y="0" on="1"/>
      </contour>
      <contour>
        <pt x="70" y="577" on="1"/>
        <pt x="399" y="577" on="1"/>
        <pt x="399" y="516" on="1"/>
        <pt x="141" y="516" on="1"/>
        <pt x="141" y="317" on="1"/>
        <pt x="380" y="317" on="1"/>
        <pt x="380" y="255" on="1"/>
        <pt x="141" y="255" on="1"/>
        <pt x="141" y="0" on="1"/>
        <pt x="70" y="0" on="1"/>
      </contour>
      <contour>
        <pt x="488" y="577" on="1"/>
        <pt x="817" y="577" on="1"/>
        <pt x="817" y="516" on="1"/>
        <pt x="559" y="516" on="1"/>
        <pt x="559" y="317" on="1"/>
        <pt x="798" y="317" on="1"/>
        <pt x="798" y="255" on="1"/>
        <pt x="559" y="255" on="1"/>
        <pt x="559" y="0" on="1"/>
        <pt x="488" y="0" on="1"/>
      </contour>
    </TTGlyph>
    <TTGlyph name="F_H.sc" xMin="70" yMin="0" xMax="912" yMax="577">
      <contour>
        <pt x="70" y="577" on="1"/>
        <pt x="399" y="577" on="1"/>
        <pt x="399" y="516" on="1"/>
        <pt x="141" y="516" on="1"/>
        <pt x="141" y="317" on="1"/>
        <pt x="380" y="317" on="1"/>
        <pt x="380" y="255" on="1"/>
        <pt x="141" y="255" on="1"/>
        <pt x="141" y="0" on="1"/>
        <pt x="70" y="0" on="1"/>
      </contour>
      <contour>
        <pt x="488" y="577" on="1"/>
        <pt x="559" y="577" on="1"/>
        <pt x="559" y="326" on="1"/>
        <pt x="841" y="326" on="1"/>
        <pt x="841" y="577" on="1"/>
        <pt x="912" y="577" on="1"/>
        <pt x="912" y="0" on="1"/>
        <pt x="841" y="0" on="1"/>
        <pt x="841" y="264" on="1"/>
        <pt x="559" y="264" on="1"/>
        <pt x="559" y="0" on="1"/>
        <pt x="488" y="0" on="1"/>
      </contour>
    </TTGlyph>
    <TTGlyph name="F_I.sc" xMin="70" yMin="0" xMax="559" yMax="577">
      <contour>
        <pt x="70" y="577" on="1"/>
        <pt x="399" y="577" on="1"/>
        <pt x="399" y="516" on="1"/>
        <pt x="141" y="516" on="1"/>
        <pt x="141" y="317" on="1"/>
        <pt x="380" y="317" on="1"/>
        <pt x="380" y="255" on="1"/>
        <pt x="141" y="255" on="1"/>
        <pt x="141" y="0" on="1"/>
        <pt x="70" y="0" on="1"/>
      </contour>
      <contour>
        <pt x="488" y="577" on="1"/>
        <pt x="559" y="577" on="1"/>
        <pt x="559" y="0" on="1"/>
        <pt x="488" y="0" on="1"/>
      </contour>
    </TTGlyph>
    <TTGlyph name="F_J.sc" xMin="70" yMin="-147" xMax="571" yMax="577">
      <contour>
        <pt x="70" y="577" on="1"/>
        <pt x="399" y="577" on="1"/>
        <pt x="399" y="516" on="1"/>
        <pt x="141" y="516" on="1"/>
        <pt x="141" y="317" on="1"/>
        <pt x="380" y="317" on="1"/>
        <pt x="380" y="255" on="1"/>
        <pt x="141" y="255" on="1"/>
        <pt x="141" y="0" on="1"/>
        <pt x="70" y="0" on="1"/>
      </contour>
      <contour>
        <pt x="429" y="-124" on="1"/>
        <pt x="450" y="-83" on="0"/>
        <pt x="478" y="-18" on="0"/>
        <pt x="494" y="43" on="0"/>
        <pt x="500" y="106" on="0"/>
        <pt x="500" y="145" on="1"/>
        <pt x="500" y="577" on="1"/>
        <pt x="571" y="577" on="1"/>
        <pt x="571" y="140" on="1"/>
        <pt x="571" y="65" on="0"/>
        <pt x="527" y="-69" on="0"/>
        <pt x="476" y="-147" on="1"/>
      </contour>
    </TTGlyph>
    <TTGlyph name="F_K.sc" xMin="70" yMin="0" xMax="918" yMax="577">
      <contour>
        <pt x="70" y="577" on="1"/>
        <pt x="399" y="577" on="1"/>
        <pt x="399" y="516" on="1"/>
        <pt x="141" y="516" on="1"/>
        <pt x="141" y="317" on="1"/>
        <pt x="380" y="317" on="1"/>
        <pt x="380" y="255" on="1"/>
        <pt x="141" y="255" on="1"/>
        <pt x="141" y="0" on="1"/>
        <pt x="70" y="0" on="1"/>
      </contour>
      <contour>
        <pt x="488" y="577" on="1"/>
        <pt x="559" y="577" on="1"/>
        <pt x="559" y="325" on="1"/>
        <pt x="634" y="325" on="1"/>
        <pt x="819" y="577" on="1"/>
        <pt x="902" y="577" on="1"/>
        <pt x="713" y="317" on="1"/>
        <pt x="679" y="296" on="1"/>
        <pt x="679" y="292" on="1"/>
        <pt x="714" y="273" on="1"/>
        <pt x="918" y="0" on="1"/>
        <pt x="838" y="0" on="1"/>
        <pt x="636" y="263" on="1"/>
        <pt x="559" y="263" on="1"/>
        <pt x="559" y="0" on="1"/>
        <pt x="488" y="0" on="1"/>
      </contour>
    </TTGlyph>
    <TTGlyph name="F_L.sc" xMin="70" yMin="0" xMax="779" yMax="577">
      <contour>
        <pt x="488" y="577" on="1"/>
        <pt x="559" y="577" on="1"/>
        <pt x="559" y="62" on="1"/>
        <pt x="779" y="62" on="1"/>
        <pt x="779" y="0" on="1"/>
        <pt x="488" y="0" on="1"/>
      </contour>
      <contour>
        <pt x="70" y="577" on="1"/>
        <pt x="399" y="577" on="1"/>
        <pt x="399" y="516" on="1"/>
        <pt x="141" y="516" on="1"/>
        <pt x="141" y="317" on="1"/>
        <pt x="380" y="317" on="1"/>
        <pt x="380" y="255" on="1"/>
        <pt x="141" y="255" on="1"/>
        <pt x="141" y="0" on="1"/>
        <pt x="70" y="0" on="1"/>
      </contour>
    </TTGlyph>
    <TTGlyph name="F_T.sc" xMin="70" yMin="0" xMax="811" yMax="577">
      <contour>
        <pt x="578" y="514" on="1"/>
        <pt x="415" y="514" on="1"/>
        <pt x="415" y="577" on="1"/>
        <pt x="811" y="577" on="1"/>
        <pt x="811" y="514" on="1"/>
        <pt x="648" y="514" on="1"/>
        <pt x="648" y="0" on="1"/>
        <pt x="578" y="0" on="1"/>
      </contour>
      <contour>
        <pt x="70" y="577" on="1"/>
        <pt x="399" y="577" on="1"/>
        <pt x="399" y="516" on="1"/>
        <pt x="141" y="516" on="1"/>
        <pt x="141" y="317" on="1"/>
        <pt x="380" y="317" on="1"/>
        <pt x="380" y="255" on="1"/>
        <pt x="141" y="255" on="1"/>
        <pt x="141" y="0" on="1"/>
        <pt x="70" y="0" on="1"/>
      </contour>
    </TTGlyph>
    <TTGlyph name="G" xMin="43" yMin="-10" xMax="501" yMax="748">
      <contour>
        <pt x="348" y="-10" on="1"/>
        <pt x="268" y="-9" on="0"/>
        <pt x="153" y="36" on="0"/>
        <pt x="78" y="128" on="0"/>
        <pt x="43" y="271" on="0"/>
        <pt x="43" y="369" on="1"/>
        <pt x="43" y="469" on="0"/>
        <pt x="79" y="613" on="0"/>
        <pt x="156" y="705" on="0"/>
        <pt x="275" y="748" on="0"/>
        <pt x="359" y="748" on="1"/>
        <pt x="385" y="748" on="0"/>
        <pt x="464" y="740" on="0"/>
        <pt x="500" y="732" on="1"/>
        <pt x="500" y="668" on="1"/>
        <pt x="425" y="683" on="0"/>
        <pt x="366" y="683" on="1"/>
        <pt x="298" y="683" on="0"/>
        <pt x="205" y="650" on="0"/>
        <pt x="146" y="575" on="0"/>
        <pt x="120" y="455" on="0"/>
        <pt x="120" y="369" on="1"/>
        <pt x="120" y="285" on="0"/>
        <pt x="146" y="167" on="0"/>
        <pt x="203" y="91" on="0"/>
        <pt x="291" y="56" on="0"/>
        <pt x="353" y="56" on="1"/>
        <pt x="367" y="56" on="0"/>
        <pt x="409" y="59" on="0"/>
        <pt x="432" y="61" on="1"/>
        <pt x="432" y="376" on="1"/>
        <pt x="501" y="376" on="1"/>
        <pt x="501" y="4" on="1"/>
        <pt x="452" y="-4" on="0"/>
        <pt x="383" y="-10" on="0"/>
      </contour>
    </TTGlyph>
    <TTGlyph name="G.sc" xMin="42" yMin="-8" xMax="446" yMax="584">
      <contour>
        <pt x="307" y="-8" on="1"/>
        <pt x="169" y="-7" on="0"/>
        <pt x="42" y="136" on="0"/>
        <pt x="42" y="288" on="1"/>
        <pt x="42" y="365" on="0"/>
        <pt x="74" y="477" on="0"/>
        <pt x="141" y="549" on="0"/>
        <pt x="246" y="584" on="0"/>
        <pt x="319" y="584" on="1"/>
        <pt x="343" y="584" on="0"/>
        <pt x="413" y="577" on="0"/>
        <pt x="445" y="570" on="1"/>
        <pt x="445" y="510" on="1"/>
        <pt x="410" y="517" on="0"/>
        <pt x="351" y="523" on="0"/>
        <pt x="326" y="523" on="1"/>
        <pt x="268" y="523" on="0"/>
        <pt x="188" y="498" on="0"/>
        <pt x="138" y="442" on="0"/>
        <pt x="116" y="352" on="0"/>
        <pt x="116" y="288" on="1"/>
        <pt x="116" y="162" on="0"/>
        <pt x="208" y="54" on="0"/>
        <pt x="313" y="54" on="1"/>
        <pt x="323" y="54" on="0"/>
        <pt x="362" y="56" on="0"/>
        <pt x="381" y="58" on="1"/>
        <pt x="381" y="293" on="1"/>
        <pt x="446" y="293" on="1"/>
        <pt x="446" y="5" on="1"/>
        <pt x="402" y="-2" on="0"/>
        <pt x="339" y="-8" on="0"/>
      </contour>
    </TTGlyph>
    <TTGlyph name="Gacute" xMin="43" yMin="-10" xMax="501" yMax="929">
      <contour>
        <pt x="297" y="790" on="1"/>
        <pt x="372" y="929" on="1"/>
        <pt x="449" y="929" on="1"/>
        <pt x="355" y="786" on="1"/>
      </contour>
      <contour>
        <pt x="348" y="-10" on="1"/>
        <pt x="268" y="-9" on="0"/>
        <pt x="153" y="36" on="0"/>
        <pt x="78" y="128" on="0"/>
        <pt x="43" y="271" on="0"/>
        <pt x="43" y="369" on="1"/>
        <pt x="43" y="469" on="0"/>
        <pt x="79" y="613" on="0"/>
        <pt x="156" y="705" on="0"/>
        <pt x="275" y="748" on="0"/>
        <pt x="359" y="748" on="1"/>
        <pt x="385" y="748" on="0"/>
        <pt x="464" y="740" on="0"/>
        <pt x="500" y="732" on="1"/>
        <pt x="500" y="668" on="1"/>
        <pt x="425" y="683" on="0"/>
        <pt x="366" y="683" on="1"/>
        <pt x="298" y="683" on="0"/>
        <pt x="205" y="650" on="0"/>
        <pt x="146" y="575" on="0"/>
        <pt x="120" y="455" on="0"/>
        <pt x="120" y="369" on="1"/>
        <pt x="120" y="285" on="0"/>
        <pt x="146" y="167" on="0"/>
        <pt x="203" y="91" on="0"/>
        <pt x="291" y="56" on="0"/>
        <pt x="353" y="56" on="1"/>
        <pt x="367" y="56" on="0"/>
        <pt x="409" y="59" on="0"/>
        <pt x="432" y="61" on="1"/>
        <pt x="432" y="376" on="1"/>
        <pt x="501" y="376" on="1"/>
        <pt x="501" y="4" on="1"/>
        <pt x="452" y="-4" on="0"/>
        <pt x="383" y="-10" on="0"/>
      </contour>
    </TTGlyph>
    <TTGlyph name="Gacute.sc" xMin="42" yMin="-8" xMax="446" yMax="732">
      <contour>
        <pt x="307" y="-8" on="1"/>
        <pt x="169" y="-7" on="0"/>
        <pt x="42" y="136" on="0"/>
        <pt x="42" y="288" on="1"/>
        <pt x="42" y="365" on="0"/>
        <pt x="74" y="477" on="0"/>
        <pt x="141" y="549" on="0"/>
        <pt x="246" y="584" on="0"/>
        <pt x="319" y="584" on="1"/>
        <pt x="343" y="584" on="0"/>
        <pt x="413" y="577" on="0"/>
        <pt x="445" y="570" on="1"/>
        <pt x="445" y="510" on="1"/>
        <pt x="410" y="517" on="0"/>
        <pt x="351" y="523" on="0"/>
        <pt x="326" y="523" on="1"/>
        <pt x="268" y="523" on="0"/>
        <pt x="188" y="498" on="0"/>
        <pt x="138" y="442" on="0"/>
        <pt x="116" y="352" on="0"/>
        <pt x="116" y="288" on="1"/>
        <pt x="116" y="162" on="0"/>
        <pt x="208" y="54" on="0"/>
        <pt x="313" y="54" on="1"/>
        <pt x="323" y="54" on="0"/>
        <pt x="362" y="56" on="0"/>
        <pt x="381" y="58" on="1"/>
        <pt x="381" y="293" on="1"/>
        <pt x="446" y="293" on="1"/>
        <pt x="446" y="5" on="1"/>
        <pt x="402" y="-2" on="0"/>
        <pt x="339" y="-8" on="0"/>
      </contour>
      <contour>
        <pt x="261" y="618" on="1"/>
        <pt x="325" y="732" on="1"/>
        <pt x="398" y="732" on="1"/>
        <pt x="315" y="615" on="1"/>
      </contour>
    </TTGlyph>
    <TTGlyph name="Gbreve" xMin="43" yMin="-10" xMax="501" yMax="955">
      <contour>
        <pt x="332" y="809" on="1"/>
        <pt x="261" y="809" on="0"/>
        <pt x="183" y="886" on="0"/>
        <pt x="183" y="955" on="1"/>
        <pt x="240" y="955" on="1"/>
        <pt x="240" y="857" on="0"/>
        <pt x="332" y="857" on="1"/>
        <pt x="376" y="857" on="0"/>
        <pt x="423" y="906" on="0"/>
        <pt x="423" y="955" on="1"/>
        <pt x="480" y="955" on="1"/>
        <pt x="480" y="887" on="0"/>
        <pt x="402" y="809" on="0"/>
      </contour>
      <contour>
        <pt x="348" y="-10" on="1"/>
        <pt x="268" y="-9" on="0"/>
        <pt x="153" y="36" on="0"/>
        <pt x="78" y="128" on="0"/>
        <pt x="43" y="271" on="0"/>
        <pt x="43" y="369" on="1"/>
        <pt x="43" y="469" on="0"/>
        <pt x="79" y="613" on="0"/>
        <pt x="156" y="705" on="0"/>
        <pt x="275" y="748" on="0"/>
        <pt x="359" y="748" on="1"/>
        <pt x="385" y="748" on="0"/>
        <pt x="464" y="740" on="0"/>
        <pt x="500" y="732" on="1"/>
        <pt x="500" y="668" on="1"/>
        <pt x="425" y="683" on="0"/>
        <pt x="366" y="683" on="1"/>
        <pt x="298" y="683" on="0"/>
        <pt x="205" y="650" on="0"/>
        <pt x="146" y="575" on="0"/>
        <pt x="120" y="455" on="0"/>
        <pt x="120" y="369" on="1"/>
        <pt x="120" y="285" on="0"/>
        <pt x="146" y="167" on="0"/>
        <pt x="203" y="91" on="0"/>
        <pt x="291" y="56" on="0"/>
        <pt x="353" y="56" on="1"/>
        <pt x="367" y="56" on="0"/>
        <pt x="409" y="59" on="0"/>
        <pt x="432" y="61" on="1"/>
        <pt x="432" y="376" on="1"/>
        <pt x="501" y="376" on="1"/>
        <pt x="501" y="4" on="1"/>
        <pt x="452" y="-4" on="0"/>
        <pt x="383" y="-10" on="0"/>
      </contour>
    </TTGlyph>
    <TTGlyph name="Gbreve.sc" xMin="42" yMin="-8" xMax="446" yMax="748">
      <contour>
        <pt x="307" y="-8" on="1"/>
        <pt x="169" y="-7" on="0"/>
        <pt x="42" y="136" on="0"/>
        <pt x="42" y="288" on="1"/>
        <pt x="42" y="365" on="0"/>
        <pt x="74" y="477" on="0"/>
        <pt x="141" y="549" on="0"/>
        <pt x="246" y="584" on="0"/>
        <pt x="319" y="584" on="1"/>
        <pt x="343" y="584" on="0"/>
        <pt x="413" y="577" on="0"/>
        <pt x="445" y="570" on="1"/>
        <pt x="445" y="510" on="1"/>
        <pt x="410" y="517" on="0"/>
        <pt x="351" y="523" on="0"/>
        <pt x="326" y="523" on="1"/>
        <pt x="268" y="523" on="0"/>
        <pt x="188" y="498" on="0"/>
        <pt x="138" y="442" on="0"/>
        <pt x="116" y="352" on="0"/>
        <pt x="116" y="288" on="1"/>
        <pt x="116" y="162" on="0"/>
        <pt x="208" y="54" on="0"/>
        <pt x="313" y="54" on="1"/>
        <pt x="323" y="54" on="0"/>
        <pt x="362" y="56" on="0"/>
        <pt x="381" y="58" on="1"/>
        <pt x="381" y="293" on="1"/>
        <pt x="446" y="293" on="1"/>
        <pt x="446" y="5" on="1"/>
        <pt x="402" y="-2" on="0"/>
        <pt x="339" y="-8" on="0"/>
      </contour>
      <contour>
        <pt x="293" y="629" on="1"/>
        <pt x="230" y="629" on="0"/>
        <pt x="161" y="692" on="0"/>
        <pt x="161" y="748" on="1"/>
        <pt x="215" y="748" on="1"/>
        <pt x="215" y="671" on="0"/>
        <pt x="293" y="671" on="1"/>
        <pt x="372" y="671" on="0"/>
        <pt x="372" y="748" on="1"/>
        <pt x="426" y="748" on="1"/>
        <pt x="426" y="692" on="0"/>
        <pt x="356" y="629" on="0"/>
      </contour>
    </TTGlyph>
    <TTGlyph name="Gcircumflex" xMin="43" yMin="-10" xMax="501" yMax="944">
      <contour>
        <pt x="348" y="-10" on="1"/>
        <pt x="268" y="-9" on="0"/>
        <pt x="153" y="36" on="0"/>
        <pt x="78" y="128" on="0"/>
        <pt x="43" y="271" on="0"/>
        <pt x="43" y="369" on="1"/>
        <pt x="43" y="469" on="0"/>
        <pt x="79" y="613" on="0"/>
        <pt x="156" y="705" on="0"/>
        <pt x="275" y="748" on="0"/>
        <pt x="359" y="748" on="1"/>
        <pt x="385" y="748" on="0"/>
        <pt x="464" y="740" on="0"/>
        <pt x="500" y="732" on="1"/>
        <pt x="500" y="668" on="1"/>
        <pt x="425" y="683" on="0"/>
        <pt x="366" y="683" on="1"/>
        <pt x="298" y="683" on="0"/>
        <pt x="205" y="650" on="0"/>
        <pt x="146" y="575" on="0"/>
        <pt x="120" y="455" on="0"/>
        <pt x="120" y="369" on="1"/>
        <pt x="120" y="285" on="0"/>
        <pt x="146" y="167" on="0"/>
        <pt x="203" y="91" on="0"/>
        <pt x="291" y="56" on="0"/>
        <pt x="353" y="56" on="1"/>
        <pt x="367" y="56" on="0"/>
        <pt x="409" y="59" on="0"/>
        <pt x="432" y="61" on="1"/>
        <pt x="432" y="376" on="1"/>
        <pt x="501" y="376" on="1"/>
        <pt x="501" y="4" on="1"/>
        <pt x="452" y="-4" on="0"/>
        <pt x="383" y="-10" on="0"/>
      </contour>
      <contour>
        <pt x="197" y="872" on="1"/>
        <pt x="330" y="944" on="1"/>
        <pt x="464" y="872" on="1"/>
        <pt x="464" y="811" on="1"/>
        <pt x="330" y="883" on="1"/>
        <pt x="197" y="811" on="1"/>
      </contour>
    </TTGlyph>
    <TTGlyph name="Gcircumflex.sc" xMin="42" yMin="-8" xMax="446" yMax="741">
      <contour>
        <pt x="307" y="-8" on="1"/>
        <pt x="169" y="-7" on="0"/>
        <pt x="42" y="136" on="0"/>
        <pt x="42" y="288" on="1"/>
        <pt x="42" y="365" on="0"/>
        <pt x="74" y="477" on="0"/>
        <pt x="141" y="549" on="0"/>
        <pt x="246" y="584" on="0"/>
        <pt x="319" y="584" on="1"/>
        <pt x="343" y="584" on="0"/>
        <pt x="413" y="577" on="0"/>
        <pt x="445" y="570" on="1"/>
        <pt x="445" y="510" on="1"/>
        <pt x="410" y="517" on="0"/>
        <pt x="351" y="523" on="0"/>
        <pt x="326" y="523" on="1"/>
        <pt x="268" y="523" on="0"/>
        <pt x="188" y="498" on="0"/>
        <pt x="138" y="442" on="0"/>
        <pt x="116" y="352" on="0"/>
        <pt x="116" y="288" on="1"/>
        <pt x="116" y="162" on="0"/>
        <pt x="208" y="54" on="0"/>
        <pt x="313" y="54" on="1"/>
        <pt x="323" y="54" on="0"/>
        <pt x="362" y="56" on="0"/>
        <pt x="381" y="58" on="1"/>
        <pt x="381" y="293" on="1"/>
        <pt x="446" y="293" on="1"/>
        <pt x="446" y="5" on="1"/>
        <pt x="402" y="-2" on="0"/>
        <pt x="339" y="-8" on="0"/>
      </contour>
      <contour>
        <pt x="173" y="685" on="1"/>
        <pt x="292" y="741" on="1"/>
        <pt x="410" y="685" on="1"/>
        <pt x="410" y="630" on="1"/>
        <pt x="292" y="686" on="1"/>
        <pt x="173" y="630" on="1"/>
      </contour>
    </TTGlyph>
    <TTGlyph name="Gcommaaccent" xMin="43" yMin="-220" xMax="501" yMax="748">
      <contour>
        <pt x="305" y="-67" on="1"/>
        <pt x="380" y="-67" on="1"/>
        <pt x="317" y="-220" on="1"/>
        <pt x="256" y="-220" on="1"/>
      </contour>
      <contour>
        <pt x="348" y="-10" on="1"/>
        <pt x="268" y="-9" on="0"/>
        <pt x="153" y="36" on="0"/>
        <pt x="78" y="128" on="0"/>
        <pt x="43" y="271" on="0"/>
        <pt x="43" y="369" on="1"/>
        <pt x="43" y="469" on="0"/>
        <pt x="79" y="613" on="0"/>
        <pt x="156" y="705" on="0"/>
        <pt x="275" y="748" on="0"/>
        <pt x="359" y="748" on="1"/>
        <pt x="385" y="748" on="0"/>
        <pt x="464" y="740" on="0"/>
        <pt x="500" y="732" on="1"/>
        <pt x="500" y="668" on="1"/>
        <pt x="425" y="683" on="0"/>
        <pt x="366" y="683" on="1"/>
        <pt x="298" y="683" on="0"/>
        <pt x="205" y="650" on="0"/>
        <pt x="146" y="575" on="0"/>
        <pt x="120" y="455" on="0"/>
        <pt x="120" y="369" on="1"/>
        <pt x="120" y="285" on="0"/>
        <pt x="146" y="167" on="0"/>
        <pt x="203" y="91" on="0"/>
        <pt x="291" y="56" on="0"/>
        <pt x="353" y="56" on="1"/>
        <pt x="367" y="56" on="0"/>
        <pt x="409" y="59" on="0"/>
        <pt x="432" y="61" on="1"/>
        <pt x="432" y="376" on="1"/>
        <pt x="501" y="376" on="1"/>
        <pt x="501" y="4" on="1"/>
        <pt x="452" y="-4" on="0"/>
        <pt x="383" y="-10" on="0"/>
      </contour>
    </TTGlyph>
    <TTGlyph name="Gcommaaccent.sc" xMin="42" yMin="-172" xMax="446" yMax="584">
      <contour>
        <pt x="307" y="-8" on="1"/>
        <pt x="169" y="-7" on="0"/>
        <pt x="42" y="136" on="0"/>
        <pt x="42" y="288" on="1"/>
        <pt x="42" y="365" on="0"/>
        <pt x="74" y="477" on="0"/>
        <pt x="141" y="549" on="0"/>
        <pt x="246" y="584" on="0"/>
        <pt x="319" y="584" on="1"/>
        <pt x="343" y="584" on="0"/>
        <pt x="413" y="577" on="0"/>
        <pt x="445" y="570" on="1"/>
        <pt x="445" y="510" on="1"/>
        <pt x="410" y="517" on="0"/>
        <pt x="351" y="523" on="0"/>
        <pt x="326" y="523" on="1"/>
        <pt x="268" y="523" on="0"/>
        <pt x="188" y="498" on="0"/>
        <pt x="138" y="442" on="0"/>
        <pt x="116" y="352" on="0"/>
        <pt x="116" y="288" on="1"/>
        <pt x="116" y="162" on="0"/>
        <pt x="208" y="54" on="0"/>
        <pt x="313" y="54" on="1"/>
        <pt x="323" y="54" on="0"/>
        <pt x="362" y="56" on="0"/>
        <pt x="381" y="58" on="1"/>
        <pt x="381" y="293" on="1"/>
        <pt x="446" y="293" on="1"/>
        <pt x="446" y="5" on="1"/>
        <pt x="402" y="-2" on="0"/>
        <pt x="339" y="-8" on="0"/>
      </contour>
      <contour>
        <pt x="267" y="-53" on="1"/>
        <pt x="338" y="-53" on="1"/>
        <pt x="283" y="-172" on="1"/>
        <pt x="226" y="-172" on="1"/>
      </contour>
    </TTGlyph>
    <TTGlyph name="Gdotaccent" xMin="43" yMin="-10" xMax="501" yMax="893">
      <contour>
        <pt x="329" y="799" on="1"/>
        <pt x="282" y="799" on="0"/>
        <pt x="282" y="845" on="1"/>
        <pt x="282" y="871" on="0"/>
        <pt x="306" y="893" on="0"/>
        <pt x="329" y="893" on="1"/>
        <pt x="378" y="893" on="0"/>
        <pt x="378" y="845" on="1"/>
        <pt x="378" y="799" on="0"/>
      </contour>
      <contour>
        <pt x="348" y="-10" on="1"/>
        <pt x="268" y="-9" on="0"/>
        <pt x="153" y="36" on="0"/>
        <pt x="78" y="128" on="0"/>
        <pt x="43" y="271" on="0"/>
        <pt x="43" y="369" on="1"/>
        <pt x="43" y="469" on="0"/>
        <pt x="79" y="613" on="0"/>
        <pt x="156" y="705" on="0"/>
        <pt x="275" y="748" on="0"/>
        <pt x="359" y="748" on="1"/>
        <pt x="385" y="748" on="0"/>
        <pt x="464" y="740" on="0"/>
        <pt x="500" y="732" on="1"/>
        <pt x="500" y="668" on="1"/>
        <pt x="425" y="683" on="0"/>
        <pt x="366" y="683" on="1"/>
        <pt x="298" y="683" on="0"/>
        <pt x="205" y="650" on="0"/>
        <pt x="146" y="575" on="0"/>
        <pt x="120" y="455" on="0"/>
        <pt x="120" y="369" on="1"/>
        <pt x="120" y="285" on="0"/>
        <pt x="146" y="167" on="0"/>
        <pt x="203" y="91" on="0"/>
        <pt x="291" y="56" on="0"/>
        <pt x="353" y="56" on="1"/>
        <pt x="367" y="56" on="0"/>
        <pt x="409" y="59" on="0"/>
        <pt x="432" y="61" on="1"/>
        <pt x="432" y="376" on="1"/>
        <pt x="501" y="376" on="1"/>
        <pt x="501" y="4" on="1"/>
        <pt x="452" y="-4" on="0"/>
        <pt x="383" y="-10" on="0"/>
      </contour>
    </TTGlyph>
    <TTGlyph name="Gdotaccent.sc" xMin="42" yMin="-8" xMax="446" yMax="709">
      <contour>
        <pt x="307" y="-8" on="1"/>
        <pt x="169" y="-7" on="0"/>
        <pt x="42" y="136" on="0"/>
        <pt x="42" y="288" on="1"/>
        <pt x="42" y="365" on="0"/>
        <pt x="74" y="477" on="0"/>
        <pt x="141" y="549" on="0"/>
        <pt x="246" y="584" on="0"/>
        <pt x="319" y="584" on="1"/>
        <pt x="343" y="584" on="0"/>
        <pt x="413" y="577" on="0"/>
        <pt x="445" y="570" on="1"/>
        <pt x="445" y="510" on="1"/>
        <pt x="410" y="517" on="0"/>
        <pt x="351" y="523" on="0"/>
        <pt x="326" y="523" on="1"/>
        <pt x="268" y="523" on="0"/>
        <pt x="188" y="498" on="0"/>
        <pt x="138" y="442" on="0"/>
        <pt x="116" y="352" on="0"/>
        <pt x="116" y="288" on="1"/>
        <pt x="116" y="162" on="0"/>
        <pt x="208" y="54" on="0"/>
        <pt x="313" y="54" on="1"/>
        <pt x="323" y="54" on="0"/>
        <pt x="362" y="56" on="0"/>
        <pt x="381" y="58" on="1"/>
        <pt x="381" y="293" on="1"/>
        <pt x="446" y="293" on="1"/>
        <pt x="446" y="5" on="1"/>
        <pt x="402" y="-2" on="0"/>
        <pt x="339" y="-8" on="0"/>
      </contour>
      <contour>
        <pt x="292" y="623" on="1"/>
        <pt x="248" y="623" on="0"/>
        <pt x="248" y="667" on="1"/>
        <pt x="248" y="709" on="0"/>
        <pt x="292" y="709" on="1"/>
        <pt x="313" y="709" on="0"/>
        <pt x="338" y="689" on="0"/>
        <pt x="338" y="667" on="1"/>
        <pt x="338" y="644" on="0"/>
        <pt x="313" y="623" on="0"/>
      </contour>
    </TTGlyph>
    <TTGlyph name="H" xMin="74" yMin="0" xMax="550" yMax="740">
      <contour>
        <pt x="74" y="740" on="1"/>
        <pt x="147" y="740" on="1"/>
        <pt x="147" y="411" on="1"/>
        <pt x="476" y="411" on="1"/>
        <pt x="476" y="740" on="1"/>
        <pt x="550" y="740" on="1"/>
        <pt x="550" y="0" on="1"/>
        <pt x="476" y="0" on="1"/>
        <pt x="476" y="344" on="1"/>
        <pt x="147" y="344" on="1"/>
        <pt x="147" y="0" on="1"/>
        <pt x="74" y="0" on="1"/>
      </contour>
    </TTGlyph>
    <TTGlyph name="H.sc" xMin="70" yMin="0" xMax="494" yMax="577">
      <contour>
        <pt x="70" y="577" on="1"/>
        <pt x="141" y="577" on="1"/>
        <pt x="141" y="326" on="1"/>
        <pt x="423" y="326" on="1"/>
        <pt x="423" y="577" on="1"/>
        <pt x="494" y="577" on="1"/>
        <pt x="494" y="0" on="1"/>
        <pt x="423" y="0" on="1"/>
        <pt x="423" y="264" on="1"/>
        <pt x="141" y="264" on="1"/>
        <pt x="141" y="0" on="1"/>
        <pt x="70" y="0" on="1"/>
      </contour>
    </TTGlyph>
    <TTGlyph name="Hbar" xMin="0" yMin="0" xMax="659" yMax="740">
      <contour>
        <pt x="0" y="587" on="1"/>
        <pt x="91" y="587" on="1"/>
        <pt x="91" y="740" on="1"/>
        <pt x="164" y="740" on="1"/>
        <pt x="164" y="587" on="1"/>
        <pt x="493" y="587" on="1"/>
        <pt x="493" y="740" on="1"/>
        <pt x="567" y="740" on="1"/>
        <pt x="567" y="587" on="1"/>
        <pt x="659" y="587" on="1"/>
        <pt x="659" y="547" on="1"/>
        <pt x="567" y="547" on="1"/>
        <pt x="567" y="0" on="1"/>
        <pt x="493" y="0" on="1"/>
        <pt x="493" y="344" on="1"/>
        <pt x="164" y="344" on="1"/>
        <pt x="164" y="0" on="1"/>
        <pt x="91" y="0" on="1"/>
        <pt x="91" y="547" on="1"/>
        <pt x="0" y="547" on="1"/>
      </contour>
      <contour>
        <pt x="493" y="411" on="1"/>
        <pt x="493" y="547" on="1"/>
        <pt x="164" y="547" on="1"/>
        <pt x="164" y="411" on="1"/>
      </contour>
    </TTGlyph>
    <TTGlyph name="Hbar.sc" xMin="5" yMin="0" xMax="584" yMax="577">
      <contour>
        <pt x="5" y="463" on="1"/>
        <pt x="82" y="463" on="1"/>
        <pt x="82" y="577" on="1"/>
        <pt x="153" y="577" on="1"/>
        <pt x="153" y="463" on="1"/>
        <pt x="434" y="463" on="1"/>
        <pt x="434" y="577" on="1"/>
        <pt x="505" y="577" on="1"/>
        <pt x="505" y="463" on="1"/>
        <pt x="584" y="463" on="1"/>
        <pt x="584" y="425" on="1"/>
        <pt x="505" y="425" on="1"/>
        <pt x="505" y="0" on="1"/>
        <pt x="434" y="0" on="1"/>
        <pt x="434" y="264" on="1"/>
        <pt x="153" y="264" on="1"/>
        <pt x="153" y="0" on="1"/>
        <pt x="82" y="0" on="1"/>
        <pt x="82" y="425" on="1"/>
        <pt x="5" y="425" on="1"/>
      </contour>
      <contour>
        <pt x="434" y="326" on="1"/>
        <pt x="434" y="425" on="1"/>
        <pt x="153" y="425" on="1"/>
        <pt x="153" y="326" on="1"/>
      </contour>
    </TTGlyph>
    <TTGlyph name="Hcircumflex" xMin="74" yMin="0" xMax="550" yMax="944">
      <contour>
        <pt x="74" y="740" on="1"/>
        <pt x="147" y="740" on="1"/>
        <pt x="147" y="411" on="1"/>
        <pt x="476" y="411" on="1"/>
        <pt x="476" y="740" on="1"/>
        <pt x="550" y="740" on="1"/>
        <pt x="550" y="0" on="1"/>
        <pt x="476" y="0" on="1"/>
        <pt x="476" y="344" on="1"/>
        <pt x="147" y="344" on="1"/>
        <pt x="147" y="0" on="1"/>
        <pt x="74" y="0" on="1"/>
      </contour>
      <contour>
        <pt x="169" y="872" on="1"/>
        <pt x="302" y="944" on="1"/>
        <pt x="436" y="872" on="1"/>
        <pt x="436" y="811" on="1"/>
        <pt x="302" y="883" on="1"/>
        <pt x="169" y="811" on="1"/>
      </contour>
    </TTGlyph>
    <TTGlyph name="Hcircumflex.sc" xMin="70" yMin="0" xMax="494" yMax="741">
      <contour>
        <pt x="70" y="577" on="1"/>
        <pt x="141" y="577" on="1"/>
        <pt x="141" y="326" on="1"/>
        <pt x="423" y="326" on="1"/>
        <pt x="423" y="577" on="1"/>
        <pt x="494" y="577" on="1"/>
        <pt x="494" y="0" on="1"/>
        <pt x="423" y="0" on="1"/>
        <pt x="423" y="264" on="1"/>
        <pt x="141" y="264" on="1"/>
        <pt x="141" y="0" on="1"/>
        <pt x="70" y="0" on="1"/>
      </contour>
      <contour>
        <pt x="155" y="685" on="1"/>
        <pt x="275" y="741" on="1"/>
        <pt x="393" y="685" on="1"/>
        <pt x="393" y="630" on="1"/>
        <pt x="275" y="686" on="1"/>
        <pt x="155" y="630" on="1"/>
      </contour>
    </TTGlyph>
    <TTGlyph name="Hdotbelow" xMin="74" yMin="-175" xMax="550" yMax="740">
      <contour>
        <pt x="74" y="740" on="1"/>
        <pt x="147" y="740" on="1"/>
        <pt x="147" y="411" on="1"/>
        <pt x="476" y="411" on="1"/>
        <pt x="476" y="740" on="1"/>
        <pt x="550" y="740" on="1"/>
        <pt x="550" y="0" on="1"/>
        <pt x="476" y="0" on="1"/>
        <pt x="476" y="344" on="1"/>
        <pt x="147" y="344" on="1"/>
        <pt x="147" y="0" on="1"/>
        <pt x="74" y="0" on="1"/>
      </contour>
      <contour>
        <pt x="317" y="-175" on="1"/>
        <pt x="294" y="-175" on="0"/>
        <pt x="271" y="-154" on="0"/>
        <pt x="271" y="-129" on="1"/>
        <pt x="271" y="-105" on="0"/>
        <pt x="294" y="-84" on="0"/>
        <pt x="317" y="-84" on="1"/>
        <pt x="339" y="-84" on="0"/>
        <pt x="363" y="-105" on="0"/>
        <pt x="363" y="-129" on="1"/>
        <pt x="363" y="-154" on="0"/>
        <pt x="339" y="-175" on="0"/>
      </contour>
    </TTGlyph>
    <TTGlyph name="Hdotbelow.sc" xMin="70" yMin="-141" xMax="494" yMax="577">
      <contour>
        <pt x="70" y="577" on="1"/>
        <pt x="141" y="577" on="1"/>
        <pt x="141" y="326" on="1"/>
        <pt x="423" y="326" on="1"/>
        <pt x="423" y="577" on="1"/>
        <pt x="494" y="577" on="1"/>
        <pt x="494" y="0" on="1"/>
        <pt x="423" y="0" on="1"/>
        <pt x="423" y="264" on="1"/>
        <pt x="141" y="264" on="1"/>
        <pt x="141" y="0" on="1"/>
        <pt x="70" y="0" on="1"/>
      </contour>
      <contour>
        <pt x="287" y="-141" on="1"/>
        <pt x="266" y="-141" on="0"/>
        <pt x="245" y="-124" on="0"/>
        <pt x="245" y="-103" on="1"/>
        <pt x="245" y="-63" on="0"/>
        <pt x="287" y="-63" on="1"/>
        <pt x="328" y="-63" on="0"/>
        <pt x="328" y="-103" on="1"/>
        <pt x="328" y="-124" on="0"/>
        <pt x="307" y="-141" on="0"/>
      </contour>
    </TTGlyph>
    <TTGlyph name="I" xMin="74" yMin="0" xMax="147" yMax="740">
      <contour>
        <pt x="74" y="740" on="1"/>
        <pt x="147" y="740" on="1"/>
        <pt x="147" y="0" on="1"/>
        <pt x="74" y="0" on="1"/>
      </contour>
    </TTGlyph>
    <TTGlyph name="I.sc" xMin="70" yMin="0" xMax="141" yMax="577">
      <contour>
        <pt x="70" y="577" on="1"/>
        <pt x="141" y="577" on="1"/>
        <pt x="141" y="0" on="1"/>
        <pt x="70" y="0" on="1"/>
      </contour>
    </TTGlyph>
    <TTGlyph name="IJ" xMin="74" yMin="-185" xMax="370" yMax="740">
      <contour>
        <pt x="74" y="740" on="1"/>
        <pt x="147" y="740" on="1"/>
        <pt x="147" y="0" on="1"/>
        <pt x="74" y="0" on="1"/>
      </contour>
      <contour>
        <pt x="214" y="-159" on="1"/>
        <pt x="239" y="-105" on="0"/>
        <pt x="271" y="-22" on="0"/>
        <pt x="290" y="55" on="0"/>
        <pt x="297" y="134" on="0"/>
        <pt x="297" y="184" on="1"/>
        <pt x="297" y="740" on="1"/>
        <pt x="370" y="740" on="1"/>
        <pt x="370" y="180" on="1"/>
        <pt x="370" y="132" on="0"/>
        <pt x="358" y="43" on="0"/>
        <pt x="332" y="-46" on="0"/>
        <pt x="291" y="-137" on="0"/>
        <pt x="262" y="-185" on="1"/>
      </contour>
    </TTGlyph>
    <TTGlyph name="Iacute" xMin="74" yMin="0" xMax="232" yMax="929">
      <contour>
        <pt x="74" y="740" on="1"/>
        <pt x="147" y="740" on="1"/>
        <pt x="147" y="0" on="1"/>
        <pt x="74" y="0" on="1"/>
      </contour>
      <contour>
        <pt x="80" y="790" on="1"/>
        <pt x="155" y="929" on="1"/>
        <pt x="232" y="929" on="1"/>
        <pt x="138" y="786" on="1"/>
      </contour>
    </TTGlyph>
    <TTGlyph name="Iacute.sc" xMin="70" yMin="0" xMax="214" yMax="732">
      <contour>
        <pt x="70" y="577" on="1"/>
        <pt x="141" y="577" on="1"/>
        <pt x="141" y="0" on="1"/>
        <pt x="70" y="0" on="1"/>
      </contour>
      <contour>
        <pt x="76" y="618" on="1"/>
        <pt x="141" y="732" on="1"/>
        <pt x="214" y="732" on="1"/>
        <pt x="131" y="615" on="1"/>
      </contour>
    </TTGlyph>
    <TTGlyph name="Ibreve" xMin="-34" yMin="0" xMax="263" yMax="955">
      <contour>
        <pt x="74" y="740" on="1"/>
        <pt x="147" y="740" on="1"/>
        <pt x="147" y="0" on="1"/>
        <pt x="74" y="0" on="1"/>
      </contour>
      <contour>
        <pt x="115" y="809" on="1"/>
        <pt x="44" y="809" on="0"/>
        <pt x="-34" y="886" on="0"/>
        <pt x="-34" y="955" on="1"/>
        <pt x="23" y="955" on="1"/>
        <pt x="23" y="857" on="0"/>
        <pt x="115" y="857" on="1"/>
        <pt x="159" y="857" on="0"/>
        <pt x="206" y="906" on="0"/>
        <pt x="206" y="955" on="1"/>
        <pt x="263" y="955" on="1"/>
        <pt x="263" y="887" on="0"/>
        <pt x="185" y="809" on="0"/>
      </contour>
    </TTGlyph>
    <TTGlyph name="Ibreve.sc" xMin="-24" yMin="0" xMax="240" yMax="748">
      <contour>
        <pt x="70" y="577" on="1"/>
        <pt x="141" y="577" on="1"/>
        <pt x="141" y="0" on="1"/>
        <pt x="70" y="0" on="1"/>
      </contour>
      <contour>
        <pt x="109" y="629" on="1"/>
        <pt x="44" y="629" on="0"/>
        <pt x="-24" y="692" on="0"/>
        <pt x="-24" y="748" on="1"/>
        <pt x="29" y="748" on="1"/>
        <pt x="29" y="671" on="0"/>
        <pt x="109" y="671" on="1"/>
        <pt x="186" y="671" on="0"/>
        <pt x="186" y="748" on="1"/>
        <pt x="240" y="748" on="1"/>
        <pt x="240" y="692" on="0"/>
        <pt x="172" y="629" on="0"/>
      </contour>
    </TTGlyph>
    <TTGlyph name="Icircumflex" xMin="-20" yMin="0" xMax="247" yMax="944">
      <contour>
        <pt x="74" y="740" on="1"/>
        <pt x="147" y="740" on="1"/>
        <pt x="147" y="0" on="1"/>
        <pt x="74" y="0" on="1"/>
      </contour>
      <contour>
        <pt x="-20" y="872" on="1"/>
        <pt x="113" y="944" on="1"/>
        <pt x="247" y="872" on="1"/>
        <pt x="247" y="811" on="1"/>
        <pt x="113" y="883" on="1"/>
        <pt x="-20" y="811" on="1"/>
      </contour>
    </TTGlyph>
    <TTGlyph name="Icircumflex.sc" xMin="-11" yMin="0" xMax="226" yMax="741">
      <contour>
        <pt x="70" y="577" on="1"/>
        <pt x="141" y="577" on="1"/>
        <pt x="141" y="0" on="1"/>
        <pt x="70" y="0" on="1"/>
      </contour>
      <contour>
        <pt x="-11" y="685" on="1"/>
        <pt x="108" y="741" on="1"/>
        <pt x="226" y="685" on="1"/>
        <pt x="226" y="630" on="1"/>
        <pt x="108" y="686" on="1"/>
        <pt x="-11" y="630" on="1"/>
      </contour>
    </TTGlyph>
    <TTGlyph name="Idblgrave" xMin="-74" yMin="0" xMax="213" yMax="929">
      <contour>
        <pt x="74" y="740" on="1"/>
        <pt x="147" y="740" on="1"/>
        <pt x="147" y="0" on="1"/>
        <pt x="74" y="0" on="1"/>
      </contour>
      <contour>
        <pt x="20" y="786" on="1"/>
        <pt x="-74" y="929" on="1"/>
        <pt x="-7" y="929" on="1"/>
        <pt x="68" y="799" on="1"/>
      </contour>
      <contour>
        <pt x="165" y="786" on="1"/>
        <pt x="70" y="929" on="1"/>
        <pt x="138" y="929" on="1"/>
        <pt x="213" y="799" on="1"/>
      </contour>
    </TTGlyph>
    <TTGlyph name="Idblgrave.sc" xMin="-59" yMin="0" xMax="198" yMax="732">
      <contour>
        <pt x="70" y="577" on="1"/>
        <pt x="141" y="577" on="1"/>
        <pt x="141" y="0" on="1"/>
        <pt x="70" y="0" on="1"/>
      </contour>
      <contour>
        <pt x="25" y="614" on="1"/>
        <pt x="-59" y="732" on="1"/>
        <pt x="5" y="732" on="1"/>
        <pt x="70" y="624" on="1"/>
      </contour>
      <contour>
        <pt x="153" y="614" on="1"/>
        <pt x="69" y="732" on="1"/>
        <pt x="133" y="732" on="1"/>
        <pt x="198" y="624" on="1"/>
      </contour>
    </TTGlyph>
    <TTGlyph name="Idieresis" xMin="-30" yMin="0" xMax="257" yMax="904">
      <contour>
        <pt x="74" y="740" on="1"/>
        <pt x="147" y="740" on="1"/>
        <pt x="147" y="0" on="1"/>
        <pt x="74" y="0" on="1"/>
      </contour>
      <contour>
        <pt x="17" y="810" on="1"/>
        <pt x="-30" y="810" on="0"/>
        <pt x="-30" y="857" on="1"/>
        <pt x="-30" y="904" on="0"/>
        <pt x="17" y="904" on="1"/>
        <pt x="66" y="904" on="0"/>
        <pt x="66" y="857" on="1"/>
        <pt x="66" y="810" on="0"/>
      </contour>
      <contour>
        <pt x="209" y="810" on="1"/>
        <pt x="161" y="810" on="0"/>
        <pt x="161" y="857" on="1"/>
        <pt x="161" y="904" on="0"/>
        <pt x="209" y="904" on="1"/>
        <pt x="231" y="904" on="0"/>
        <pt x="257" y="882" on="0"/>
        <pt x="257" y="857" on="1"/>
        <pt x="257" y="832" on="0"/>
        <pt x="231" y="810" on="0"/>
      </contour>
    </TTGlyph>
    <TTGlyph name="Idieresis.sc" xMin="-23" yMin="0" xMax="239" yMax="716">
      <contour>
        <pt x="70" y="577" on="1"/>
        <pt x="141" y="577" on="1"/>
        <pt x="141" y="0" on="1"/>
        <pt x="70" y="0" on="1"/>
      </contour>
      <contour>
        <pt x="21" y="631" on="1"/>
        <pt x="-23" y="631" on="0"/>
        <pt x="-23" y="673" on="1"/>
        <pt x="-23" y="696" on="0"/>
        <pt x="0" y="716" on="0"/>
        <pt x="21" y="716" on="1"/>
        <pt x="66" y="716" on="0"/>
        <pt x="66" y="673" on="1"/>
        <pt x="66" y="631" on="0"/>
      </contour>
      <contour>
        <pt x="193" y="631" on="1"/>
        <pt x="149" y="631" on="0"/>
        <pt x="149" y="673" on="1"/>
        <pt x="149" y="696" on="0"/>
        <pt x="172" y="716" on="0"/>
        <pt x="193" y="716" on="1"/>
        <pt x="239" y="716" on="0"/>
        <pt x="239" y="673" on="1"/>
        <pt x="239" y="631" on="0"/>
      </contour>
    </TTGlyph>
    <TTGlyph name="Idotaccent" xMin="65" yMin="0" xMax="161" yMax="893">
      <contour>
        <pt x="74" y="740" on="1"/>
        <pt x="147" y="740" on="1"/>
        <pt x="147" y="0" on="1"/>
        <pt x="74" y="0" on="1"/>
      </contour>
      <contour>
        <pt x="112" y="799" on="1"/>
        <pt x="65" y="799" on="0"/>
        <pt x="65" y="845" on="1"/>
        <pt x="65" y="871" on="0"/>
        <pt x="89" y="893" on="0"/>
        <pt x="112" y="893" on="1"/>
        <pt x="161" y="893" on="0"/>
        <pt x="161" y="845" on="1"/>
        <pt x="161" y="799" on="0"/>
      </contour>
    </TTGlyph>
    <TTGlyph name="Idotaccent.sc" xMin="63" yMin="0" xMax="152" yMax="709">
      <contour>
        <pt x="70" y="577" on="1"/>
        <pt x="141" y="577" on="1"/>
        <pt x="141" y="0" on="1"/>
        <pt x="70" y="0" on="1"/>
      </contour>
      <contour>
        <pt x="107" y="623" on="1"/>
        <pt x="63" y="623" on="0"/>
        <pt x="63" y="667" on="1"/>
        <pt x="63" y="709" on="0"/>
        <pt x="107" y="709" on="1"/>
        <pt x="152" y="709" on="0"/>
        <pt x="152" y="667" on="1"/>
        <pt x="152" y="623" on="0"/>
      </contour>
    </TTGlyph>
    <TTGlyph name="Idotbelow" xMin="66" yMin="-175" xMax="158" yMax="740">
      <contour>
        <pt x="74" y="740" on="1"/>
        <pt x="147" y="740" on="1"/>
        <pt x="147" y="0" on="1"/>
        <pt x="74" y="0" on="1"/>
      </contour>
      <contour>
        <pt x="112" y="-175" on="1"/>
        <pt x="89" y="-175" on="0"/>
        <pt x="66" y="-154" on="0"/>
        <pt x="66" y="-129" on="1"/>
        <pt x="66" y="-105" on="0"/>
        <pt x="89" y="-84" on="0"/>
        <pt x="112" y="-84" on="1"/>
        <pt x="134" y="-84" on="0"/>
        <pt x="158" y="-105" on="0"/>
        <pt x="158" y="-129" on="1"/>
        <pt x="158" y="-154" on="0"/>
        <pt x="134" y="-175" on="0"/>
      </contour>
    </TTGlyph>
    <TTGlyph name="Idotbelow.sc" xMin="66" yMin="-141" xMax="150" yMax="577">
      <contour>
        <pt x="70" y="577" on="1"/>
        <pt x="141" y="577" on="1"/>
        <pt x="141" y="0" on="1"/>
        <pt x="70" y="0" on="1"/>
      </contour>
      <contour>
        <pt x="107" y="-141" on="1"/>
        <pt x="86" y="-141" on="0"/>
        <pt x="66" y="-124" on="0"/>
        <pt x="66" y="-103" on="1"/>
        <pt x="66" y="-63" on="0"/>
        <pt x="107" y="-63" on="1"/>
        <pt x="127" y="-63" on="0"/>
        <pt x="150" y="-82" on="0"/>
        <pt x="150" y="-103" on="1"/>
        <pt x="150" y="-124" on="0"/>
        <pt x="127" y="-141" on="0"/>
      </contour>
    </TTGlyph>
    <TTGlyph name="Igrave" xMin="-14" yMin="0" xMax="147" yMax="929">
      <contour>
        <pt x="74" y="740" on="1"/>
        <pt x="147" y="740" on="1"/>
        <pt x="147" y="0" on="1"/>
        <pt x="74" y="0" on="1"/>
      </contour>
      <contour>
        <pt x="80" y="786" on="1"/>
        <pt x="-14" y="929" on="1"/>
        <pt x="63" y="929" on="1"/>
        <pt x="138" y="799" on="1"/>
      </contour>
    </TTGlyph>
    <TTGlyph name="Igrave.sc" xMin="-6" yMin="0" xMax="142" yMax="732">
      <contour>
        <pt x="70" y="577" on="1"/>
        <pt x="142" y="577" on="1"/>
        <pt x="142" y="0" on="1"/>
        <pt x="70" y="0" on="1"/>
      </contour>
      <contour>
        <pt x="77" y="615" on="1"/>
        <pt x="-6" y="732" on="1"/>
        <pt x="68" y="732" on="1"/>
        <pt x="132" y="624" on="1"/>
      </contour>
    </TTGlyph>
    <TTGlyph name="Iinvertedbreve" xMin="-35" yMin="0" xMax="262" yMax="965">
      <contour>
        <pt x="74" y="740" on="1"/>
        <pt x="147" y="740" on="1"/>
        <pt x="147" y="0" on="1"/>
        <pt x="74" y="0" on="1"/>
      </contour>
      <contour>
        <pt x="205" y="819" on="1"/>
        <pt x="205" y="869" on="0"/>
        <pt x="158" y="918" on="0"/>
        <pt x="114" y="918" on="1"/>
        <pt x="22" y="918" on="0"/>
        <pt x="22" y="819" on="1"/>
        <pt x="-35" y="819" on="1"/>
        <pt x="-35" y="888" on="0"/>
        <pt x="43" y="965" on="0"/>
        <pt x="114" y="965" on="1"/>
        <pt x="184" y="965" on="0"/>
        <pt x="262" y="888" on="0"/>
        <pt x="262" y="819" on="1"/>
      </contour>
    </TTGlyph>
    <TTGlyph name="Iinvertedbreve.sc" xMin="-24" yMin="0" xMax="240" yMax="755">
      <contour>
        <pt x="70" y="577" on="1"/>
        <pt x="141" y="577" on="1"/>
        <pt x="141" y="0" on="1"/>
        <pt x="70" y="0" on="1"/>
      </contour>
      <contour>
        <pt x="186" y="637" on="1"/>
        <pt x="186" y="714" on="0"/>
        <pt x="108" y="714" on="1"/>
        <pt x="29" y="714" on="0"/>
        <pt x="29" y="637" on="1"/>
        <pt x="-24" y="637" on="1"/>
        <pt x="-24" y="692" on="0"/>
        <pt x="44" y="755" on="0"/>
        <pt x="108" y="755" on="1"/>
        <pt x="171" y="755" on="0"/>
        <pt x="240" y="692" on="0"/>
        <pt x="240" y="637" on="1"/>
      </contour>
    </TTGlyph>
    <TTGlyph name="Imacron" xMin="-16" yMin="0" xMax="226" yMax="897">
      <contour>
        <pt x="74" y="740" on="1"/>
        <pt x="147" y="740" on="1"/>
        <pt x="147" y="0" on="1"/>
        <pt x="74" y="0" on="1"/>
      </contour>
      <contour>
        <pt x="-16" y="897" on="1"/>
        <pt x="226" y="897" on="1"/>
        <pt x="226" y="840" on="1"/>
        <pt x="-16" y="840" on="1"/>
      </contour>
    </TTGlyph>
    <TTGlyph name="Imacron.sc" xMin="-8" yMin="0" xMax="211" yMax="707">
      <contour>
        <pt x="70" y="577" on="1"/>
        <pt x="141" y="577" on="1"/>
        <pt x="141" y="0" on="1"/>
        <pt x="70" y="0" on="1"/>
      </contour>
      <contour>
        <pt x="-8" y="707" on="1"/>
        <pt x="211" y="707" on="1"/>
        <pt x="211" y="655" on="1"/>
        <pt x="-8" y="655" on="1"/>
      </contour>
    </TTGlyph>
    <TTGlyph name="Iogonek" xMin="-3" yMin="-220" xMax="147" yMax="740">
      <contour>
        <pt x="74" y="740" on="1"/>
        <pt x="147" y="740" on="1"/>
        <pt x="147" y="-16" on="1"/>
        <pt x="99" y="-36" on="0"/>
        <pt x="53" y="-95" on="0"/>
        <pt x="53" y="-127" on="1"/>
        <pt x="53" y="-168" on="0"/>
        <pt x="98" y="-168" on="1"/>
        <pt x="123" y="-168" on="0"/>
        <pt x="147" y="-157" on="1"/>
        <pt x="147" y="-208" on="1"/>
        <pt x="118" y="-220" on="0"/>
        <pt x="90" y="-220" on="1"/>
        <pt x="45" y="-220" on="0"/>
        <pt x="-3" y="-175" on="0"/>
        <pt x="-3" y="-132" on="1"/>
        <pt x="-3" y="-57" on="0"/>
        <pt x="86" y="0" on="1"/>
        <pt x="74" y="0" on="1"/>
      </contour>
    </TTGlyph>
    <TTGlyph name="Iogonek.sc" xMin="6" yMin="-172" xMax="141" yMax="577">
      <contour>
        <pt x="70" y="577" on="1"/>
        <pt x="141" y="577" on="1"/>
        <pt x="141" y="-11" on="1"/>
        <pt x="99" y="-26" on="0"/>
        <pt x="58" y="-73" on="0"/>
        <pt x="58" y="-96" on="1"/>
        <pt x="58" y="-125" on="0"/>
        <pt x="96" y="-125" on="1"/>
        <pt x="120" y="-125" on="0"/>
        <pt x="141" y="-117" on="1"/>
        <pt x="141" y="-162" on="1"/>
        <pt x="128" y="-167" on="0"/>
        <pt x="104" y="-172" on="0"/>
        <pt x="90" y="-172" on="1"/>
        <pt x="49" y="-172" on="0"/>
        <pt x="6" y="-136" on="0"/>
        <pt x="6" y="-102" on="1"/>
        <pt x="6" y="-46" on="0"/>
        <pt x="82" y="0" on="1"/>
        <pt x="70" y="0" on="1"/>
      </contour>
    </TTGlyph>
    <TTGlyph name="Itilde" xMin="-40" yMin="0" xMax="273" yMax="916">
      <contour>
        <pt x="74" y="740" on="1"/>
        <pt x="147" y="740" on="1"/>
        <pt x="147" y="0" on="1"/>
        <pt x="74" y="0" on="1"/>
      </contour>
      <contour>
        <pt x="-40" y="846" on="1"/>
        <pt x="-22" y="875" on="0"/>
        <pt x="33" y="916" on="0"/>
        <pt x="60" y="916" on="1"/>
        <pt x="79" y="916" on="0"/>
        <pt x="111" y="903" on="0"/>
        <pt x="141" y="886" on="0"/>
        <pt x="172" y="873" on="0"/>
        <pt x="189" y="873" on="1"/>
        <pt x="205" y="873" on="0"/>
        <pt x="234" y="894" on="0"/>
        <pt x="246" y="913" on="1"/>
        <pt x="273" y="893" on="1"/>
        <pt x="258" y="858" on="0"/>
        <pt x="204" y="820" on="0"/>
        <pt x="176" y="820" on="1"/>
        <pt x="157" y="820" on="0"/>
        <pt x="125" y="833" on="0"/>
        <pt x="95" y="848" on="0"/>
        <pt x="65" y="861" on="0"/>
        <pt x="48" y="861" on="1"/>
        <pt x="31" y="861" on="0"/>
        <pt x="-3" y="840" on="0"/>
        <pt x="-17" y="823" on="1"/>
      </contour>
    </TTGlyph>
    <TTGlyph name="Itilde.sc" xMin="-29" yMin="0" xMax="251" yMax="721">
      <contour>
        <pt x="70" y="577" on="1"/>
        <pt x="141" y="577" on="1"/>
        <pt x="141" y="0" on="1"/>
        <pt x="70" y="0" on="1"/>
      </contour>
      <contour>
        <pt x="-29" y="660" on="1"/>
        <pt x="-12" y="687" on="0"/>
        <pt x="36" y="721" on="0"/>
        <pt x="61" y="721" on="1"/>
        <pt x="78" y="721" on="0"/>
        <pt x="106" y="711" on="0"/>
        <pt x="133" y="699" on="0"/>
        <pt x="161" y="689" on="0"/>
        <pt x="176" y="689" on="1"/>
        <pt x="207" y="689" on="0"/>
        <pt x="229" y="720" on="1"/>
        <pt x="251" y="703" on="1"/>
        <pt x="236" y="672" on="0"/>
        <pt x="188" y="639" on="0"/>
        <pt x="163" y="639" on="1"/>
        <pt x="146" y="639" on="0"/>
        <pt x="118" y="649" on="0"/>
        <pt x="91" y="662" on="0"/>
        <pt x="63" y="672" on="0"/>
        <pt x="48" y="672" on="1"/>
        <pt x="34" y="672" on="0"/>
        <pt x="4" y="655" on="0"/>
        <pt x="-9" y="641" on="1"/>
      </contour>
    </TTGlyph>
    <TTGlyph name="J" xMin="-7" yMin="-185" xMax="149" yMax="740">
      <contour>
        <pt x="-7" y="-159" on="1"/>
        <pt x="18" y="-105" on="0"/>
        <pt x="50" y="-22" on="0"/>
        <pt x="69" y="55" on="0"/>
        <pt x="76" y="134" on="0"/>
        <pt x="76" y="184" on="1"/>
        <pt x="76" y="740" on="1"/>
        <pt x="149" y="740" on="1"/>
        <pt x="149" y="180" on="1"/>
        <pt x="149" y="132" on="0"/>
        <pt x="137" y="43" on="0"/>
        <pt x="111" y="-46" on="0"/>
        <pt x="70" y="-137" on="0"/>
        <pt x="41" y="-185" on="1"/>
      </contour>
    </TTGlyph>
    <TTGlyph name="J.sc" xMin="1" yMin="-147" xMax="143" yMax="577">
      <contour>
        <pt x="1" y="-124" on="1"/>
        <pt x="22" y="-83" on="0"/>
        <pt x="50" y="-18" on="0"/>
        <pt x="66" y="43" on="0"/>
        <pt x="72" y="106" on="0"/>
        <pt x="72" y="145" on="1"/>
        <pt x="72" y="577" on="1"/>
        <pt x="143" y="577" on="1"/>
        <pt x="143" y="140" on="1"/>
        <pt x="143" y="65" on="0"/>
        <pt x="99" y="-69" on="0"/>
        <pt x="48" y="-147" on="1"/>
      </contour>
    </TTGlyph>
    <TTGlyph name="Jcircumflex" xMin="-23" yMin="-185" xMax="244" yMax="944">
      <contour>
        <pt x="-7" y="-159" on="1"/>
        <pt x="18" y="-105" on="0"/>
        <pt x="50" y="-22" on="0"/>
        <pt x="69" y="55" on="0"/>
        <pt x="76" y="134" on="0"/>
        <pt x="76" y="184" on="1"/>
        <pt x="76" y="740" on="1"/>
        <pt x="149" y="740" on="1"/>
        <pt x="149" y="180" on="1"/>
        <pt x="149" y="132" on="0"/>
        <pt x="137" y="43" on="0"/>
        <pt x="111" y="-46" on="0"/>
        <pt x="70" y="-137" on="0"/>
        <pt x="41" y="-185" on="1"/>
      </contour>
      <contour>
        <pt x="-23" y="872" on="1"/>
        <pt x="110" y="944" on="1"/>
        <pt x="244" y="872" on="1"/>
        <pt x="244" y="811" on="1"/>
        <pt x="110" y="883" on="1"/>
        <pt x="-23" y="811" on="1"/>
      </contour>
    </TTGlyph>
    <TTGlyph name="Jcircumflex.sc" xMin="-13" yMin="-147" xMax="225" yMax="741">
      <contour>
        <pt x="2" y="-124" on="1"/>
        <pt x="23" y="-83" on="0"/>
        <pt x="50" y="-18" on="0"/>
        <pt x="66" y="43" on="0"/>
        <pt x="72" y="106" on="0"/>
        <pt x="72" y="145" on="1"/>
        <pt x="72" y="577" on="1"/>
        <pt x="143" y="577" on="1"/>
        <pt x="143" y="140" on="1"/>
        <pt x="143" y="65" on="0"/>
        <pt x="99" y="-69" on="0"/>
        <pt x="48" y="-147" on="1"/>
      </contour>
      <contour>
        <pt x="-13" y="685" on="1"/>
        <pt x="106" y="741" on="1"/>
        <pt x="225" y="685" on="1"/>
        <pt x="225" y="630" on="1"/>
        <pt x="106" y="686" on="1"/>
        <pt x="-13" y="630" on="1"/>
      </contour>
    </TTGlyph>
    <TTGlyph name="K" xMin="74" yMin="0" xMax="560" yMax="740">
      <contour>
        <pt x="74" y="740" on="1"/>
        <pt x="147" y="740" on="1"/>
        <pt x="147" y="410" on="1"/>
        <pt x="231" y="410" on="1"/>
        <pt x="454" y="740" on="1"/>
        <pt x="540" y="740" on="1"/>
        <pt x="315" y="406" on="1"/>
        <pt x="283" y="380" on="1"/>
        <pt x="283" y="375" on="1"/>
        <pt x="317" y="351" on="1"/>
        <pt x="560" y="0" on="1"/>
        <pt x="475" y="0" on="1"/>
        <pt x="235" y="343" on="1"/>
        <pt x="147" y="343" on="1"/>
        <pt x="147" y="0" on="1"/>
        <pt x="74" y="0" on="1"/>
      </contour>
    </TTGlyph>
    <TTGlyph name="K.sc" xMin="70" yMin="0" xMax="500" yMax="577">
      <contour>
        <pt x="70" y="577" on="1"/>
        <pt x="141" y="577" on="1"/>
        <pt x="141" y="325" on="1"/>
        <pt x="216" y="325" on="1"/>
        <pt x="401" y="577" on="1"/>
        <pt x="484" y="577" on="1"/>
        <pt x="295" y="317" on="1"/>
        <pt x="261" y="296" on="1"/>
        <pt x="261" y="292" on="1"/>
        <pt x="296" y="273" on="1"/>
        <pt x="500" y="0" on="1"/>
        <pt x="420" y="0" on="1"/>
        <pt x="218" y="263" on="1"/>
        <pt x="141" y="263" on="1"/>
        <pt x="141" y="0" on="1"/>
        <pt x="70" y="0" on="1"/>
      </contour>
    </TTGlyph>
    <TTGlyph name="Kcommaaccent" xMin="74" yMin="-220" xMax="560" yMax="740">
      <contour>
        <pt x="256" y="-67" on="1"/>
        <pt x="331" y="-67" on="1"/>
        <pt x="268" y="-220" on="1"/>
        <pt x="207" y="-220" on="1"/>
      </contour>
      <contour>
        <pt x="74" y="740" on="1"/>
        <pt x="147" y="740" on="1"/>
        <pt x="147" y="410" on="1"/>
        <pt x="231" y="410" on="1"/>
        <pt x="454" y="740" on="1"/>
        <pt x="540" y="740" on="1"/>
        <pt x="315" y="406" on="1"/>
        <pt x="283" y="380" on="1"/>
        <pt x="283" y="375" on="1"/>
        <pt x="317" y="351" on="1"/>
        <pt x="560" y="0" on="1"/>
        <pt x="475" y="0" on="1"/>
        <pt x="235" y="343" on="1"/>
        <pt x="147" y="343" on="1"/>
        <pt x="147" y="0" on="1"/>
        <pt x="74" y="0" on="1"/>
      </contour>
    </TTGlyph>
    <TTGlyph name="Kcommaaccent.sc" xMin="70" yMin="-172" xMax="500" yMax="577">
      <contour>
        <pt x="70" y="577" on="1"/>
        <pt x="141" y="577" on="1"/>
        <pt x="141" y="325" on="1"/>
        <pt x="216" y="325" on="1"/>
        <pt x="401" y="577" on="1"/>
        <pt x="484" y="577" on="1"/>
        <pt x="295" y="317" on="1"/>
        <pt x="261" y="296" on="1"/>
        <pt x="261" y="292" on="1"/>
        <pt x="296" y="273" on="1"/>
        <pt x="500" y="0" on="1"/>
        <pt x="420" y="0" on="1"/>
        <pt x="218" y="263" on="1"/>
        <pt x="141" y="263" on="1"/>
        <pt x="141" y="0" on="1"/>
        <pt x="70" y="0" on="1"/>
      </contour>
      <contour>
        <pt x="229" y="-53" on="1"/>
        <pt x="301" y="-53" on="1"/>
        <pt x="245" y="-172" on="1"/>
        <pt x="187" y="-172" on="1"/>
      </contour>
    </TTGlyph>
    <TTGlyph name="L" xMin="74" yMin="0" xMax="397" yMax="740">
      <contour>
        <pt x="74" y="740" on="1"/>
        <pt x="147" y="740" on="1"/>
        <pt x="147" y="66" on="1"/>
        <pt x="397" y="66" on="1"/>
        <pt x="397" y="0" on="1"/>
        <pt x="74" y="0" on="1"/>
      </contour>
    </TTGlyph>
    <TTGlyph name="L.sc" xMin="70" yMin="0" xMax="361" yMax="577">
      <contour>
        <pt x="70" y="577" on="1"/>
        <pt x="141" y="577" on="1"/>
        <pt x="141" y="62" on="1"/>
        <pt x="361" y="62" on="1"/>
        <pt x="361" y="0" on="1"/>
        <pt x="70" y="0" on="1"/>
      </contour>
    </TTGlyph>
    <TTGlyph name="Lacute" xMin="74" yMin="0" xMax="397" yMax="929">
      <contour>
        <pt x="91" y="790" on="1"/>
        <pt x="166" y="929" on="1"/>
        <pt x="243" y="929" on="1"/>
        <pt x="149" y="786" on="1"/>
      </contour>
      <contour>
        <pt x="74" y="740" on="1"/>
        <pt x="147" y="740" on="1"/>
        <pt x="147" y="66" on="1"/>
        <pt x="397" y="66" on="1"/>
        <pt x="397" y="0" on="1"/>
        <pt x="74" y="0" on="1"/>
      </contour>
    </TTGlyph>
    <TTGlyph name="Lacute.sc" xMin="70" yMin="0" xMax="361" yMax="732">
      <contour>
        <pt x="70" y="577" on="1"/>
        <pt x="141" y="577" on="1"/>
        <pt x="141" y="62" on="1"/>
        <pt x="361" y="62" on="1"/>
        <pt x="361" y="0" on="1"/>
        <pt x="70" y="0" on="1"/>
      </contour>
      <contour>
        <pt x="85" y="618" on="1"/>
        <pt x="149" y="732" on="1"/>
        <pt x="223" y="732" on="1"/>
        <pt x="139" y="615" on="1"/>
      </contour>
    </TTGlyph>
    <TTGlyph name="Lcaron" xMin="74" yMin="0" xMax="397" yMax="757">
      <contour>
        <pt x="323" y="757" on="1"/>
        <pt x="386" y="757" on="1"/>
        <pt x="359" y="529" on="1"/>
        <pt x="323" y="529" on="1"/>
      </contour>
      <contour>
        <pt x="74" y="740" on="1"/>
        <pt x="147" y="740" on="1"/>
        <pt x="147" y="66" on="1"/>
        <pt x="397" y="66" on="1"/>
        <pt x="397" y="0" on="1"/>
        <pt x="74" y="0" on="1"/>
      </contour>
    </TTGlyph>
    <TTGlyph name="Lcaron.sc" xMin="70" yMin="0" xMax="361" yMax="596">
      <contour>
        <pt x="70" y="577" on="1"/>
        <pt x="141" y="577" on="1"/>
        <pt x="141" y="62" on="1"/>
        <pt x="361" y="62" on="1"/>
        <pt x="361" y="0" on="1"/>
        <pt x="70" y="0" on="1"/>
      </contour>
      <contour>
        <pt x="294" y="596" on="1"/>
        <pt x="353" y="596" on="1"/>
        <pt x="329" y="419" on="1"/>
        <pt x="294" y="419" on="1"/>
      </contour>
    </TTGlyph>
    <TTGlyph name="Lcommaaccent" xMin="74" yMin="-220" xMax="397" yMax="740">
      <contour>
        <pt x="210" y="-67" on="1"/>
        <pt x="285" y="-67" on="1"/>
        <pt x="222" y="-220" on="1"/>
        <pt x="161" y="-220" on="1"/>
      </contour>
      <contour>
        <pt x="74" y="740" on="1"/>
        <pt x="147" y="740" on="1"/>
        <pt x="147" y="66" on="1"/>
        <pt x="397" y="66" on="1"/>
        <pt x="397" y="0" on="1"/>
        <pt x="74" y="0" on="1"/>
      </contour>
    </TTGlyph>
    <TTGlyph name="Lcommaaccent.sc" xMin="70" yMin="-172" xMax="361" yMax="577">
      <contour>
        <pt x="70" y="577" on="1"/>
        <pt x="141" y="577" on="1"/>
        <pt x="141" y="62" on="1"/>
        <pt x="361" y="62" on="1"/>
        <pt x="361" y="0" on="1"/>
        <pt x="70" y="0" on="1"/>
      </contour>
      <contour>
        <pt x="188" y="-53" on="1"/>
        <pt x="260" y="-53" on="1"/>
        <pt x="205" y="-172" on="1"/>
        <pt x="147" y="-172" on="1"/>
      </contour>
    </TTGlyph>
    <TTGlyph name="Ldot" xMin="74" yMin="0" xMax="397" yMax="740">
      <contour>
        <pt x="74" y="740" on="1"/>
        <pt x="147" y="740" on="1"/>
        <pt x="147" y="66" on="1"/>
        <pt x="397" y="66" on="1"/>
        <pt x="397" y="0" on="1"/>
        <pt x="74" y="0" on="1"/>
      </contour>
      <contour>
        <pt x="312" y="323" on="1"/>
        <pt x="265" y="323" on="0"/>
        <pt x="265" y="370" on="1"/>
        <pt x="265" y="417" on="0"/>
        <pt x="312" y="417" on="1"/>
        <pt x="335" y="417" on="0"/>
        <pt x="360" y="394" on="0"/>
        <pt x="360" y="370" on="1"/>
        <pt x="360" y="346" on="0"/>
        <pt x="335" y="323" on="0"/>
      </contour>
    </TTGlyph>
    <TTGlyph name="Ldot.sc" xMin="70" yMin="0" xMax="361" yMax="577">
      <contour>
        <pt x="70" y="577" on="1"/>
        <pt x="141" y="577" on="1"/>
        <pt x="141" y="62" on="1"/>
        <pt x="361" y="62" on="1"/>
        <pt x="361" y="0" on="1"/>
        <pt x="70" y="0" on="1"/>
      </contour>
      <contour>
        <pt x="288" y="246" on="1"/>
        <pt x="245" y="246" on="0"/>
        <pt x="245" y="290" on="1"/>
        <pt x="245" y="332" on="0"/>
        <pt x="288" y="332" on="1"/>
        <pt x="309" y="332" on="0"/>
        <pt x="334" y="312" on="0"/>
        <pt x="334" y="290" on="1"/>
        <pt x="334" y="267" on="0"/>
        <pt x="309" y="246" on="0"/>
      </contour>
    </TTGlyph>
    <TTGlyph name="Lslash" xMin="11" yMin="0" xMax="420" yMax="740">
      <contour>
        <pt x="11" y="291" on="1"/>
        <pt x="97" y="362" on="1"/>
        <pt x="97" y="740" on="1"/>
        <pt x="170" y="740" on="1"/>
        <pt x="170" y="422" on="1"/>
        <pt x="269" y="504" on="1"/>
        <pt x="269" y="435" on="1"/>
        <pt x="170" y="353" on="1"/>
        <pt x="170" y="66" on="1"/>
        <pt x="420" y="66" on="1"/>
        <pt x="420" y="0" on="1"/>
        <pt x="97" y="0" on="1"/>
        <pt x="97" y="293" on="1"/>
        <pt x="11" y="222" on="1"/>
      </contour>
    </TTGlyph>
    <TTGlyph name="Lslash.sc" xMin="18" yMin="0" xMax="380" yMax="577">
      <contour>
        <pt x="18" y="235" on="1"/>
        <pt x="90" y="292" on="1"/>
        <pt x="90" y="577" on="1"/>
        <pt x="161" y="577" on="1"/>
        <pt x="161" y="333" on="1"/>
        <pt x="249" y="399" on="1"/>
        <pt x="249" y="337" on="1"/>
        <pt x="161" y="271" on="1"/>
        <pt x="161" y="62" on="1"/>
        <pt x="380" y="62" on="1"/>
        <pt x="380" y="0" on="1"/>
        <pt x="90" y="0" on="1"/>
        <pt x="90" y="229" on="1"/>
        <pt x="18" y="174" on="1"/>
      </contour>
    </TTGlyph>
    <TTGlyph name="M" xMin="74" yMin="0" xMax="720" yMax="740">
      <contour>
        <pt x="74" y="740" on="1"/>
        <pt x="174" y="740" on="1"/>
        <pt x="364" y="223" on="1"/>
        <pt x="394" y="122" on="1"/>
        <pt x="399" y="122" on="1"/>
        <pt x="430" y="223" on="1"/>
        <pt x="620" y="740" on="1"/>
        <pt x="720" y="740" on="1"/>
        <pt x="720" y="0" on="1"/>
        <pt x="649" y="0" on="1"/>
        <pt x="649" y="618" on="1"/>
        <pt x="644" y="618" on="1"/>
        <pt x="610" y="514" on="1"/>
        <pt x="433" y="33" on="1"/>
        <pt x="359" y="33" on="1"/>
        <pt x="182" y="514" on="1"/>
        <pt x="148" y="618" on="1"/>
        <pt x="143" y="618" on="1"/>
        <pt x="143" y="0" on="1"/>
        <pt x="74" y="0" on="1"/>
      </contour>
    </TTGlyph>
    <TTGlyph name="M.sc" xMin="70" yMin="0" xMax="642" yMax="577">
      <contour>
        <pt x="70" y="577" on="1"/>
        <pt x="166" y="577" on="1"/>
        <pt x="327" y="188" on="1"/>
        <pt x="353" y="112" on="1"/>
        <pt x="359" y="112" on="1"/>
        <pt x="384" y="188" on="1"/>
        <pt x="546" y="577" on="1"/>
        <pt x="642" y="577" on="1"/>
        <pt x="642" y="0" on="1"/>
        <pt x="575" y="0" on="1"/>
        <pt x="575" y="474" on="1"/>
        <pt x="570" y="474" on="1"/>
        <pt x="536" y="382" on="1"/>
        <pt x="390" y="27" on="1"/>
        <pt x="322" y="27" on="1"/>
        <pt x="176" y="382" on="1"/>
        <pt x="141" y="474" on="1"/>
        <pt x="138" y="474" on="1"/>
        <pt x="138" y="0" on="1"/>
        <pt x="70" y="0" on="1"/>
      </contour>
    </TTGlyph>
    <TTGlyph name="N" xMin="74" yMin="0" xMax="579" yMax="740">
      <contour>
        <pt x="74" y="740" on="1"/>
        <pt x="143" y="740" on="1"/>
        <pt x="461" y="214" on="1"/>
        <pt x="504" y="130" on="1"/>
        <pt x="510" y="131" on="1"/>
        <pt x="510" y="740" on="1"/>
        <pt x="579" y="740" on="1"/>
        <pt x="579" y="0" on="1"/>
        <pt x="508" y="0" on="1"/>
        <pt x="193" y="523" on="1"/>
        <pt x="148" y="610" on="1"/>
        <pt x="142" y="609" on="1"/>
        <pt x="142" y="0" on="1"/>
        <pt x="74" y="0" on="1"/>
      </contour>
    </TTGlyph>
    <TTGlyph name="N.sc" xMin="70" yMin="0" xMax="516" yMax="577">
      <contour>
        <pt x="70" y="577" on="1"/>
        <pt x="135" y="577" on="1"/>
        <pt x="405" y="183" on="1"/>
        <pt x="446" y="117" on="1"/>
        <pt x="451" y="118" on="1"/>
        <pt x="451" y="577" on="1"/>
        <pt x="516" y="577" on="1"/>
        <pt x="516" y="0" on="1"/>
        <pt x="451" y="0" on="1"/>
        <pt x="183" y="393" on="1"/>
        <pt x="141" y="460" on="1"/>
        <pt x="135" y="460" on="1"/>
        <pt x="135" y="0" on="1"/>
        <pt x="70" y="0" on="1"/>
      </contour>
    </TTGlyph>
    <TTGlyph name="Nacute" xMin="74" yMin="0" xMax="579" yMax="929">
      <contour>
        <pt x="296" y="790" on="1"/>
        <pt x="371" y="929" on="1"/>
        <pt x="448" y="929" on="1"/>
        <pt x="354" y="786" on="1"/>
      </contour>
      <contour>
        <pt x="74" y="740" on="1"/>
        <pt x="143" y="740" on="1"/>
        <pt x="461" y="214" on="1"/>
        <pt x="504" y="130" on="1"/>
        <pt x="510" y="131" on="1"/>
        <pt x="510" y="740" on="1"/>
        <pt x="579" y="740" on="1"/>
        <pt x="579" y="0" on="1"/>
        <pt x="508" y="0" on="1"/>
        <pt x="193" y="523" on="1"/>
        <pt x="148" y="610" on="1"/>
        <pt x="142" y="609" on="1"/>
        <pt x="142" y="0" on="1"/>
        <pt x="74" y="0" on="1"/>
      </contour>
    </TTGlyph>
    <TTGlyph name="Nacute.sc" xMin="70" yMin="0" xMax="516" yMax="732">
      <contour>
        <pt x="70" y="577" on="1"/>
        <pt x="135" y="577" on="1"/>
        <pt x="405" y="183" on="1"/>
        <pt x="446" y="117" on="1"/>
        <pt x="451" y="118" on="1"/>
        <pt x="451" y="577" on="1"/>
        <pt x="516" y="577" on="1"/>
        <pt x="516" y="0" on="1"/>
        <pt x="451" y="0" on="1"/>
        <pt x="183" y="393" on="1"/>
        <pt x="141" y="460" on="1"/>
        <pt x="135" y="460" on="1"/>
        <pt x="135" y="0" on="1"/>
        <pt x="70" y="0" on="1"/>
      </contour>
      <contour>
        <pt x="263" y="618" on="1"/>
        <pt x="327" y="732" on="1"/>
        <pt x="400" y="732" on="1"/>
        <pt x="317" y="615" on="1"/>
      </contour>
    </TTGlyph>
    <TTGlyph name="Ncaron" xMin="74" yMin="0" xMax="579" yMax="929">
      <contour>
        <pt x="200" y="929" on="1"/>
        <pt x="333" y="857" on="1"/>
        <pt x="467" y="929" on="1"/>
        <pt x="467" y="868" on="1"/>
        <pt x="333" y="796" on="1"/>
        <pt x="200" y="868" on="1"/>
      </contour>
      <contour>
        <pt x="74" y="740" on="1"/>
        <pt x="143" y="740" on="1"/>
        <pt x="461" y="214" on="1"/>
        <pt x="504" y="130" on="1"/>
        <pt x="510" y="131" on="1"/>
        <pt x="510" y="740" on="1"/>
        <pt x="579" y="740" on="1"/>
        <pt x="579" y="0" on="1"/>
        <pt x="508" y="0" on="1"/>
        <pt x="193" y="523" on="1"/>
        <pt x="148" y="610" on="1"/>
        <pt x="142" y="609" on="1"/>
        <pt x="142" y="0" on="1"/>
        <pt x="74" y="0" on="1"/>
      </contour>
    </TTGlyph>
    <TTGlyph name="Ncaron.sc" xMin="70" yMin="0" xMax="516" yMax="732">
      <contour>
        <pt x="70" y="577" on="1"/>
        <pt x="135" y="577" on="1"/>
        <pt x="405" y="183" on="1"/>
        <pt x="446" y="117" on="1"/>
        <pt x="451" y="118" on="1"/>
        <pt x="451" y="577" on="1"/>
        <pt x="516" y="577" on="1"/>
        <pt x="516" y="0" on="1"/>
        <pt x="451" y="0" on="1"/>
        <pt x="183" y="393" on="1"/>
        <pt x="141" y="460" on="1"/>
        <pt x="135" y="460" on="1"/>
        <pt x="135" y="0" on="1"/>
        <pt x="70" y="0" on="1"/>
      </contour>
      <contour>
        <pt x="180" y="677" on="1"/>
        <pt x="180" y="732" on="1"/>
        <pt x="299" y="676" on="1"/>
        <pt x="418" y="732" on="1"/>
        <pt x="418" y="677" on="1"/>
        <pt x="300" y="620" on="1"/>
      </contour>
    </TTGlyph>
    <TTGlyph name="Ncommaaccent" xMin="74" yMin="-220" xMax="579" yMax="740">
      <contour>
        <pt x="317" y="-67" on="1"/>
        <pt x="392" y="-67" on="1"/>
        <pt x="329" y="-220" on="1"/>
        <pt x="268" y="-220" on="1"/>
      </contour>
      <contour>
        <pt x="74" y="740" on="1"/>
        <pt x="143" y="740" on="1"/>
        <pt x="461" y="214" on="1"/>
        <pt x="504" y="130" on="1"/>
        <pt x="510" y="131" on="1"/>
        <pt x="510" y="740" on="1"/>
        <pt x="579" y="740" on="1"/>
        <pt x="579" y="0" on="1"/>
        <pt x="508" y="0" on="1"/>
        <pt x="193" y="523" on="1"/>
        <pt x="148" y="610" on="1"/>
        <pt x="142" y="609" on="1"/>
        <pt x="142" y="0" on="1"/>
        <pt x="74" y="0" on="1"/>
      </contour>
    </TTGlyph>
    <TTGlyph name="Ncommaaccent.sc" xMin="70" yMin="-172" xMax="516" yMax="577">
      <contour>
        <pt x="70" y="577" on="1"/>
        <pt x="135" y="577" on="1"/>
        <pt x="405" y="183" on="1"/>
        <pt x="446" y="117" on="1"/>
        <pt x="451" y="118" on="1"/>
        <pt x="451" y="577" on="1"/>
        <pt x="516" y="577" on="1"/>
        <pt x="516" y="0" on="1"/>
        <pt x="451" y="0" on="1"/>
        <pt x="183" y="393" on="1"/>
        <pt x="141" y="460" on="1"/>
        <pt x="135" y="460" on="1"/>
        <pt x="135" y="0" on="1"/>
        <pt x="70" y="0" on="1"/>
      </contour>
      <contour>
        <pt x="280" y="-53" on="1"/>
        <pt x="352" y="-53" on="1"/>
        <pt x="297" y="-172" on="1"/>
        <pt x="238" y="-172" on="1"/>
      </contour>
    </TTGlyph>
    <TTGlyph name="Ndotaccent" xMin="74" yMin="0" xMax="579" yMax="893">
      <contour>
        <pt x="327" y="799" on="1"/>
        <pt x="280" y="799" on="0"/>
        <pt x="280" y="845" on="1"/>
        <pt x="280" y="871" on="0"/>
        <pt x="304" y="893" on="0"/>
        <pt x="327" y="893" on="1"/>
        <pt x="376" y="893" on="0"/>
        <pt x="376" y="845" on="1"/>
        <pt x="376" y="799" on="0"/>
      </contour>
      <contour>
        <pt x="74" y="740" on="1"/>
        <pt x="143" y="740" on="1"/>
        <pt x="461" y="214" on="1"/>
        <pt x="504" y="130" on="1"/>
        <pt x="510" y="131" on="1"/>
        <pt x="510" y="740" on="1"/>
        <pt x="579" y="740" on="1"/>
        <pt x="579" y="0" on="1"/>
        <pt x="508" y="0" on="1"/>
        <pt x="193" y="523" on="1"/>
        <pt x="148" y="610" on="1"/>
        <pt x="142" y="609" on="1"/>
        <pt x="142" y="0" on="1"/>
        <pt x="74" y="0" on="1"/>
      </contour>
    </TTGlyph>
    <TTGlyph name="Ndotaccent.sc" xMin="70" yMin="0" xMax="516" yMax="709">
      <contour>
        <pt x="70" y="577" on="1"/>
        <pt x="135" y="577" on="1"/>
        <pt x="405" y="183" on="1"/>
        <pt x="446" y="117" on="1"/>
        <pt x="451" y="118" on="1"/>
        <pt x="451" y="577" on="1"/>
        <pt x="516" y="577" on="1"/>
        <pt x="516" y="0" on="1"/>
        <pt x="451" y="0" on="1"/>
        <pt x="183" y="393" on="1"/>
        <pt x="141" y="460" on="1"/>
        <pt x="135" y="460" on="1"/>
        <pt x="135" y="0" on="1"/>
        <pt x="70" y="0" on="1"/>
      </contour>
      <contour>
        <pt x="294" y="623" on="1"/>
        <pt x="250" y="623" on="0"/>
        <pt x="250" y="667" on="1"/>
        <pt x="250" y="709" on="0"/>
        <pt x="294" y="709" on="1"/>
        <pt x="315" y="709" on="0"/>
        <pt x="339" y="689" on="0"/>
        <pt x="339" y="667" on="1"/>
        <pt x="339" y="644" on="0"/>
        <pt x="315" y="623" on="0"/>
      </contour>
    </TTGlyph>
    <TTGlyph name="Ntilde" xMin="74" yMin="0" xMax="579" yMax="916">
      <contour>
        <pt x="175" y="846" on="1"/>
        <pt x="193" y="875" on="0"/>
        <pt x="248" y="916" on="0"/>
        <pt x="275" y="916" on="1"/>
        <pt x="294" y="916" on="0"/>
        <pt x="326" y="903" on="0"/>
        <pt x="356" y="886" on="0"/>
        <pt x="387" y="873" on="0"/>
        <pt x="404" y="873" on="1"/>
        <pt x="420" y="873" on="0"/>
        <pt x="449" y="894" on="0"/>
        <pt x="461" y="913" on="1"/>
        <pt x="488" y="893" on="1"/>
        <pt x="473" y="858" on="0"/>
        <pt x="419" y="820" on="0"/>
        <pt x="391" y="820" on="1"/>
        <pt x="372" y="820" on="0"/>
        <pt x="340" y="833" on="0"/>
        <pt x="310" y="848" on="0"/>
        <pt x="280" y="861" on="0"/>
        <pt x="263" y="861" on="1"/>
        <pt x="246" y="861" on="0"/>
        <pt x="212" y="840" on="0"/>
        <pt x="198" y="823" on="1"/>
      </contour>
      <contour>
        <pt x="74" y="740" on="1"/>
        <pt x="143" y="740" on="1"/>
        <pt x="461" y="214" on="1"/>
        <pt x="504" y="130" on="1"/>
        <pt x="510" y="131" on="1"/>
        <pt x="510" y="740" on="1"/>
        <pt x="579" y="740" on="1"/>
        <pt x="579" y="0" on="1"/>
        <pt x="508" y="0" on="1"/>
        <pt x="193" y="523" on="1"/>
        <pt x="148" y="610" on="1"/>
        <pt x="142" y="609" on="1"/>
        <pt x="142" y="0" on="1"/>
        <pt x="74" y="0" on="1"/>
      </contour>
    </TTGlyph>
    <TTGlyph name="Ntilde.sc" xMin="70" yMin="0" xMax="516" yMax="721">
      <contour>
        <pt x="158" y="660" on="1"/>
        <pt x="175" y="687" on="0"/>
        <pt x="223" y="721" on="0"/>
        <pt x="248" y="721" on="1"/>
        <pt x="265" y="721" on="0"/>
        <pt x="293" y="711" on="0"/>
        <pt x="320" y="699" on="0"/>
        <pt x="348" y="689" on="0"/>
        <pt x="363" y="689" on="1"/>
        <pt x="394" y="689" on="0"/>
        <pt x="416" y="720" on="1"/>
        <pt x="438" y="703" on="1"/>
        <pt x="423" y="672" on="0"/>
        <pt x="375" y="639" on="0"/>
        <pt x="350" y="639" on="1"/>
        <pt x="333" y="639" on="0"/>
        <pt x="305" y="649" on="0"/>
        <pt x="278" y="662" on="0"/>
        <pt x="251" y="672" on="0"/>
        <pt x="236" y="672" on="1"/>
        <pt x="220" y="672" on="0"/>
        <pt x="191" y="655" on="0"/>
        <pt x="178" y="641" on="1"/>
      </contour>
      <contour>
        <pt x="70" y="577" on="1"/>
        <pt x="135" y="577" on="1"/>
        <pt x="405" y="183" on="1"/>
        <pt x="446" y="117" on="1"/>
        <pt x="451" y="118" on="1"/>
        <pt x="451" y="577" on="1"/>
        <pt x="516" y="577" on="1"/>
        <pt x="516" y="0" on="1"/>
        <pt x="451" y="0" on="1"/>
        <pt x="183" y="393" on="1"/>
        <pt x="141" y="460" on="1"/>
        <pt x="135" y="460" on="1"/>
        <pt x="135" y="0" on="1"/>
        <pt x="70" y="0" on="1"/>
      </contour>
    </TTGlyph>
    <TTGlyph name="O" xMin="43" yMin="-10" xMax="569" yMax="750">
      <contour>
        <pt x="305" y="-10" on="1"/>
        <pt x="43" y="-10" on="0"/>
        <pt x="43" y="369" on="1"/>
        <pt x="43" y="562" on="0"/>
        <pt x="172" y="750" on="0"/>
        <pt x="305" y="750" on="1"/>
        <pt x="439" y="750" on="0"/>
        <pt x="569" y="562" on="0"/>
        <pt x="569" y="369" on="1"/>
        <pt x="569" y="-10" on="0"/>
      </contour>
      <contour>
        <pt x="305" y="56" on="1"/>
        <pt x="354" y="56" on="0"/>
        <pt x="426" y="92" on="0"/>
        <pt x="471" y="168" on="0"/>
        <pt x="493" y="286" on="0"/>
        <pt x="493" y="369" on="1"/>
        <pt x="493" y="534" on="0"/>
        <pt x="403" y="685" on="0"/>
        <pt x="305" y="685" on="1"/>
        <pt x="256" y="685" on="0"/>
        <pt x="186" y="649" on="0"/>
        <pt x="141" y="572" on="0"/>
        <pt x="119" y="452" on="0"/>
        <pt x="119" y="369" on="1"/>
        <pt x="119" y="286" on="0"/>
        <pt x="140" y="168" on="0"/>
        <pt x="185" y="92" on="0"/>
        <pt x="256" y="56" on="0"/>
      </contour>
    </TTGlyph>
    <TTGlyph name="O.sc" xMin="42" yMin="-8" xMax="508" yMax="585">
      <contour>
        <pt x="275" y="-8" on="1"/>
        <pt x="42" y="-8" on="0"/>
        <pt x="42" y="288" on="1"/>
        <pt x="42" y="585" on="0"/>
        <pt x="275" y="585" on="1"/>
        <pt x="393" y="585" on="0"/>
        <pt x="508" y="439" on="0"/>
        <pt x="508" y="288" on="1"/>
        <pt x="508" y="-8" on="0"/>
      </contour>
      <contour>
        <pt x="275" y="54" on="1"/>
        <pt x="359" y="54" on="0"/>
        <pt x="436" y="164" on="0"/>
        <pt x="436" y="288" on="1"/>
        <pt x="436" y="412" on="0"/>
        <pt x="358" y="524" on="0"/>
        <pt x="275" y="524" on="1"/>
        <pt x="191" y="524" on="0"/>
        <pt x="114" y="413" on="0"/>
        <pt x="114" y="288" on="1"/>
        <pt x="114" y="163" on="0"/>
        <pt x="190" y="54" on="0"/>
      </contour>
    </TTGlyph>
    <TTGlyph name="OE" xMin="43" yMin="-4" xMax="754" yMax="744">
      <contour>
        <pt x="311" y="-4" on="1"/>
        <pt x="43" y="-4" on="0"/>
        <pt x="43" y="369" on="1"/>
        <pt x="43" y="558" on="0"/>
        <pt x="178" y="744" on="0"/>
        <pt x="311" y="744" on="1"/>
        <pt x="331" y="744" on="0"/>
        <pt x="381" y="742" on="0"/>
        <pt x="398" y="740" on="1"/>
        <pt x="745" y="740" on="1"/>
        <pt x="745" y="674" on="1"/>
        <pt x="469" y="674" on="1"/>
        <pt x="469" y="408" on="1"/>
        <pt x="718" y="408" on="1"/>
        <pt x="718" y="345" on="1"/>
        <pt x="469" y="345" on="1"/>
        <pt x="469" y="66" on="1"/>
        <pt x="754" y="66" on="1"/>
        <pt x="754" y="0" on="1"/>
        <pt x="398" y="0" on="1"/>
        <pt x="381" y="-2" on="0"/>
        <pt x="331" y="-4" on="0"/>
      </contour>
      <contour>
        <pt x="317" y="62" on="1"/>
        <pt x="334" y="62" on="0"/>
        <pt x="379" y="64" on="0"/>
        <pt x="395" y="66" on="1"/>
        <pt x="395" y="673" on="1"/>
        <pt x="378" y="675" on="0"/>
        <pt x="333" y="678" on="0"/>
        <pt x="316" y="678" on="1"/>
        <pt x="263" y="678" on="0"/>
        <pt x="188" y="642" on="0"/>
        <pt x="140" y="567" on="0"/>
        <pt x="118" y="450" on="0"/>
        <pt x="118" y="369" on="1"/>
        <pt x="118" y="288" on="0"/>
        <pt x="140" y="171" on="0"/>
        <pt x="188" y="97" on="0"/>
        <pt x="264" y="62" on="0"/>
      </contour>
    </TTGlyph>
</ttFont>
